<svg xmlns="http://www.w3.org/2000/svg" xmlns:xlink="http://www.w3.org/1999/xlink" viewBox="0 0 1965.6 1446.98"><defs><style>.cls-1{fill:#ffece0;}.cls-2{clip-path:url(#clip-path);}.cls-3{fill:#feede5;}.cls-3,.cls-4,.cls-5,.cls-6,.cls-7{fill-rule:evenodd;}.cls-4{fill:#e7eaac;}.cls-5{fill:#fff;}.cls-6{fill:#fcd5cb;}.cls-7{fill:#bf8f8b;}.cls-8{fill:#965d4b;}</style><clipPath id="clip-path"><path class="cls-1" d="M4.26,835.42C-14.11,636.55,9.63,343,432.47,161s1375.6-342.56,1498.71,305.09-69.59,936.7-813.59,947.4S47.43,1302.66,4.26,835.42Z"/></clipPath></defs><title>Asset 1</title><g id="Layer_2" data-name="Layer 2"><g id="_Layer_" data-name="&lt;Layer&gt;"><path class="cls-1" d="M4.26,835.42C-14.11,636.55,9.63,343,432.47,161s1375.6-342.56,1498.71,305.09-69.59,936.7-813.59,947.4S47.43,1302.66,4.26,835.42Z"/><g class="cls-2"><path class="cls-3" d="M827.37,477.82c0-82.08,129.35-153.4,182.45-153.4s77.24,86.39,77.24,168.46c0,38-27.38,95.88-66.26,150.61-40.17,56.56-57.24,113.45-85.75,113.45-33.87,0-91.62-69.76-112.14-149.14-6.14-23.71,20.91-33.25,23.76-57.38C849.24,528.69,827.37,491.9,827.37,477.82Z"/><path class="cls-3" d="M503.4,1180.7c-9.59-8.67-14.34-19.76-17.64-31s-5.88-20-4.47-34.59,1.65-30.13,4.94-35.54,11.53-10.13,14.6-15.54,9.63-14.11,12.46-21.65,3.07-11.51-3-18.59-17.66-16.48-21.89-22.12-5.49-15.35-7.16-22.49-6.05-14.43-9.26-20.6a36.85,36.85,0,0,1-4.58-19.87c.45-7.31.23-13.72-1.83-18.95s-2.89-9.14.06-13.68,8.72-9.44,8.72-15-.88-11.81-.47-20,1.25-12.54,6.24-17.61,10.46-13.13,13.77-10S510.46,859,513.57,862s10,14,17.3,12.52a167.18,167.18,0,0,1,21.65-2.93c5.77-.25,12.29,1.29,10.09,6.48a26.69,26.69,0,0,1-10,12.26c-4.33,2.78-12.56,7.42-20.07,8.88s-17.06,3.43-22.07,5.72-10.62,4.52-11.62,10.6-1.84,10.83-.53,15.74,3.52,3.88,10.13,1.13,16.33-3.58,25.16-4.86,25.37-2.65,31.16-2.9,19.32-.94,26.06-1.91,14.21-1.85,19.48-2.28,8.57,1.69,7.09,6.9-4.23,9.7-11.16,13-16.87,7.74-20,8.29.34,4.25,3.31,7.2,4.11,11,9.1,11.37,18.16-.05,21.42,0,7.44,1.81,6.87,6.65-3.73,8.33-8.78,11.37-11.79,7.21-11,11.12,3.25,4.53.18,13.36-7.83,23.94-14,34-20.36,47-23.68,59-13.11,46.45-15.71,56-2.16,18.74-7.36,21.5S508.11,1185,503.4,1180.7Z"/><path class="cls-3" d="M1204.27,1000.91c5.32-1.24,10.44.21,17.4,2.25s16.56,5.33,24.11,12.07,14.34,13.91,18.42,22.3,10.22,18.41,11.66,27.82,2.66,8.18-.41,16.35-1,13.91.21,19.84,5.52,11.26,1.42,21.28-14.52,30.28-20.65,37-21.69,17.19-29.65,17.6-20.67-2.46-25.58-5.74-4.29-13.49-9.6-9.19-10.86,13.3-17.6,16.76-13.91,4.3-16.78.61-3.67-7.56-9.19-3.89-11,7-14.74,3.28-5.13-9.09-5.84-12.17-5.45,1.68-8.25,4.61-7.13,4.47-9.09.55-3.5-8.81-6.3-7.54-13.7,3.07-16.78,1.82-7.84-3.36-7.12-8.11,4-10.08,8.8-14.41,15.54-12.73,18.33-18.61,10.35-19.45,12.85-25.46,13.73-27.54,18.08-37.49,10.63-22.66,17.18-30.36,15.26-13.85,25.75-19.85S1199,1002.14,1204.27,1000.91Z"/><path class="cls-4" d="M804.2,564.74c-13.2-15.64-29.52-24.62-31.52-58.59-1.35-23.27,8.56-41.72,15.68-68.62,7.4-27.94,19.61-45.73,25.29-69.8,7.45-31.42,16.36-46.1,30.66-63s39.6-36,63.12-46.25,53.75-14.94,70.61-12.38,31.34,13.23,51,18.37,56.57,13.41,69.36,29.77,24.49,38.67,28.58,63.19c2.31,13.8,8.43,46.64,8.33,71-.06,19-5.4,44-5.83,55.43-.6,14.75.25,36.86-2.48,55.55-2.09,14.35-6.21,27.1-11.32,35.55-8.43,13.92-16.42,20.2-28.12,30.77-4.94,4.46-.16,16-2.34,24.4-1.94,7.52-2.19,15.69-5.2,22.12-4.71,10.13-12.38,18.19-14.93,29.48-1.22,5.48,4.7,22.51,4,35.44-1,17.38-14.05,28-13.1,39.46,1.1,13.18,11.61,29,3.83,47.58-11.11,26.52-26.69,41.47-22.43,49.52,5,9.41,3.6,13.57,1.89,19.47-2.58,8.92.78,21.38,4,30.86,2.38,7,18.24,32.46,21.89,39.67,7.8,15.31,14.24,40.42,13.18,64-1,22.56-3.57,29.51-22.49,44.83-12.55,10.16-32.42,22.24-31.07,30.14,2.25,13.08-9.71,17.72-20.43,5-7.87-9.29-5.64-20.5-3.35-29.07,2.34-8.89,9.31-12.71,9.78-25.79s-5.44-16.42-8.82-20.81c-6.42-8.4-19.5-12-25.4-36.11-3.89-16-.47-26.71,5-40.56,6.46-16.34,20.92-37.3,23.66-43.81,5.07-12,6.7-19.08,7.36-29.42.72-11.32-5.72-26.48-11-35.61-6.83-11.93-9.2-28.85-7.35-39.09s6.25-14,5-17.16c-4.73-11.79-6-18.11-7-27.62-1.63-15.47,1.47-30.61.94-49.38-.26-8.87-2.88-15.85-2.23-24.55,2-27.1,4.08-38.19,10.22-43.3s15.59-4,37.43-29.09c24.18-27.74,37.75-62.22,41.33-84.2s-3.06-23.46-8.17-52.62-7.86-55.81-11.9-71.52-8.6-26.62-15.15-35.26c-8.56-11.31-29-19.44-41.44-11-22,14.83-20.88,20.73-41.83,44.25s-40.68,46-65.77,54.82-32.49,15-42.38,19-19.84,14.07-23,18.46c-2.86,4.05,1.5,9.49,6.61,13.52,10.71,8.4,15.81.45,15.3,16.81s9.63,37.48,2.13,36.71-18.19-.11-30.54,5.17C814.07,554.7,807.28,568.37,804.2,564.74Z"/><path class="cls-5" d="M1008.54,874.49c-1.9-2.32-3.21-4.38-3.21-12.23s1-14.57,3.66-16.61,3.65,2.48,4.51,5.38,1.74,13,4.65,13.57,6.12,1.88,10.94-2.34,6.55-11.51,8.3-8.31,3.21,10,2.63,14.12,0,8.47-5,10.22a25.32,25.32,0,0,1-15.43.28C1014.08,877.11,1010.44,876.83,1008.54,874.49Z"/><path class="cls-6" d="M412.89,1265.4c-9-4.1-16.66-14.7-21.65-31.35s-7.21-27.44-6.08-43,5.54-32.15,5.81-42.43a272.76,272.76,0,0,1,2.79-34.39c1.94-13,4.42-21.36,8.87-33.56s13.85-33,18.26-44.7,7.37-16.94,7.4-28,1.22-20.42-1.1-35.49a178.14,178.14,0,0,1-2.27-37.23c.54-9.89,1.05-13.36,5.65-25s14.72-38.5,20-51.62,10.82-27.92,13.69-36.42,3.28-8.52,7.17-3.23,14.09,14,18.64,19.89,5.49,5.34-.88,8.31-14.75,10.76-14.77,17.38,1.35,17.59,1.05,23.45-4.34,10-8,16.18-5.84,11.39-2.25,15.5,5.29,5.15,4,11.1-2.81,13.93-.46,20,10.17,12.79,11.39,17.51,1.57,13.33,3.2,20.44,6.84,15.9,12.13,21.26,14.56,10,17.63,15.34,6.68,9.67,3.52,14.77-7.63,14.42-15.84,25.24-12.7,7-14.45,13.93-4.75,33.71-4.11,41.93,1.09,28.76,6.06,37.62,13.18,16.66,15.35,22.06,2.17,7.12-3.67,7.57-69.18-1.09-75.24-.23-6.05,3.25-6.71,14S415.43,1266.54,412.89,1265.4Z"/><path class="cls-6" d="M547.41,1178.41c3.41-8.18,15-53,19.33-66s10.71-34.12,16.16-45.72,8.2-18.66,11.83-26.63,5.45-15,9.1-24.12,2.11-20.89,1.44-23.52,4-2.48,6.48-3.82,3.12.29,5.88,4,13.48,22,16.08,32.87,5.8,24.47,6.09,37.83-.25,35.22-4.07,47.46-7.41,28.08-13.56,36.29-14.77,17.67-22.27,22.19a84.84,84.84,0,0,1-21.27,9.13c-6.86,1.91-18.45,2.6-22.71,2.42S544,1186.59,547.41,1178.41Z"/><path class="cls-6" d="M498.1,935.07a34.7,34.7,0,0,1-1.25-13.3c.62-5.88,1.75-9.64,6.9-13.66s13.55-5.79,20.44-8.17,18.69-7.14,21.58-4.87A92.21,92.21,0,0,1,557.32,906c4.39,4.87,11,12.9,12.66,16.67s-1.88,2-9.28,2.63-24.84,2.28-33.62,3.26-18.06,3-21.7,6.15S498.85,937.7,498.1,935.07Z"/><path class="cls-6" d="M494.19,730.16c3.07-6.56,8.53-23.95,14.33-32s27.49-25.5,38.07-31.58,21.79-12,35.25-16.55,32-9.34,47-11.11,55.41-4.08,70.29-7,40.46-5.72,49.58-9.16,11.64-4.12,21.79-10.55,15.91-8.66,20.26-13.8,6.88-9.41,8.6-15.26,6.62-16.71,11-22.44,7.44-9.8,18.13-12.56a86.78,86.78,0,0,1,21.85-3c5.57-.24,8.92,2.38,7.1,7.07s-7.4,21.22-12,28.1-11,15.35-14.47,17.39-3.34,4.23-.8,11.29,12,31.66,15.92,39.55,23.14,39.58,28.92,47.33,22.3,28.47,28.18,34,18.53,16.61,26,19.79,13.56,1.11,19.25-4.82a153.52,153.52,0,0,0,17.14-21.13c5.51-8.33,14.75-26.6,18.57-33.83s6.78-12,7.39-7.2,4.77,15.5,4.53,19.2-2.19,11-2.85,17.56-2.2,15.74-.41,25.92,4,20,5.71,24.56-2.13,4.83-2.92,11.76-2.72,18.65-1.13,26.52,6.22,17.53,9.19,22.38,7.12,11.26,7,15.72-2.95,5.43-3,10.6-.14,11.81,1.54,15,1.06,4.66-1.54,11.66-13.52,27.65-17.41,34.15S978.66,941.18,978,947s-4.7,17.08-2,27.29A63.18,63.18,0,0,0,991,1001.1c6.56,6.74,12,11.29,16,17.12s6.34,12.14,3.58,18.79-5.52,13.88-7.51,17.86-3.63,20.17-1.15,25.56,1.63,7,7.94,10.4,11.33,3.34,12.95,1.05-.83-7.1,1.73-11.45,10.75-12.45,16.18-16.71,19.77-12.9,24.62-19.2a60.24,60.24,0,0,0,11.51-24.35c2-9.85,2.73-24.89.75-35.3s-3.61-19.59-7.72-28.19-17-31.46-21.11-40.67-8.58-16.2-9.24-26-.18-11.23-.07-19.43.33-14.41-1.82-17.33-1.5-4.23,1.07-8.89,9.56-12.67,13.39-21.92,9.85-17.11,9.66-27.18-2.62-20.5-4.14-27.45-3.1-11.17-2-15.29,9.33-17.38,10.65-24.31,3.62-11.27,2.78-19a136.31,136.31,0,0,0-3.67-19.34c-1.62-6.55.06-11.43,3.45-15.93s1.69-1.3,8.4-1.68,20.29,1,37.45,5.9,37.57,11,47.46,18.14,29.91,28.35,32.29,32.76,6.24,20.62,8.38,27.72,4.89,28.26,5.49,42.5-1.24,42-2.23,55.45-5.27,53-5.8,57.86-1.88,16.18-.33,26.5,2.59,17.71,3.94,28.83,2.41,21.83,1.81,27.17-2.44,5.1-7.87,7.37-22.86,11.78-28.47,16-18.61,17.12-21.8,22.42-10.6,24.13-16.59,35.53-11.36,25.91-16,34.94-4.86,9.73-11.66,17.25-12.33,12.2-16.72,17.09-8.31,8.08-7,12.78,2,7.45,8.05,7.42,11.39.77,14.87-.83,4.36-1.62,4.93,2,1.5,7.39,5,7.31,6.21-1.26,9.81-5,4.45-2.23,5.56,1.19,1.19,8.74,5.45,8.88,8.58,2.18,12.72-1.73,6.47-4.51,8.18-1.91,4.25,6.59,8.08,6.31,6.74-.57,14-6.5,12.6-11.08,15.13-13.3,2.07-.38,4.21,2.78,5.13,3.72,10.88,5.1,12.48,6.44,17.68,5.85,11.93-1.07,17.32-4.24,16.39-14.09,21.49-21.11,14.36-23.34,14.77-30-2-19-4.12-23.16-1.56-7.72,2.56-3.55,12.17,16.14,13.7,21.19,4,13.59,3.59,20.65-2.24,12.95-6.07,22.27-5.68,13.43-11.28,20.84-8.72,14.57-14.4,15.46-79.57-.11-85.1.68-2.54,5.16-14.23.09-54.92-19.45-66.38-23.44-13.06-4.68-20.41-4.72-163,1.57-191.29,2.22-61.36,1-68.45,2-1.25-2.59,6.81-13.47,18-30,21.5-43.61,8.73-37.9,9.14-51,.09-36.29-3-51.32S838.76,969.58,831,952.8s-29.63-59-39.32-77-29.89-49.57-36-59.73-27.09-42.17-31.92-51.3-11.11-26.17-15.26-36-12.62-23.52-18.62-23.52-17.65,2.92-32.85,3.51-47.1,3.42-60.93,4.43a254.59,254.59,0,0,0-40,5.92c-13.17,3.09-30,6.37-39.39,9.19S491.14,736.7,494.19,730.16Z"/><path class="cls-5" d="M504.08,1181.5c5.47.17,63.77-1,70.52-2.68s23-8.57,31-14.08,13.85-11.24,20.88-24.81,12-30.5,12.82-43.89,2.62-36.1-1-52.37-8-28.25-12.1-35.31S614.3,992,612.1,990.11s.88-1.65,4.58-4.07,11-4.15,9.82-9.83-5.33-9.91-12.52-8.82-11.8,3.69-15.64-1S588,953.19,584.63,950.75s2.46-2.51,6.37-3.72,18-6.9,20.56-10.33,6.56-4.71,5.43-9.24-1.84-9.44-8.49-7.9-20.92,4.5-27.1,4.45-10.44,1.37-12.57-2.34-20.64-22.92-24-25,2.61-3.26,6.51-5,10.29-9.47,10.88-13.1.79-6.12-4.64-6.16-18.91,2.19-24.79,2.81-7.89,1.5-12-2.42-16.61-17.69-22.34-24.06-24.41-26.32-32.82-36.35-24.21-29.68-29-35.71-15.45-18.1-20.87-22.63-14.24-11.2-10.44-11.5,18.72-1.83,28.44-2.26,45.1-4.37,56.33-6.08,27.47-7.25,43.46-10.44,33.66-6.75,46.67-8.93,30.55-2.12,46.13-3.81,28.49-1.91,42.23-3.43,16.66-3.33,20.66-3.42,8.82-1.26,13.39,9.71,11.42,33.08,17.08,43.24,24.07,39,30.88,50.28,31.7,52.3,41.56,70.38,23.29,41.2,32.42,60.87S842,976.75,845.1,989.75s8.47,35.88,9.12,48.5a226.15,226.15,0,0,1-1.31,38.22c-1.48,11.47-4.61,28-11.32,43.44s-20,40.69-23.29,45.11,3.78,3.78,8.2,4.11,253.16-4,253.16-4,11.91,4.43,20.42,7.64,162.42,58.24,168.05,61.06,6,17.71-2.57,17.66-277-1.83-296.45-2.34-275.89-.84-280-1-38.37,1.47-45.76-.69c-9-2.64-142.7-49-142.7-49S503,1181.45,504.08,1181.5Z"/><path class="cls-5" d="M1444.1,1151.85c-2.3-15.13-4.27-32.94-5.9-48.9,0,0-12.48-20.35-19.83-20.58-5.48-.15-8,14.5-4.75,29,.49,2.08,7,28,25.1,47.75,1,1.09,4.09,2.57,5.22,5.69,3.76,10.35,5.18,28.51,0,23.41-9.47-9.29-26.39-32.4-30.39-40.06-16.93-32.48-17.22-54.61-17.28-56.08-1.1-24.18,13.82-30.23,18.59-30.17,6.93.09,20.61,13.33,20.61,13.33-.63-6.57-1.11-11.64-1.44-14.36-1.32-10.73-5.18-17.54-1.13-22,12.17-13.23,59.71-16,83.31-16,16.42,0,71.83,2,84.76,14.16,6.08,5.76,1.77,8.8,1.13,19.73s-8.19,66-12.73,100.58c-3.41,25.95-4.36,41.74-7.32,62.06-3.43,23.67-6.49,40.21-8.57,42.12-9.3,8.49-42.15,10.78-56.27,10.78-20.1,0-58.69-5.71-60.29-14.06C1453.61,1241,1449.83,1190.11,1444.1,1151.85Z"/><path class="cls-7" d="M1440.52,1046c0-3.25,31.88-8.88,74.47-8.88s79.55,6.52,79.55,9.76-35.19,10.86-77.77,10.86S1440.52,1049.27,1440.52,1046Z"/><path class="cls-8" d="M954.49,640.56a58.12,58.12,0,0,1-13.61-1.49c-1.19-.3-29.51-7.56-54.62-34.41a3.46,3.46,0,0,1,5.06-4.73c19,20.29,41.81,30.07,51.22,32.41,15.24,3.78,42.4-.08,68.66-17.2,24.15-15.75,55.27-47.88,66.32-111.43a3.47,3.47,0,1,1,6.84,1.19c-11.49,66-44.06,99.54-69.39,116C993.54,634.93,971.25,640.56,954.49,640.56Z"/><path class="cls-8" d="M863.9,567.48a3.48,3.48,0,0,1-3.18-2.12c-10-23.44-13.64-50.21-10.88-79.58a3.41,3.41,0,0,1,3.76-3.12,3.47,3.47,0,0,1,3.13,3.76c-2.64,28.22.85,53.85,10.35,76.25a3.46,3.46,0,0,1-3.18,4.81Z"/><path class="cls-8" d="M850.49,502.5a2.73,2.73,0,0,1-.81-.11c-7.47-1.77-17.74-5.54-20.58-17.66a3.47,3.47,0,0,1,6.76-1.57c1.53,6.56,6.13,10.29,15.42,12.5a3.47,3.47,0,0,1-.79,6.84Z"/><path class="cls-8" d="M968.35,525.07a3.46,3.46,0,0,1-1.75-.51,3.43,3.43,0,0,1-1.19-4.75,23.14,23.14,0,0,1,5-5.28c2.64-2.26,5.34-4.6,5.24-6.84a15.39,15.39,0,0,0-1.88-2.21,15.57,15.57,0,0,1-3.36-4.63c-3.2-7.81-2.07-17.89,3-26.33a3.47,3.47,0,0,1,6,3.56c-3.88,6.5-4.88,14.41-2.53,20.15a12.31,12.31,0,0,0,2,2.53c1.68,1.8,3.6,3.84,3.74,6.59.26,5.62-4.1,9.39-7.62,12.42a20.14,20.14,0,0,0-3.63,3.6A3.47,3.47,0,0,1,968.35,525.07Z"/><path class="cls-8" d="M952.35,414.51a3.48,3.48,0,0,1-1.7-.44,31.63,31.63,0,0,0-6.23-2.63,3.47,3.47,0,0,1,2.07-6.62,40.91,40.91,0,0,1,7.56,3.2,3.47,3.47,0,0,1-1.7,6.49Z"/><path class="cls-8" d="M1054,433a3.45,3.45,0,0,1-2.55-1.1c-6.65-7.13-20.7-9.4-31-8.5a3.46,3.46,0,1,1-.6-6.9c12.28-1.08,28.38,1.79,36.65,10.69A3.45,3.45,0,0,1,1054,433Z"/><path class="cls-8" d="M973.62,576.25c-13.23,0-26.56-4.49-39.86-13.43a3.47,3.47,0,1,1,3.87-5.75c19.59,13.19,39.19,15.71,58.21,7.45a3.46,3.46,0,1,1,2.77,6.35A62.3,62.3,0,0,1,973.62,576.25Z"/><path class="cls-8" d="M1024.61,325.88a3.48,3.48,0,0,1-3.18-4.82c4.26-10.08,5.23-26.87-.63-36.41a3.46,3.46,0,1,1,5.89-3.63c7.12,11.57,6.16,30.81,1.13,42.74A3.51,3.51,0,0,1,1024.61,325.88Z"/><path class="cls-8" d="M1136.36,449.14a3.47,3.47,0,0,1-3.45-3.17c-.53-5.9-1-12.25-1.46-18.91-3.43-48-8.14-113.63-47.68-139.69-14.08-9.29-28.61-12.41-43.94-15.71C1036,270.82,1032,270,1028,269a3.46,3.46,0,0,1-2.57-4.17,3.43,3.43,0,0,1,4.16-2.57c4,.94,7.86,1.78,11.67,2.6,16,3.45,31.14,6.7,46.33,16.7,42.4,27.94,47.22,95.58,50.77,145,.47,6.63.91,12.95,1.44,18.79a3.48,3.48,0,0,1-3.15,3.77Z"/><path class="cls-8" d="M824.43,507a1.18,1.18,0,0,1-.27,0,3.43,3.43,0,0,1-3.19-3.69c1.14-15.58,5.12-34.44,25.82-42.09a3.46,3.46,0,1,1,2.38,6.5c-13.42,5-19.79,15.76-21.29,36.09A3.47,3.47,0,0,1,824.43,507Z"/><path class="cls-8" d="M1051.15,637.25a3.43,3.43,0,0,1-2.54-1.1,3.47,3.47,0,0,1,.17-4.89c7.62-7.09,16-13.27,24.1-19.26,12.61-9.28,24.5-18,34-30,17.66-22.22,17.91-50,18.16-76.94.09-11.77.21-24,1.76-35.52a3.47,3.47,0,0,1,6.87.93c-1.51,11.13-1.6,23.09-1.7,34.66-.25,28.07-.52,57.09-19.67,81.18-10.07,12.69-22.89,22.14-35.29,31.28-8,5.87-16.17,11.94-23.5,18.74A3.41,3.41,0,0,1,1051.15,637.25Z"/><path class="cls-8" d="M922.79,471a31.72,31.72,0,0,1-20.52-7.61,3.46,3.46,0,1,1,4.45-5.31,24.91,24.91,0,0,0,22.13,5.26,3.47,3.47,0,0,1,1.58,6.76A33.54,33.54,0,0,1,922.79,471Z"/><path class="cls-8" d="M1031.27,488.79a23.11,23.11,0,0,1-13.66-4.58,3.47,3.47,0,0,1,4-5.66c6.49,4.58,12,3.89,19.47,1.15a3.46,3.46,0,1,1,2.4,6.49A35.15,35.15,0,0,1,1031.27,488.79Z"/><path class="cls-8" d="M916.48,475.54H916c-1.73-.13-4.23-1-6.53-4.74a3.48,3.48,0,0,1,1.17-4.77,3.45,3.45,0,0,1,4.74,1.15,5.45,5.45,0,0,0,1.09,1.35c.06-.1.19-.22.34-.41a3.47,3.47,0,0,1,5.32,4.45A7.26,7.26,0,0,1,916.48,475.54Z"/><path class="cls-8" d="M1030.4,493.48c-2.14,0-4.2-1.06-6.22-3.25a3.45,3.45,0,1,1,5-4.71,4.9,4.9,0,0,0,1.22,1c0-.09.41-.35,1-1.05a3.45,3.45,0,1,1,5.29,4.44c-1.94,2.33-4,3.49-6.17,3.54Z"/><path class="cls-8" d="M828.1,602.91a3.46,3.46,0,0,1-1.47-6.59c12.7-6,23.55-30.35,27.72-45.26a3.47,3.47,0,1,1,6.68,1.87c-4.19,14.91-15.52,42.17-31.45,49.66A3.53,3.53,0,0,1,828.1,602.91Z"/><path class="cls-8" d="M936.89,756c-4.16,0-8.56-2.76-11.48-4.6l-.77-.5c-8.67-5.31-16.27-11.51-25.42-20.66-32.67-32.65-61.27-82-74.63-128.84a3.46,3.46,0,0,1,6.65-1.9c13.07,45.74,41,94,72.89,125.84,8.74,8.75,16,14.65,24.12,19.67l.87.54c5.91,3.73,7.71,3.73,8.28,3.42,19.71-11.25,32.39-37.21,42.56-58.08,1.33-2.71,2.62-5.34,3.87-7.85a3.46,3.46,0,1,1,6.19,3.08c-1.25,2.51-2.51,5.12-3.82,7.81-10.6,21.72-23.8,48.74-45.37,61.07A8,8,0,0,1,936.89,756Z"/><path class="cls-8" d="M842.6,806.17a4.33,4.33,0,0,1-1.38-.22c-3-1-2.89-2.73-2.39-16.28l0-.86c-.53-7.39-3.52-17.33-6.12-24.09-4-10.3-8.53-20.67-13-30.68-8.41-19.09-17.13-38.84-22.32-59.6-5.12-20.54-14.12-86,11.18-116.13,9.85-11.76,23.69-17.09,41.19-15.87a3.46,3.46,0,1,1-.48,6.91c-15.14-1.06-27.06,3.44-35.4,13.41-23.45,28-14.68,90.34-9.76,110,5,20.18,13.63,39.65,21.93,58.47,4.45,10.1,9.06,20.54,13.09,31,1.33,3.51,5.78,15.77,6.55,26.34,0,.08,0,.57,0,1.37-.12,3.21-.19,5.58-.21,7.29,2.49-1.84,5.55-4.43,7.05-5.69s2.89-2.4,3.42-2.75c5.57-3.58,10.93-9.21,16.59-15.15,11.82-12.4,25.22-26.45,43.57-22.77a3.46,3.46,0,1,1-1.35,6.79c-14.68-2.93-25.6,8.59-37.2,20.75-5.7,6-11.6,12.18-17.87,16.21-.44.3-1.42,1.15-2.71,2.22C849.2,803.45,845.46,806.17,842.6,806.17Z"/><path class="cls-8" d="M987.67,792.56a3.42,3.42,0,0,1-2.1-.7,125.66,125.66,0,0,1-11.38-10.63c-8.1-8.17-18.18-18.31-25.28-18.31a3.47,3.47,0,1,1,0-6.94c10,0,20.73,10.83,30.21,20.36a113.88,113.88,0,0,0,10.66,10,3.5,3.5,0,0,1,.66,4.86A3.54,3.54,0,0,1,987.67,792.56Z"/><path class="cls-8" d="M545.87,671.15a3.46,3.46,0,0,1-2-6.32c36.39-25,82.77-29.59,127.62-34,26.71-2.63,54.35-5.36,79-12.45,12.8-3.7,22.05-10.57,31.84-17.84,3.2-2.39,6.46-4.82,9.91-7.18a3.46,3.46,0,1,1,3.92,5.7c-3.38,2.32-6.55,4.69-9.69,7-10.32,7.67-20,14.91-34.06,18.94-25.25,7.27-53.2,10-80.22,12.7-44,4.35-89.45,8.83-124.39,32.84A3.44,3.44,0,0,1,545.87,671.15Z"/><path class="cls-8" d="M1198.33,743.63a3.45,3.45,0,0,1-3.29-2.35c-12.76-38.3-60.69-58.09-97.85-63.38-4-.59-8-.95-12.32-1.35-3.77-.35-7.56-.7-11.29-1.18a3.46,3.46,0,1,1,.89-6.87c3.65.47,7.35.82,11,1.15,4.2.39,8.55.78,12.71,1.38,39.1,5.58,89.64,26.76,103.41,68.05a3.45,3.45,0,0,1-2.2,4.38A3.38,3.38,0,0,1,1198.33,743.63Z"/><path class="cls-8" d="M1091.7,562.79a3.47,3.47,0,0,1-3-5.25c13.3-22.17,4.61-39.09-5.45-58.7-4.23-8.27-8.66-16.84-11.45-26.15-4.27-14.24-6.14-28.95-8-43.19-1.69-13.37-3.47-27.21-7.21-40.35-6-20.79-16.9-43-29.8-43a3.47,3.47,0,0,1,0-6.93c20.51,0,32.32,33.59,36.45,48.05,3.9,13.64,5.71,27.73,7.43,41.36,1.79,14,3.64,28.39,7.75,42.08,2.6,8.7,6.87,17,11,25,10.09,19.64,20.51,39.94,5.24,65.41A3.52,3.52,0,0,1,1091.7,562.79Z"/><path class="cls-8" d="M802.6,399.27a3.52,3.52,0,0,1-1.57-.38,3.47,3.47,0,0,1-1.53-4.64c4.86-9.71,8.12-20.48,11.27-30.91,3.78-12.45,7.68-25.31,14.35-36.89,28.51-49.4,87.28-83.9,143-83.9,15.82,0,37.18,4.75,49.69,18.1a3.47,3.47,0,0,1-5,4.75c-11-11.75-30.93-15.92-44.64-15.92-53.34,0-109.64,33.07-137,80.43-6.3,10.88-10.07,23.36-13.72,35.44-3.25,10.7-6.59,21.76-11.72,32A3.47,3.47,0,0,1,802.6,399.27Z"/><path class="cls-8" d="M792.94,555.89a3.44,3.44,0,0,1-2.44-1c-33.28-33.27-18.66-77.53-5.77-116.6,2.52-7.68,4.92-14.94,7-22a3.46,3.46,0,1,1,6.65,1.92c-2.08,7.23-4.49,14.55-7,22.3-12.85,39-26.14,79.28,4.08,109.52a3.47,3.47,0,0,1-2.44,5.92Z"/><path class="cls-8" d="M1040,738.74a3.47,3.47,0,0,1-3.47-3.47c0-22.85,12-39.34,23.53-55.27,12.46-17.19,24.25-33.44,20.67-56.68a3.46,3.46,0,1,1,6.84-1.05c4,26.06-9.16,44.22-21.91,61.79-11.42,15.74-22.21,30.62-22.21,51.21A3.45,3.45,0,0,1,1040,738.74Z"/><path class="cls-8" d="M1020.63,767a3.46,3.46,0,0,1-3.46-3.47c0-16.69-6.49-29-13.37-42.07-4.87-9.24-9.89-18.79-12.74-30.23-5.15-20.56-1.81-37.3,2.76-55.5a3.46,3.46,0,1,1,6.71,1.68c-4.48,17.89-7.52,33.1-2.76,52.14,2.66,10.63,7.5,19.8,12.17,28.68,7,13.23,14.14,26.91,14.14,45.3A3.45,3.45,0,0,1,1020.63,767Z"/><path class="cls-8" d="M1036.51,809.8a3.46,3.46,0,0,1-3.47-3.46c0-20,8.51-35.79,16.76-51,6-11.2,12.33-22.77,15-35.93,2-9.77.53-21-4.7-35.38a3.47,3.47,0,0,1,6.53-2.37c3.57,9.83,8,24.59,5,39.16-2.92,14.14-9.44,26.19-15.74,37.82-8.19,15.13-15.93,29.43-15.93,47.72A3.45,3.45,0,0,1,1036.51,809.8Z"/><path class="cls-8" d="M1025.46,835.33a3.46,3.46,0,0,1-3.46-3.46c0-16.29-7.2-28.21-14.79-40.84-4.52-7.46-9.19-15.19-12.59-24.18-6.86-18.09-5.54-36.75-4.34-53.22a3.46,3.46,0,1,1,6.9.49c-1.18,16.52-2.39,33.62,3.91,50.29,3.21,8.39,7.69,15.85,12,23.05,7.76,12.88,15.8,26.17,15.8,44.41A3.48,3.48,0,0,1,1025.46,835.33Z"/><path class="cls-8" d="M1033.05,856.72a3.32,3.32,0,0,1-1.78-.5,3.47,3.47,0,0,1-1.2-4.75c1.54-2.54,3.22-5.25,5-8.09,10.08-16.27,22.65-36.52,23.53-53.1.38-7.57-1.47-14.26-3.42-21.33-1-3.49-2-7.08-2.72-10.93a3.45,3.45,0,1,1,6.77-1.34c.72,3.57,1.7,7.05,2.62,10.42,2,7.3,4.12,14.85,3.65,23.54-1,18.37-14,39.44-24.56,56.39-1.72,2.8-3.38,5.49-4.9,8A3.43,3.43,0,0,1,1033.05,856.72Z"/><path class="cls-8" d="M1017.19,864.31a3.47,3.47,0,0,1-3.45-3.12c-1-9.55-5.6-17.28-10.51-25.46-4.52-7.52-9.19-15.29-10.85-24.66-1.93-10.94-1.22-23.27,2.13-36.63a3.46,3.46,0,1,1,6.71,1.68c-3.1,12.42-3.78,23.77-2,33.76,1.43,8.08,5.56,15,10,22.29,5.09,8.46,10.36,17.23,11.47,28.33a3.45,3.45,0,0,1-3.1,3.78A1.38,1.38,0,0,1,1017.19,864.31Z"/><path class="cls-8" d="M1025.69,883.69c-.76,0-1.51,0-2.27-.1-7.46-.68-14-4.47-16.58-9.7a3.46,3.46,0,1,1,6.19-3.09c1.51,3,6,5.43,11,5.89,4.55.42,8.38-.84,10.24-3.35,3-4,2.84-9.53,2.4-14l-.09-.76a12.33,12.33,0,0,1-1.44,2.58c-4,5-11,9.69-18.38,7.84-3.88-.95-7.1-3.86-9.06-8.16-2.52-5.42-2.66-12.14-.39-16.71a3.48,3.48,0,0,1,6.22,3.11c-1.34,2.65-1.13,7.25.46,10.72.63,1.35,2,3.73,4.43,4.33,4.29,1,8.77-2.27,11.32-5.46.16-.25.56-1.19.84-1.82,1-2.42,2.11-4.89,4.6-5.52a5.58,5.58,0,0,1,4.65.83c2.72,1.93,3.51,6,3.74,8.33.56,5.67.66,12.94-3.76,18.8C1036.88,881.45,1031.69,883.69,1025.69,883.69Z"/><path class="cls-8" d="M1000.63,1058.29a3.15,3.15,0,0,1-2-.64,3.28,3.28,0,0,1-.82-4.67c4.9-6.54,10.17-13.54,10.17-21.13,0-8.61-7-15.74-13.68-22.63-2.26-2.3-4.37-4.48-6.24-6.72-9.92-11.83-14.9-22.66-15.62-34.06-1.38-21.6,8-40.8,17.25-56.73,1.39-2.38,2.79-4.65,4.2-6.91,6-9.56,11.11-17.81,11.11-28.86a3.47,3.47,0,0,1,6.93,0c0,13-6.18,22.95-12.15,32.53-1.37,2.2-2.77,4.43-4.1,6.71C986.51,931,978.16,948.3,979.41,968c.64,9.87,5.08,19.42,14,30.07,1.71,2,3.74,4.12,5.9,6.32,7.33,7.53,15.63,16,15.63,27.47,0,9.9-6,17.88-11.29,24.94A3.76,3.76,0,0,1,1000.63,1058.29Z"/><path class="cls-8" d="M1025.31,1095a3.43,3.43,0,0,1-3.11-1.92c-7.37-14.72,9.38-26.95,14.86-31l6.43-4.61c16.2-11.55,26.92-19.17,30.18-40.49,3.92-25.39-2.22-54.78-16.85-80.67-1-1.8-2.1-3.64-3.18-5.52-9.46-16.38-20.21-35-17-54.47a3.48,3.48,0,0,1,4-2.84,3.45,3.45,0,0,1,2.84,4c-2.84,17.06,7.23,34.48,16.14,49.87,1.1,1.9,2.16,3.76,3.2,5.58,15.36,27.21,21.83,58.23,17.69,85.14-3.73,24.2-16.66,33.4-33,45.06-2,1.46-4.18,3-6.36,4.57-11.94,8.73-16,15.82-12.77,22.29a3.43,3.43,0,0,1-1.55,4.64A3.31,3.31,0,0,1,1025.31,1095Z"/><path class="cls-8" d="M1009,1097a3.44,3.44,0,0,1-3.25-2.27c-6.44-17.7.51-27.13,7.88-37.12,2.23-3,4.55-6.18,6.71-9.75a3.46,3.46,0,1,1,5.94,3.56c-2.33,3.87-4.75,7.15-7.06,10.31-7.32,9.88-12.13,16.42-7,30.63a3.45,3.45,0,0,1-2.07,4.44A3.36,3.36,0,0,1,1009,1097Z"/><path class="cls-8" d="M1092.42,1132.75a3.09,3.09,0,0,1-1-.17,3.45,3.45,0,0,1-2.31-4.3c2.46-8.15,5.12-16.29,7.77-24.43,6.37-19.53,12.94-39.73,16.78-60,4.63-24.49,4.83-49.69,5-74,.06-8.78.14-17.57.39-26.39.53-17.59,2.38-35.08,4.17-52,.66-6.11,1.31-12.26,1.91-18.44a3.43,3.43,0,0,1,3.77-3.11,3.48,3.48,0,0,1,3.12,3.78c-.6,6.2-1.26,12.36-1.9,18.49-1.79,16.78-3.64,34.14-4.13,51.47-.28,8.74-.34,17.5-.41,26.23-.18,24.67-.37,50.18-5.12,75.29-3.92,20.76-10.57,41.16-17,60.91-2.63,8.08-5.26,16.18-7.71,24.28A3.49,3.49,0,0,1,1092.42,1132.75Z"/><path class="cls-8" d="M1205.39,999.25H1205a3.48,3.48,0,0,1-3.1-3.78c1.1-11.43-.85-23-2.92-35.21-1.85-11-3.77-22.42-3.29-33.84.75-17.12,2.48-34.22,4.16-50.76,4.09-40.6,8-78.95-1.19-118.88a3.46,3.46,0,1,1,6.75-1.55c9.41,41,5.31,81.74,1.32,121.12-1.66,16.45-3.37,33.45-4.11,50.38-.47,10.67,1.4,21.71,3.21,32.39,2,12.12,4.16,24.66,3,37A3.47,3.47,0,0,1,1205.39,999.25Z"/><path class="cls-8" d="M494,734.22a3.16,3.16,0,0,1-1.28-.24,3.5,3.5,0,0,1-2-4.5c2.42-6.14,4.9-11.82,7.56-17.37.61-1.3,1.25-2.73,1.91-4.24,3.75-8.37,8.4-18.76,16.69-22.92a3.45,3.45,0,0,1,4.64,1.55,3.49,3.49,0,0,1-1.54,4.66c-6.08,3-10.16,12.18-13.45,19.54-.69,1.55-1.36,3-2,4.39-2.58,5.41-5,10.95-7.34,16.94A3.47,3.47,0,0,1,494,734.22Z"/><path class="cls-8" d="M396.92,1253.43a3.49,3.49,0,0,1-2.95-1.63c-18.59-29.77-12.4-64.83-7.42-93,1.53-8.68,2.24-17.69,2.94-26.44.93-11.76,1.88-23.93,4.83-35.72,3.53-14.09,9.35-27.48,15-40.43,4.66-10.79,9.53-21.92,12.91-33.26,5.34-17.73,3.38-34.67,1.32-52.58-1.72-14.93-3.49-30.36-.63-46.1,1.37-7.52,4.68-15.13,7.87-22.49,1.75-4,3.38-7.73,4.65-11.34,4-11.21,8.38-22.42,12.62-33.26,5.19-13.26,10.58-27,15.2-40.69a3.46,3.46,0,1,1,6.55,2.21c-4.67,13.88-10.06,27.67-15.3,41-4.22,10.8-8.59,21.95-12.53,33-1.37,3.84-3.12,7.89-4.82,11.79-3,7-6.21,14.24-7.43,21-2.67,14.75-1,29,.69,44.08,2.07,17.83,4.17,36.27-1.55,55.37-3.52,11.73-8.45,23-13.21,34-5.53,12.69-11.22,25.81-14.61,39.34-2.81,11.23-3.74,23.12-4.66,34.6-.72,8.89-1.44,18.09-3,27.08-5,28.41-10.69,60.62,6.49,88.13a3.44,3.44,0,0,1-1.1,4.77A3.4,3.4,0,0,1,396.92,1253.43Z"/><path class="cls-8" d="M400.78,1258.07a3.5,3.5,0,0,1-3.1-1.92c-26-52-10.1-105.72,43.55-147.46,11.3-8.78,23.3-20.29,36.7-35.19a106.45,106.45,0,0,0,7.19-9.33l.31-.42a35.23,35.23,0,0,0,1.82-3.36c2-3.79,3.28-6.32,6.27-5.58a3.78,3.78,0,0,1,2.83,4c0,4.83-2.2,9.72-4.31,14.43-1.52,3.37-3,6.55-3.47,9.41-3.61,19.74-9.38,68.24,14.52,92.13a3.46,3.46,0,0,1-4.89,4.89c-25.28-25.26-21.16-72.4-16.45-98.26a20.81,20.81,0,0,1,.56-2.4c-13.38,14.79-25.42,26.3-36.83,35.16-50.81,39.53-66,90.15-41.59,138.9a3.47,3.47,0,0,1-1.56,4.64A3.23,3.23,0,0,1,400.78,1258.07Z"/><path class="cls-8" d="M595.06,1159.77a3.47,3.47,0,0,1-3.47-3.47c0-26.41-4.55-42.12-18-62.32a3.46,3.46,0,0,1,5.77-3.83c14.34,21.49,19.16,38.17,19.16,66.15A3.48,3.48,0,0,1,595.06,1159.77Z"/><path class="cls-8" d="M486.8,1081.59a3.46,3.46,0,0,1-1.45-6.61c8.55-3.91,14.92-15.37,20.53-25.5,2.38-4.25,4.61-8.27,6.93-11.65a3.46,3.46,0,1,1,5.71,3.92c-2.13,3.11-4.3,7-6.57,11.1-6.13,11.05-13.1,23.57-23.73,28.43A3.4,3.4,0,0,1,486.8,1081.59Z"/><path class="cls-8" d="M547.22,1184.15a3.86,3.86,0,0,1-1-.14,3.47,3.47,0,0,1-2.3-4.33c3.66-11.92,7.11-24.09,10.43-35.86,10.06-35.63,20.45-72.48,38.16-106.38a3.46,3.46,0,1,1,6.13,3.2C581.27,1073.91,571,1110.4,561,1145.7c-3.32,11.81-6.77,24-10.46,36A3.43,3.43,0,0,1,547.22,1184.15Z"/><path class="cls-8" d="M595.08,1026a3.44,3.44,0,0,1-3-1.76c-6.32-11-14.6-17.83-27.65-22.69a3.47,3.47,0,0,1,2.42-6.51c14.7,5.49,24.06,13.19,31.24,25.76a3.48,3.48,0,0,1-1.29,4.74A3.55,3.55,0,0,1,595.08,1026Z"/><path class="cls-8" d="M512.72,1029.78a3.46,3.46,0,0,1-2.63-1.22A127.69,127.69,0,0,0,500,1018.49c-5.51-5.14-11.22-10.48-15.27-16.92-5.59-9-6.74-19.71-7.77-29.21a3.55,3.55,0,0,1,3.07-3.91,3.38,3.38,0,0,1,3.79,3c1,9.34,2,18.85,6.79,26.45,3.56,5.68,8.67,10.46,14.13,15.51a138.48,138.48,0,0,1,10.61,10.65,3.44,3.44,0,0,1-.39,4.87A3.38,3.38,0,0,1,512.72,1029.78Z"/><path class="cls-8" d="M472.32,962.54a3.42,3.42,0,0,1-2.88-1.54c-6.34-9.38-7.5-22-3.11-33.79a3.46,3.46,0,1,1,6.49,2.41c-3.6,9.7-2.72,20,2.36,27.51a3.47,3.47,0,0,1-.93,4.81A3.38,3.38,0,0,1,472.32,962.54Z"/><path class="cls-8" d="M464.79,922.15a3.49,3.49,0,0,1-2.52-1.1c-6.88-7.38,1.27-18.9,6.13-25.77,1-1.36,1.79-2.49,2.26-3.34a3.47,3.47,0,0,1,6,3.45c-.57,1-1.51,2.32-2.61,3.89-3.18,4.49-9.77,13.79-6.74,17a3.46,3.46,0,0,1-.17,4.89A3.52,3.52,0,0,1,464.79,922.15Z"/><path class="cls-8" d="M536.14,1004.88a3.46,3.46,0,0,1-1.14-6.73l3.12-1.11c7.88-2.81,16-5.71,24.81-6.26,4.11-.26,8.26-.36,12.45-.45,17.72-.39,34.45-.77,47.28-12.74a3.46,3.46,0,0,1,4.72,5.07c-14.74,13.75-33.62,14.19-51.85,14.59-4.1.11-8.16.2-12.16.45-7.85.48-15.17,3.1-22.93,5.88l-3.13,1.11A3.67,3.67,0,0,1,536.14,1004.88Z"/><path class="cls-8" d="M627,979.46h-.12a3.44,3.44,0,0,1-3.33-3.59c.07-2.26-.69-3-.94-3.2-2.29-2.11-9-1.36-13.45-.88-1.89.22-3.64.41-5,.44-4.06.1-8.14.17-12.23.24-22,.37-44.77.76-65.81,5.72a3.46,3.46,0,0,1-1.6-6.74c21.79-5.13,44.91-5.52,67.3-5.9,4.08-.08,8.15-.14,12.17-.25,1.24,0,2.76-.21,4.46-.37,6.36-.73,14.29-1.62,18.9,2.66,2.22,2,3.28,4.93,3.14,8.53A3.45,3.45,0,0,1,627,979.46Z"/><path class="cls-8" d="M532.1,974.19a3.46,3.46,0,0,1-3.45-3.09c-1.74-16.31,16.53-20,22.52-21.18,5.68-1.13,11.38-1.87,16.9-2.57,15.65-2,30.45-3.92,42.59-14.57a3.46,3.46,0,1,1,4.56,5.2C601.5,950,585,952.16,569,954.21c-5.4.69-11,1.42-16.4,2.5-12.67,2.54-17.76,6.61-17,13.64a3.49,3.49,0,0,1-3.07,3.83Z"/><path class="cls-8" d="M498.27,943.89a3.47,3.47,0,0,1-2.36-6c12-11.2,23.74-12.17,38.57-13.41l9.33-.78c14.23-1.21,29-2.43,43.6-3.41.89-.06,3.28-.61,5.6-1.14,12-2.74,22.32-4.61,26.53.17,1.25,1.46,2.44,4.07.89,8.24a3.46,3.46,0,1,1-6.49-2.42,3,3,0,0,0,.29-1.4c-2.08-1.81-15.33,1.18-19.68,2.17a54.47,54.47,0,0,1-6.69,1.29c-14.58,1-29.27,2.21-43.47,3.4l-9.31.78c-14.05,1.18-24.18,2-34.43,11.59A3.56,3.56,0,0,1,498.27,943.89Z"/><path class="cls-8" d="M497.42,934.28a3.46,3.46,0,0,1-3.4-2.82c-4.89-26.27,16.07-31,32.9-34.84,6.72-1.53,13.05-3,17.94-5.46,4.32-2.2,7.22-5,10.57-8.24.82-.76,1.66-1.58,2.54-2.39a3.47,3.47,0,0,1,4.74,5.06c-.87.8-1.68,1.57-2.48,2.34-3.59,3.47-7,6.73-12.21,9.39-5.67,2.9-12.72,4.5-19.56,6.06-19.42,4.4-31.11,8.06-27.63,26.83a3.45,3.45,0,0,1-2.76,4A3.6,3.6,0,0,1,497.42,934.28Z"/><path class="cls-8" d="M475.19,902.58l-.39,0a3.47,3.47,0,0,1-3.05-3.83c2.64-23.59,28.77-24.79,47.82-25.67,4.45-.21,8.65-.39,12.14-.83,1.64-.22,3.87-.71,6.38-1.26,10.16-2.23,22.8-5,27.69,1.76a3.45,3.45,0,0,1-.77,4.84,3.48,3.48,0,0,1-4.85-.78c-2.22-3.09-14.62-.36-20.6.94-2.73.61-5.11,1.13-7,1.36-3.75.47-8.09.68-12.67.89-22.27,1-39.42,3.11-41.28,19.52A3.45,3.45,0,0,1,475.19,902.58Z"/><path class="cls-8" d="M605.27,1020a3.77,3.77,0,0,1-1.23-.2,3.51,3.51,0,0,1-2-4.47c2.27-6,3.49-9.69,2.55-14.85a3.43,3.43,0,0,1,2.75-4,3.47,3.47,0,0,1,4.05,2.78c1.35,7.27-.69,12.74-2.85,18.53A3.45,3.45,0,0,1,605.27,1020Z"/><path class="cls-8" d="M475.93,892.48a3.48,3.48,0,0,1-3.45-3.11l-.41-3.57c-1-8.61-2.29-19.32.88-27.3,1.44-3.61,5.05-6.78,8.21-9.57a43.2,43.2,0,0,0,3.85-3.61,3.46,3.46,0,0,1,5.22,4.55,47.92,47.92,0,0,1-4.49,4.26c-2.47,2.17-5.55,4.85-6.36,6.92C476.87,867.4,478,877.14,479,885l.42,3.65a3.46,3.46,0,0,1-3.07,3.81Z"/><path class="cls-8" d="M684.82,1218.28a77.21,77.21,0,0,1-11-.79,3.46,3.46,0,0,1-2.93-3.91,3.42,3.42,0,0,1,3.91-2.95c11.15,1.59,19.43.3,29.94-1.34l5.39-.83c3.74-.56,7.5-1.07,11.25-1.57,21.56-3,41.94-5.74,60.92-16.19,54.17-29.79,72.8-103.46,67.21-159.3-4-40.45-21-77.19-36.68-108.46-21.09-42.18-46.07-82.7-70.24-121.89-6.8-11-13.64-22.12-20.4-33.25-6.32-10.43-10.46-21.5-14.46-32.2a238.15,238.15,0,0,0-9.64-23.26,3.47,3.47,0,1,1,6.2-3.1,242.44,242.44,0,0,1,9.92,24c3.89,10.38,7.91,21.13,13.9,31q10.15,16.68,20.38,33.22c24.25,39.32,49.3,80,70.53,122.44,15.91,31.79,33.23,69.23,37.39,110.86,5.8,58-13.86,134.75-70.75,166-20.14,11.06-42.09,14.07-63.36,17-3.7.52-7.43,1-11.16,1.58l-5.34.82C698.62,1217.27,692.08,1218.28,684.82,1218.28Z"/><path class="cls-8" d="M575.82,1182.5a3.46,3.46,0,0,1-.63-6.86c19.41-3.63,34.66-14.58,45.25-32.58,21.08-35.75,18.38-89.91,9.93-115.25-3.91-11.75-8.36-23.84-15.85-31.33a3.46,3.46,0,1,1,4.89-4.9c8.57,8.56,13.36,21.52,17.53,34,8.85,26.55,11.64,83.36-10.53,121-11.67,19.79-28.48,31.85-50,35.85A2.51,2.51,0,0,1,575.82,1182.5Z"/><path class="cls-8" d="M598.09,969.88A3.42,3.42,0,0,1,595,968c-1.85-3.69-7.89-11.14-11.53-13a3.46,3.46,0,0,1,3.09-6.2c5.68,2.84,12.64,12.11,14.63,16.08a3.45,3.45,0,0,1-3.08,5Z"/><path class="cls-8" d="M568.31,923.42a3.49,3.49,0,0,1-3.11-1.92c-2.12-4.22-7-8.47-11.24-12.21-2-1.74-3.92-3.42-5.54-5a3.44,3.44,0,0,1,0-4.89,3.48,3.48,0,0,1,4.91,0c1.51,1.52,3.33,3.1,5.19,4.73,4.76,4.16,10.16,8.87,12.88,14.32a3.5,3.5,0,0,1-1.54,4.65A3.33,3.33,0,0,1,568.31,923.42Z"/><path class="cls-8" d="M518.11,867.17A3.38,3.38,0,0,1,517,867c-7.46-2.45-14.76-10.55-21.21-17.7-2-2.16-3.75-4.17-5.38-5.77-18.19-18.06-34.49-37.88-50.29-57q-5.58-6.78-11.21-13.57A153.46,153.46,0,0,0,407.32,751a14.94,14.94,0,0,0-2.18-1.3c-2.51-1.36-7.21-3.89-5.64-8.65.78-2.33.78-2.33,12.17-2.88,2.65-.14,5-.23,5.39-.26,7.94-.82,16.09-1.29,24-1.75,10.13-.6,20.61-1.21,30.68-2.52,20.86-2.68,41.52-7.68,61.49-12.5,8.81-2.13,17.6-4.24,26.44-6.19,22.05-4.86,51.86-6.87,80.64-8.81,17.15-1.14,33.37-2.23,46.7-3.86a3.46,3.46,0,1,1,.84,6.87c-13.51,1.66-29.82,2.76-47.07,3.9-28.54,1.93-58,3.91-79.6,8.66-8.81,1.94-17.56,4.06-26.31,6.16-20.16,4.88-41,9.92-62.24,12.64-10.3,1.34-20.9,2-31.16,2.56-7.81.47-15.9.94-23.74,1.73L412,745l-.95.05.66.48a163.18,163.18,0,0,1,22.58,22.9q5.64,6.79,11.23,13.6c16.4,19.91,31.89,38.71,49.83,56.55,1.7,1.67,3.59,3.77,5.63,6,5.57,6.19,12.51,13.89,18.24,15.78a3.46,3.46,0,0,1-1.1,6.74Z"/><path class="cls-8" d="M948.6,926.5a4.44,4.44,0,0,1-.63,0,3.45,3.45,0,0,1-2.78-4c2.75-15-1.9-30.14-6.41-44.76a205.24,205.24,0,0,1-5.94-22.23c-2.85-15.06-.9-30.29,1-45,1.76-13.7,3.41-26.64,1.57-39.54a3.47,3.47,0,0,1,6.87-1c2,13.83.16,27.83-1.57,41.39-1.88,14.83-3.69,28.84-1.05,42.83a200.53,200.53,0,0,0,5.76,21.48c4.75,15.42,9.66,31.37,6.6,48A3.45,3.45,0,0,1,948.6,926.5Z"/><path class="cls-8" d="M920.81,794.48a8.51,8.51,0,0,1-6.45-3.32,15.35,15.35,0,0,1-2.4-14.69c3-8.14,8.54-9.43,12.36-8,5.08,1.86,8.75,9,5.77,17.25-2.32,6.41-5.66,8.26-8.06,8.68A7.1,7.1,0,0,1,920.81,794.48Zm-5.58-16.82,3.23,1.2a8.53,8.53,0,0,0,1.22,7.86c.56.66.82.86,1.16.84s1.54-1,2.73-4.22c1.62-4.52-.19-7.86-1.63-8.38-1.07-.38-2.48,1.23-3.48,3.9Z"/><path class="cls-8" d="M1273.75,1239.39h0l-625.9-3.12a4,4,0,0,1-1.13-.18l-144.3-50a3.47,3.47,0,0,1,1.05-6.74l60.89-1.72a3.58,3.58,0,0,1,3.58,3.38,3.46,3.46,0,0,1-3.36,3.56l-42,1.17,125.82,43.58,605.41,3-171.19-62.3L826,1173.39h0a3.47,3.47,0,0,1,0-6.93l257.31-3.34a5.82,5.82,0,0,1,1.25.21l190.5,69.34a3.46,3.46,0,0,1-1.17,6.72Z"/><path class="cls-8" d="M632.05,1244.59c-.36,0-.72,0-1.08,0-5.56-.52-10.46-4.91-12.17-10.93-3.16-11,5.09-30,15.76-36.32,6.67-3.91,13.51-2.9,19.26,2.85a3.46,3.46,0,0,1,0,4.89,3.42,3.42,0,0,1-4.89,0c-3.52-3.49-6.94-4.06-10.84-1.77-8.58,5.06-14.75,21-12.63,28.45.92,3.25,3.45,5.68,6.15,5.93s4.38-1.87,5.3-3.68a3.46,3.46,0,1,1,6.18,3.1C640.71,1241.83,636.63,1244.59,632.05,1244.59Z"/><path class="cls-8" d="M597.39,1234.2a15.47,15.47,0,0,1-4.95-.81c-5.11-1.82-8.44-6.23-9.1-12.14-1.31-11.93,1.53-21.23,8.72-28.41,6.46-6.46,12.6-8.31,18.21-5.52a3.46,3.46,0,1,1-3.09,6.19c-1.72-.86-4.64-1.35-10.23,4.22s-7.82,12.92-6.7,22.77c.34,3.23,1.91,5.44,4.5,6.33,3.18,1.13,7.17,0,9.89-2.71a3.46,3.46,0,0,1,4.91,4.89A17.29,17.29,0,0,1,597.39,1234.2Z"/><path class="cls-8" d="M564.69,1221.63a7.55,7.55,0,0,1-5.54-2.37c-5-5-5.88-13.25-2.27-22,3.71-9,12.26-18.06,21.38-18.06a3.47,3.47,0,0,1,0,6.93c-5.2,0-11.79,6-15,13.78-2.51,6-2.23,11.43.78,14.42.56.57,1.3.52,4.54-1a14.59,14.59,0,0,1,6.4-2,3.46,3.46,0,1,1,0,6.92,11.7,11.7,0,0,0-3.38,1.3C569.83,1220.41,567.32,1221.63,564.69,1221.63Z"/><path class="cls-8" d="M540,1212.31a7.77,7.77,0,0,1-4.36-1.31c-5.18-3.45-5.84-12.83-3.81-19.92a23.54,23.54,0,0,1,22.42-17.14,3.47,3.47,0,0,1,0,6.93A16.79,16.79,0,0,0,538.53,1193c-1.62,5.65-.54,11.23,1,12.23.62.41,2.39,0,4.91-2.08a3.46,3.46,0,1,1,4.33,5.41C545.23,1211.36,542.33,1212.31,540,1212.31Z"/><path class="cls-8" d="M524.63,1204a10.17,10.17,0,0,1-8.37-3.78,12.91,12.91,0,0,1-2.46-8c0-9.2,6.73-19.49,15.71-19.49a3.47,3.47,0,0,1,0,6.94c-4.66,0-8.8,7-8.8,12.55a6.18,6.18,0,0,0,1,3.75,3.3,3.3,0,0,0,2.92,1.13,3.47,3.47,0,1,1,0,6.93Z"/><path class="cls-8" d="M1113.29,1178.69a6.25,6.25,0,0,1-3-.77c-6.21-3.34-5.77-12.87-5.55-17.45.37-8.25,1.38-16.09,2.31-23.68.4-3.07.79-6.16,1.14-9.28,2-17.36,10.74-34.56,18.47-49.73l.34-.67c2.23-4.38,4.33-8.91,6.43-13.45,4.27-9.26,8.69-18.82,14.41-27.37,15.17-22.66,46.73-35.55,56-38.95a3.46,3.46,0,1,1,2.39,6.5c-23.52,8.62-43.22,22.18-52.66,36.29-5.42,8.1-9.72,17.4-13.88,26.42-2.15,4.63-4.26,9.24-6.54,13.69l-.34.69c-7.47,14.65-15.93,31.24-17.75,47.36-.38,3.14-.75,6.26-1.17,9.38-.93,7.45-1.91,15.15-2.26,22.83-.31,6.76.32,10.47,1.89,11.32-.06-.08,3.91-.62,13.52-14.91,5.58-8.31,9.37-18.11,13.06-27.6,1.17-3,2.33-6,3.54-9,4.47-10.84,10.9-21.23,17.11-31.29,1.82-2.93,3.62-5.85,5.35-8.73,2.46-4.11,5.16-8.19,7.76-12.12,3.1-4.69,6.32-9.54,9.07-14.35a3.46,3.46,0,0,1,6,3.42c-2.86,5-6.15,10-9.32,14.75-2.56,3.88-5.21,7.88-7.59,11.86-1.74,2.9-3.56,5.85-5.39,8.83-6.07,9.82-12.36,20-16.59,30.26-1.2,2.89-2.35,5.83-3.5,8.81-3.81,9.85-7.76,20-13.67,28.83C1124.65,1172.86,1118.33,1178.69,1113.29,1178.69Zm.21-6.87h0Z"/><path class="cls-8" d="M1136.74,1184.56a9.76,9.76,0,0,1-5.82-1.81c-5.06-3.62-6-11.57-6.48-16.32l-.09-.79a3.46,3.46,0,1,1,6.87-.8l.1.82c.34,3.12,1.06,9.63,3.63,11.45a3.19,3.19,0,0,0,2.65.45c5.88-1,14.66-10.41,17.81-15,8.57-12.33,16.61-25.34,24.39-37.92,5.11-8.25,10.38-16.77,15.78-25.06,2.94-4.55,6.3-8.91,9.53-13.12a167.27,167.27,0,0,0,10.88-15.33,3.47,3.47,0,0,1,6,3.57,174.64,174.64,0,0,1-11.35,16c-3.16,4.13-6.41,8.36-9.22,12.69-5.33,8.22-10.6,16.71-15.68,24.92-7.84,12.65-15.93,25.74-24.59,38.23-2.86,4.12-13.11,16.24-22.32,17.84A13.32,13.32,0,0,1,1136.74,1184.56Z"/><path class="cls-8" d="M1163.42,1185.2a13,13,0,0,1-1.53-.08c-4-.44-7.3-2.59-9.84-6.36a3.47,3.47,0,1,1,5.77-3.87c1.81,2.72,3.63,3.21,4.84,3.35,6.82.76,17.23-9.08,22.17-13.8l.77-.74c17-16.17,30.94-36.84,44.43-56.83,4.67-6.92,9.5-14.08,14.31-20.84a3.47,3.47,0,0,1,5.65,4c-4.77,6.68-9.57,13.8-14.23,20.68-13.68,20.31-27.84,41.29-45.39,58l-.76.72C1183.37,1175.42,1173.15,1185.2,1163.42,1185.2Z"/><path class="cls-8" d="M1202,1173.15a10.64,10.64,0,0,1-2.35-.26c-2.51-.6-5.85-2.4-7.47-7.75a3.48,3.48,0,0,1,6.66-2c.78,2.62,1.94,2.89,2.38,3,5.49,1.28,18.85-9.54,26.06-17.25,3-3.22,6.24-6.35,9.41-9.38,5.67-5.46,11.56-11.1,16-17.28,4.61-6.47,8.08-14.87,11.44-23,1.07-2.59,2.11-5.13,3.18-7.54.66-1.49,1.35-3,2-4.41,3-6.32,5.58-11.79,4.22-18.29a3.45,3.45,0,0,1,2.67-4.11,3.49,3.49,0,0,1,4.11,2.67c1.85,8.79-1.51,15.86-4.74,22.7-.66,1.37-1.32,2.78-1.94,4.23-1,2.37-2.08,4.86-3.11,7.4-3.51,8.48-7.14,17.25-12.2,24.35-4.78,6.71-10.9,12.58-16.81,18.26-3.23,3.1-6.29,6-9.16,9.11C1230.36,1155.73,1213.73,1173.15,1202,1173.15Z"/><path class="cls-8" d="M1269.5,1055.36h-.07a3.44,3.44,0,0,1-3.38-3.53c.06-3.29-1.65-6.1-3.65-9.38-.78-1.31-1.58-2.65-2.31-4-10.54-20.51-26.63-28.33-47.52-33.76a3.47,3.47,0,0,1,1.76-6.71c19.63,5.11,39.5,13.17,51.94,37.31.62,1.23,1.35,2.43,2.07,3.6,2.22,3.65,4.73,7.81,4.64,13.11A3.48,3.48,0,0,1,1269.5,1055.36Z"/><path class="cls-8" d="M1091.47,1170.12c-4.54,0-9-1-11.94-3.8-2.21-2.09-4.35-6-2.16-12.51,2-5.79,7.05-10.25,11.54-14.16,1.63-1.45,3.21-2.83,4.54-4.19a124.34,124.34,0,0,0,16.79-21.55,3.48,3.48,0,0,1,5.93,3.63,133.15,133.15,0,0,1-17.72,22.72c-1.45,1.5-3.19,3-5,4.59-4,3.51-8.15,7.15-9.5,11.18-1.27,3.74-.07,4.88.35,5.26,2.73,2.6,11.06,2.28,16.13.3A3.45,3.45,0,1,1,1103,1168,32.81,32.81,0,0,1,1091.47,1170.12Z"/><path class="cls-8" d="M1225.16,1180.29h-.33a3.47,3.47,0,0,1,.07-6.93h.28c22.88,0,46.68-34.41,49-55.36.63-5.65-.78-10.33-2.41-15.75-.82-2.65-1.64-5.42-2.26-8.43a3.46,3.46,0,0,1,6.77-1.41c.57,2.73,1.35,5.34,2.1,7.85,1.72,5.63,3.45,11.44,2.7,18.5C1278.43,1142.63,1251.84,1180.29,1225.16,1180.29Z"/><path class="cls-8" d="M1278.59,1177.37a3.4,3.4,0,0,1-2.19-.78,3.47,3.47,0,0,1-.51-4.88c19.48-23.91,18.43-51-2.91-76.41a3.45,3.45,0,1,1,5.28-4.45c23.4,27.78,24.49,58.85,3,85.24A3.45,3.45,0,0,1,1278.59,1177.37Z"/><path class="cls-8" d="M510.37,1192.26h0l-88.66-.79a3.47,3.47,0,0,1,0-6.93h0l88.66.79a3.47,3.47,0,0,1,0,6.93Z"/><path class="cls-8" d="M1443.49,1200.46h0l-269.27-2.37a3.46,3.46,0,0,1,0-6.92H1176l267.52,2.36a3.47,3.47,0,0,1,0,6.93Z"/><path class="cls-8" d="M1840.79,1202.12h-.18l-241.72-.34c-11.75,0-21.16-1.59-21-3.5s9.61-3.44,21.18-3.44h.19l241.72.35c11.74,0,21.17,1.58,21.08,3.49S1852.46,1202.12,1840.79,1202.12Z"/><path class="cls-8" d="M1194.56,1426.69a3.55,3.55,0,0,1-1-.14L418.38,1200.76a3.46,3.46,0,0,1,1.94-6.65l775.2,225.79a3.46,3.46,0,0,1-1,6.79Z"/><path class="cls-8" d="M1009.42,1447a3.45,3.45,0,0,1-1.16-.2L412.93,1268.36a3.48,3.48,0,0,1,2.3-6.56l595.32,178.45a3.46,3.46,0,0,1-1.13,6.73Z"/><path class="cls-8" d="M414.65,1266.88h-.16a3.44,3.44,0,0,1-3.29-3.62l3.13-66A3.39,3.39,0,0,1,418,1194a3.48,3.48,0,0,1,3.3,3.63l-3.15,66A3.44,3.44,0,0,1,414.65,1266.88Z"/><path class="cls-8" d="M350,1347.33a3.71,3.71,0,0,1-3.39-3.24c-9.38-47.93-10.66-98.2-11.89-146.8-.31-12-.62-24.06-1.05-36-1.8-50.62-4.4-110.3-10-169-.24-2.55-.5-5.41-.76-8.48-2.79-31.68-8-90.7-34.22-97.13-3.36-.8-5.77-.44-7.37,1.15-3.59,3.63-3.59,14.23-3.59,19.34,0,2.34-1.55,4.22-3.46,4.22s-3.47-1.88-3.47-4.22c0-10.24.74-20.46,6.13-25.87,3.27-3.29,7.68-4.24,13.11-2.92,31.24,7.65,36.79,70.67,39.75,104.53.27,3.05.52,5.86.77,8.39,5.66,59,8.28,118.82,10.07,169.62.44,12,.75,24,1.05,36.09,1.24,48.17,2.49,98,11.71,145.07.45,2.28-.69,4.56-2.55,5.12A2.88,2.88,0,0,1,350,1347.33Z"/><path class="cls-8" d="M315.38,1243.49a3.44,3.44,0,0,1-3.38-2.86c-1.75-9.53-3.07-18.81-4.34-27.77l-.34-2.29c-3.56-25-4.56-53.58-5.61-83.88-2.29-65.24-4.86-139.15-31.88-220.58a3.46,3.46,0,0,1,2.21-4.38,3.42,3.42,0,0,1,4.36,2.19c27.35,82.38,29.93,156.83,32.22,222.52,1.05,30.11,2.06,58.54,5.57,83.14l.32,2.29c1.28,8.91,2.6,18.11,4.29,27.52a3.47,3.47,0,0,1-2.79,4A3.2,3.2,0,0,1,315.38,1243.49Z"/><path class="cls-8" d="M269.23,902.76a3.46,3.46,0,0,1-3.37-2.71c-5.13-23,10.35-50.76,32.48-58.13,25.1-8.37,51.67-9.87,77.35-11.35,21.2-1.2,43.16-2.43,63.83-7.61a3.47,3.47,0,1,1,1.67,6.73c-21.31,5.32-43.57,6.58-65.12,7.81-25.22,1.43-51.31,2.9-75.55,11-19,6.33-32.31,30.19-27.9,50a3.47,3.47,0,0,1-2.64,4.14A3.82,3.82,0,0,1,269.23,902.76Z"/><path class="cls-8" d="M1517.84,1060.66c-30.9,0-89.33-4.31-89.33-20.59s58.43-20.58,89.33-20.58,89.34,4.3,89.34,20.58S1548.75,1060.66,1517.84,1060.66Zm0-34.23c-54.36,0-82.41,9.56-82.41,13.64s28,13.66,82.41,13.66,82.4-9.57,82.4-13.66S1572.21,1026.43,1517.84,1026.43Z"/><path class="cls-8" d="M1516,1275.23c-23.18,0-62.69-3.61-63.8-17.16a3.47,3.47,0,0,1,6.91-.57c.28,3.24,20,10.79,56.89,10.79,30.42,0,52.67-5.23,56.62-10.31a3.46,3.46,0,0,1,5.47,4.24C1571.14,1271.21,1541.91,1275.23,1516,1275.23Z"/><path class="cls-8" d="M1576.38,1261.43a1.83,1.83,0,0,1-.47,0,3.46,3.46,0,0,1-3-3.87c.25-1.93,25.09-193.44,27.19-216a3.5,3.5,0,0,1,3.76-3.13,3.45,3.45,0,0,1,3.14,3.77c-2.1,22.74-27,214.36-27.22,216.31A3.46,3.46,0,0,1,1576.38,1261.43Z"/><path class="cls-8" d="M1438.55,1037a3.45,3.45,0,0,1-1.48-6.58c5.26-2.53,13-4.71,23-6.5a3.47,3.47,0,1,1,1.19,6.83c-9.27,1.64-16.63,3.68-21.26,5.91A3.56,3.56,0,0,1,1438.55,1037Z"/><path class="cls-8" d="M1456,1260.23a3.44,3.44,0,0,1-3.42-3.07c-.22-1.93-22.12-192.83-23.9-215.18a3.46,3.46,0,0,1,3.19-3.73,3.59,3.59,0,0,1,3.71,3.18c1.78,22.23,23.65,213,23.87,215a3.44,3.44,0,0,1-3.05,3.82A2.6,2.6,0,0,1,1456,1260.23Z"/><path class="cls-8" d="M1447.1,1192.16a1.56,1.56,0,0,1-.3,0c-6.28-.51-17.7-15.55-22.31-22-18.67-26.06-36.2-63.68-29.39-91.17,4-16,11.7-19.8,17.49-20.21,10.8-.68,22.25,10.71,26.84,22.22a3.47,3.47,0,1,1-6.44,2.57c-4-10.16-13.2-18.41-19.94-17.88-6.31.44-9.61,8.39-11.23,15-10,40.09,38.44,102.36,45.75,104.61a3.39,3.39,0,0,1,3.08,3.73A3.55,3.55,0,0,1,1447.1,1192.16Z"/><path class="cls-8" d="M1443.72,1166.57a3.32,3.32,0,0,1-2-.62c-6.18-4.24-36.69-34.4-32.71-75,.69-7.21,3.28-11.2,7.65-11.82,9.82-1.31,22,18.09,23.27,21.28a3.47,3.47,0,0,1-1.94,4.5,3.43,3.43,0,0,1-4.48-1.93c-1.87-4.63-12.28-17.36-15.86-17-.2,0-1.32,1.11-1.75,5.63-4,40.94,29.41,68.35,29.75,68.59a3.45,3.45,0,0,1-2,6.3Z"/><path class="cls-8" d="M820,471.07a3.37,3.37,0,0,1-2.72-1.35,3.46,3.46,0,0,1,.61-4.86c15.64-12.12,30.41-15.32,46-18.72,6.54-1.43,13.32-2.88,20.43-5.08,16.09-5,33.74-15.32,48.45-28.46,11-9.82,20.51-21.55,29.71-32.87C969.63,371,977,361.91,985,353.68c.94-1,2-2.1,3.09-3.34,6.4-7.11,15.15-16.87,25.41-14a3.5,3.5,0,0,1,2.44,4.27,3.44,3.44,0,0,1-4.27,2.41c-6.14-1.66-13.23,6.23-18.43,12-1.2,1.33-2.3,2.55-3.3,3.56-7.81,8-15.06,16.93-22.05,25.56-9.38,11.54-19.07,23.47-30.48,33.67-15.43,13.78-34,24.68-51,29.92-7.37,2.27-14.3,3.77-21,5.23-15.49,3.36-28.85,6.26-43.25,17.43A3.38,3.38,0,0,1,820,471.07Z"/><path class="cls-8" d="M1271.63,1254.14h0L645.73,1251a3.68,3.68,0,0,1-1.13-.2l-144.3-50a3.48,3.48,0,0,1-2.31-3.67l1.93-17.2a3.46,3.46,0,1,1,6.88.75l-1.61,14.47,141.13,48.88,621.92,3.1.19-11.61a3.63,3.63,0,0,1,3.53-3.41,3.47,3.47,0,0,1,3.4,3.52l-.25,15.06A3.47,3.47,0,0,1,1271.63,1254.14Z"/></g></g></g></svg>