<svg xmlns="http://www.w3.org/2000/svg" viewBox="0 0 1597.22 1204.43"><defs><style>.cls-1{fill:#feede5;}.cls-1,.cls-2,.cls-3,.cls-4,.cls-5{fill-rule:evenodd;}.cls-2{fill:#e7eaac;}.cls-3{fill:#fff;}.cls-4{fill:#fcd5cb;}.cls-5{fill:#bf8f8b;}.cls-6{fill:#965d4b;}</style></defs><title>Asset 2</title><g id="Layer_2" data-name="Layer 2"><g id="_Layer_" data-name="&lt;Layer&gt;"><path class="cls-1" d="M562.5,235.27c0-82.08,129.35-153.4,182.44-153.4s77.25,86.39,77.25,168.46c0,38-27.38,95.88-66.26,150.61-40.18,56.56-57.25,113.45-85.76,113.45-33.87,0-91.61-69.76-112.14-149.14-6.13-23.71,20.91-33.25,23.76-57.38C584.36,286.14,562.5,249.35,562.5,235.27Z"/><path class="cls-1" d="M238.53,938.15c-9.6-8.67-14.35-19.76-17.65-31s-5.87-20-4.46-34.59,1.64-30.13,4.93-35.54,11.53-10.13,14.6-15.54,9.64-14.11,12.47-21.65,3.06-11.51-3.06-18.59-17.65-16.48-21.88-22.12-5.5-15.35-7.16-22.49-6-14.43-9.27-20.6a37,37,0,0,1-4.58-19.87c.46-7.31.24-13.72-1.83-19s-2.88-9.14.06-13.68,8.72-9.44,8.72-15-.88-11.81-.47-20,1.26-12.54,6.24-17.61,10.46-13.13,13.77-10,16.63,15.68,19.73,18.67,10,13.95,17.31,12.52a167,167,0,0,1,21.64-2.93c5.77-.25,12.3,1.29,10.1,6.48a26.81,26.81,0,0,1-10,12.26c-4.33,2.78-12.56,7.42-20.08,8.88s-17.06,3.43-22.06,5.72S235,666.93,234,673s-1.85,10.83-.54,15.74,3.52,3.88,10.14,1.13,16.32-3.58,25.15-4.86,25.37-2.65,31.16-2.9,19.33-.94,26.06-1.91,14.22-1.85,19.49-2.28,8.56,1.69,7.09,6.9-4.24,9.7-11.16,13-16.88,7.74-20,8.29.35,4.25,3.32,7.2,4.11,11,9.09,11.37,18.17,0,21.43,0,7.43,1.81,6.87,6.65-3.74,8.33-8.79,11.37-11.79,7.21-11,11.12,3.25,4.53.18,13.36-7.83,23.94-14,34-20.35,47-23.67,59-13.11,46.45-15.72,56-2.16,18.74-7.35,21.5S243.23,942.4,238.53,938.15Z"/><path class="cls-1" d="M939.39,758.36c5.33-1.24,10.44.21,17.4,2.25s16.56,5.33,24.12,12.07,14.34,13.91,18.41,22.3,10.22,18.41,11.67,27.82,2.66,8.18-.41,16.35-1,13.91.2,19.84,5.53,11.26,1.43,21.28-14.52,30.28-20.65,37-21.69,17.19-29.66,17.6-20.66-2.46-25.57-5.74-4.3-13.49-9.61-9.19-10.85,13.3-17.59,16.76-13.92,4.3-16.79.61-3.67-7.56-9.19-3.89-11,7-14.74,3.28-5.12-9.09-5.83-12.17-5.46,1.68-8.25,4.61-7.14,4.47-9.09.55-3.5-8.81-6.3-7.54-13.71,3.07-16.79,1.82-7.84-3.36-7.12-8.11,4.05-10.08,8.81-14.41,15.53-12.73,18.32-18.61S852.52,863.41,855,857.4s13.72-27.54,18.07-37.49,10.63-22.66,17.18-30.36S905.53,775.7,916,769.7,934.09,759.59,939.39,758.36Z"/><path class="cls-2" d="M539.32,322.19c-13.19-15.64-29.52-24.62-31.51-58.59-1.35-23.27,8.56-41.72,15.67-68.62,7.41-27.94,19.61-45.73,25.3-69.8,7.45-31.42,16.36-46.1,30.66-63S619,26.19,642.56,16,696.3,1,713.17,3.58s31.33,13.23,51,18.37,56.58,13.41,69.36,29.77,24.5,38.67,28.59,63.19c2.3,13.8,8.42,46.64,8.32,71-.06,19-5.39,44-5.83,55.43-.6,14.75.25,36.86-2.48,55.55-2.08,14.35-6.2,27.1-11.32,35.55-8.42,13.92-16.42,20.2-28.12,30.77-4.94,4.46-.15,16-2.33,24.4-1.95,7.52-2.2,15.69-5.21,22.12-4.71,10.13-12.37,18.19-14.93,29.48-1.22,5.48,4.71,22.51,4,35.44-1,17.38-14.06,28-13.1,39.46,1.09,13.18,11.6,29,3.82,47.58-11.11,26.52-26.69,41.47-22.42,49.52,5,9.41,3.59,13.57,1.88,19.47-2.58,8.92.78,21.38,4,30.86,2.39,7,18.25,32.46,21.9,39.67,7.79,15.31,14.23,40.42,13.17,64-1,22.56-3.56,29.51-22.49,44.83C778.5,820.22,758.63,832.3,760,840.2c2.25,13.08-9.7,17.72-20.43,5-7.87-9.29-5.64-20.5-3.35-29.07,2.35-8.89,9.31-12.71,9.79-25.79s-5.44-16.42-8.82-20.81c-6.42-8.4-19.51-12-25.4-36.11-3.89-16-.47-26.71,5-40.56,6.45-16.34,20.91-37.3,23.65-43.81,5.07-12,6.7-19.08,7.36-29.42.73-11.32-5.72-26.48-11-35.61-6.84-11.93-9.21-28.85-7.36-39.09s6.26-14,5-17.16c-4.74-11.79-6-18.11-7-27.62-1.63-15.47,1.47-30.61,1-49.38-.26-8.87-2.89-15.85-2.23-24.55,2-27.1,4.08-38.19,10.22-43.3s15.58-4,37.43-29.09c24.18-27.74,37.75-62.22,41.32-84.2S812.14,246.2,807,217s-7.86-55.81-11.9-71.52S786.53,118.9,780,110.26c-8.56-11.31-29-19.44-41.43-11-22,14.83-20.89,20.73-41.84,44.25s-40.67,46-65.77,54.82c-24.95,8.72-32.49,15-42.37,19s-19.85,14.07-23,18.46c-2.86,4.05,1.5,9.49,6.62,13.52,10.7,8.4,15.8.45,15.3,16.81s9.63,37.48,2.13,36.71-18.19-.11-30.55,5.17C549.19,312.15,542.4,325.82,539.32,322.19Z"/><path class="cls-3" d="M743.67,631.94c-1.91-2.32-3.21-4.38-3.21-12.23s1-14.57,3.65-16.61,3.65,2.48,4.52,5.38,1.73,13,4.65,13.57,6.11,1.88,10.93-2.34,6.56-11.51,8.3-8.31,3.21,10.05,2.63,14.12,0,8.47-5,10.22a25.35,25.35,0,0,1-15.44.28C749.21,634.56,745.56,634.28,743.67,631.94Z"/><path class="cls-4" d="M148,1022.85c-9-4.1-16.65-14.7-21.64-31.35s-7.21-27.44-6.08-43,5.53-32.15,5.8-42.43a276.56,276.56,0,0,1,2.79-34.39c2-13,4.43-21.36,8.88-33.56s13.84-33,18.25-44.7,7.37-16.94,7.4-28,1.22-20.42-1.1-35.49A178.83,178.83,0,0,1,160,692.7c.55-9.89,1.05-13.36,5.66-25s14.71-38.5,20-51.62,10.81-27.92,13.69-36.42,3.28-8.52,7.16-3.23,14.1,14.05,18.64,19.89,5.49,5.34-.87,8.31S209.56,615.37,209.55,622s1.35,17.59,1,23.45-4.35,10-8,16.18-5.83,11.39-2.25,15.5,5.29,5.15,4,11.1-2.8,13.93-.45,19.95S214,721,215.22,725.68s1.57,13.33,3.21,20.44,6.83,15.9,12.13,21.26,14.55,10,17.62,15.34,6.68,9.67,3.52,14.77-7.62,14.42-15.84,25.24-12.7,7-14.44,13.93-4.75,33.71-4.11,41.93,1.08,28.76,6.05,37.62,13.19,16.66,15.35,22.06,2.17,7.12-3.66,7.57-69.19-1.09-75.24-.23-6.06,3.25-6.72,14S150.55,1024,148,1022.85Z"/><path class="cls-4" d="M282.53,935.86c3.42-8.18,15-53,19.33-66s10.71-34.12,16.17-45.72,8.19-18.66,11.82-26.63,5.46-15,9.1-24.12,2.12-20.89,1.45-23.52,4-2.48,6.47-3.82,3.12.29,5.88,4,13.48,22,16.09,32.87,5.8,24.47,6.08,37.83-.24,35.22-4.06,47.46-7.41,28.08-13.56,36.29S342.53,922.15,335,926.67a85.05,85.05,0,0,1-21.28,9.13c-6.86,1.91-18.44,2.6-22.7,2.42S279.11,944,282.53,935.86Z"/><path class="cls-4" d="M233.22,692.52a34.7,34.7,0,0,1-1.25-13.3c.63-5.88,1.76-9.64,6.9-13.66s13.55-5.79,20.45-8.17,18.69-7.14,21.58-4.87a92.25,92.25,0,0,1,11.54,10.91c4.39,4.87,11,12.9,12.67,16.67s-1.88,2-9.28,2.63S271,685,262.2,686s-18.06,3-21.7,6.15S234,695.15,233.22,692.52Z"/><path class="cls-4" d="M229.32,487.61c3.06-6.56,8.52-23.95,14.32-32s27.49-25.5,38.07-31.58,21.8-12,35.26-16.55,32-9.34,47-11.11,55.4-4.08,70.28-6.95,40.46-5.72,49.59-9.16,11.64-4.12,21.79-10.55,15.91-8.66,20.25-13.8,6.88-9.41,8.6-15.26,6.62-16.71,11-22.44,7.44-9.8,18.14-12.56a86.77,86.77,0,0,1,21.84-3c5.57-.24,8.92,2.38,7.11,7.07s-7.41,21.22-12,28.1-11,15.35-14.47,17.39-3.34,4.23-.8,11.29,12,31.66,15.91,39.55,23.14,39.58,28.92,47.33,22.3,28.47,28.18,34,18.54,16.61,26.05,19.79,13.56,1.11,19.24-4.82a152.79,152.79,0,0,0,17.14-21.13c5.52-8.33,14.75-26.6,18.58-33.83s6.78-12,7.39-7.2,4.77,15.5,4.53,19.2-2.19,11-2.85,17.56-2.21,15.74-.41,25.92,4,20,5.71,24.56-2.14,4.83-2.92,11.76-2.72,18.65-1.14,26.52S736,583.19,739,588s7.12,11.26,7,15.72-2.95,5.43-3,10.6-.14,11.81,1.54,15,1.06,4.66-1.54,11.66-13.51,27.65-17.4,34.15-11.72,23.43-12.37,29.29-4.7,17.08-2,27.29a63.2,63.2,0,0,0,14.93,26.77c6.55,6.74,12,11.29,16,17.12s6.34,12.14,3.58,18.79-5.52,13.88-7.51,17.86-3.62,20.17-1.14,25.56,1.62,7,7.93,10.4,11.34,3.34,13,1.05-.84-7.1,1.72-11.45,10.76-12.45,16.18-16.71,19.77-12.9,24.62-19.2A60.11,60.11,0,0,0,812,777.62c2-9.85,2.73-24.89.75-35.3s-3.6-19.59-7.71-28.19-17-31.46-21.12-40.67-8.58-16.2-9.24-26-.17-11.23-.06-19.43.32-14.41-1.83-17.33-1.5-4.23,1.08-8.89,9.56-12.67,13.39-21.92,9.84-17.11,9.66-27.18-2.63-20.5-4.14-27.45-3.11-11.17-2-15.29,9.32-17.38,10.65-24.31,3.62-11.27,2.77-19a136.36,136.36,0,0,0-3.66-19.34c-1.62-6.55,0-11.43,3.45-15.93s1.68-1.3,8.39-1.68,20.3,1,37.46,5.9,37.57,11,47.46,18.14,29.91,28.35,32.29,32.76,6.24,20.62,8.37,27.72,4.89,28.26,5.49,42.5-1.24,42-2.23,55.45-5.27,53-5.8,57.86-1.88,16.18-.33,26.5,2.59,17.71,3.94,28.83,2.41,21.83,1.81,27.17-2.44,5.1-7.86,7.37-22.87,11.78-28.47,16-18.61,17.12-21.81,22.42-10.6,24.13-16.59,35.53-11.35,25.91-16,34.94-4.86,9.73-11.67,17.25-12.32,12.2-16.72,17.09-8.3,8.08-7,12.78,2,7.45,8,7.42,11.39.77,14.88-.83,4.36-1.62,4.92,2,1.51,7.39,5,7.31,6.21-1.26,9.82-5,4.45-2.23,5.55,1.19,1.19,8.74,5.46,8.88,8.57,2.18,12.72-1.73,6.47-4.51,8.18-1.91,4.25,6.59,8.08,6.31,6.73-.57,14-6.5,12.59-11.08,15.13-13.3,2.07-.38,4.2,2.78,5.13,3.72,10.88,5.1,12.49,6.44,17.68,5.85,11.93-1.07,17.33-4.24,16.38-14.09,21.48-21.11,14.37-23.34,14.77-30-2-19-4.11-23.16-1.56-7.72,2.56-3.55,12.17,16.14,13.69,21.19,4,13.59,3.59,20.65-2.24,12.95-6.07,22.27-5.68,13.43-11.28,20.84S1002.6,951,996.92,951.9s-79.58-.11-85.1.68-2.54,5.16-14.24.09-54.92-19.45-66.38-23.44-13.06-4.68-20.4-4.72-163,1.57-191.3,2.22-61.36,1-68.45,2-1.25-2.59,6.81-13.47,18-30,21.5-43.61,8.73-37.9,9.15-51,.08-36.29-3-51.32-11.6-42.38-19.33-59.16-29.63-59-39.32-77-29.88-49.57-36-59.73-27.1-42.17-31.93-51.3-11.1-26.17-15.25-36.05S431,462.69,425,462.69s-17.66,2.92-32.85,3.51-47.11,3.42-60.94,4.43a254.46,254.46,0,0,0-40,5.92c-13.18,3.09-30,6.37-39.39,9.19S226.27,494.15,229.32,487.61Z"/><path class="cls-3" d="M239.2,939c5.48.17,63.77-1,70.52-2.68s23-8.57,31-14.08,13.85-11.24,20.88-24.81,12-30.5,12.81-43.89,2.62-36.1-1-52.37-8-28.25-12.1-35.31-11.88-16.35-14.08-18.25.88-1.65,4.58-4.07,11-4.15,9.81-9.83-5.33-9.91-12.51-8.82-11.81,3.69-15.65-1-10.35-13.22-13.7-15.66,2.46-2.51,6.36-3.72,18-6.9,20.56-10.33,6.57-4.71,5.44-9.24-1.85-9.44-8.5-7.9-20.92,4.5-27.1,4.45-10.44,1.37-12.57-2.34-20.64-22.92-23.94-25,2.61-3.26,6.5-5S296.8,639.6,297.4,636s.78-6.12-4.65-6.16S273.84,632,268,632.62s-7.89,1.5-11.95-2.42-16.61-17.69-22.33-24.06-24.42-26.32-32.82-36.35-24.21-29.68-29-35.71S156.42,516,151,511.45s-14.24-11.2-10.44-11.5,18.72-1.83,28.45-2.26,45.09-4.37,56.33-6.08,27.47-7.25,43.46-10.44,33.65-6.75,46.67-8.93,30.55-2.12,46.12-3.81,28.49-1.91,42.23-3.43,16.67-3.33,20.66-3.42,8.82-1.26,13.4,9.71,11.41,33.08,17.08,43.24,24.07,39,30.87,50.28,31.71,52.3,41.56,70.38,23.3,41.2,32.43,60.87,17.34,38.14,20.41,51.14,8.47,35.88,9.13,48.5A226.13,226.13,0,0,1,588,833.92c-1.48,11.47-4.61,28-11.32,43.44s-20,40.69-23.29,45.11,3.78,3.78,8.21,4.11,253.15-4,253.15-4,11.92,4.43,20.42,7.64,162.43,58.24,168.06,61.06,6,17.71-2.58,17.66-277-1.83-296.45-2.34-275.88-.84-279.94-1-38.37,1.47-45.76-.69c-9-2.64-142.7-49-142.7-49S238.08,938.9,239.2,939Z"/><path class="cls-3" d="M1179.22,909.3c-2.3-15.13-4.27-32.94-5.9-48.9,0,0-12.48-20.35-19.82-20.58-5.49-.15-8.06,14.5-4.75,29,.49,2.08,7,28,25.09,47.75,1,1.09,4.09,2.57,5.22,5.69,3.76,10.35,5.19,28.51,0,23.41-9.47-9.29-26.38-32.4-30.39-40.06-16.92-32.48-17.22-54.61-17.28-56.08-1.1-24.18,13.82-30.23,18.6-30.17,6.93.09,20.61,13.33,20.61,13.33-.64-6.57-1.12-11.64-1.45-14.36-1.31-10.73-5.18-17.54-1.13-22,12.17-13.23,59.72-16,83.32-16,16.42,0,71.83,2,84.75,14.16,6.08,5.76,1.78,8.8,1.13,19.73s-8.18,66-12.73,100.58c-3.4,25.95-4.36,41.74-7.31,62.06-3.43,23.67-6.5,40.21-8.58,42.12-9.29,8.49-42.15,10.78-56.26,10.78-20.1,0-58.69-5.71-60.29-14.06C1188.74,998.4,1185,947.56,1179.22,909.3Z"/><path class="cls-5" d="M1175.64,803.48c0-3.25,31.88-8.88,74.47-8.88s79.55,6.52,79.55,9.76-35.19,10.86-77.77,10.86S1175.64,806.72,1175.64,803.48Z"/><path class="cls-6" d="M689.62,398A58.27,58.27,0,0,1,676,396.52c-1.19-.3-29.51-7.56-54.62-34.41a3.47,3.47,0,0,1,5.07-4.73c19,20.29,41.8,30.07,51.22,32.41,15.23,3.78,42.4-.08,68.65-17.2,24.15-15.75,55.28-47.88,66.33-111.43a3.47,3.47,0,1,1,6.84,1.19c-11.5,66-44.07,99.54-69.39,116C728.66,392.38,706.38,398,689.62,398Z"/><path class="cls-6" d="M599,324.93a3.49,3.49,0,0,1-3.19-2.12c-10-23.44-13.64-50.21-10.88-79.58a3.42,3.42,0,0,1,3.76-3.12,3.49,3.49,0,0,1,3.14,3.76c-2.65,28.22.84,53.85,10.35,76.25a3.44,3.44,0,0,1-1.83,4.53A3.37,3.37,0,0,1,599,324.93Z"/><path class="cls-6" d="M585.62,260a2.8,2.8,0,0,1-.82-.11c-7.46-1.77-17.74-5.54-20.57-17.66a3.47,3.47,0,0,1,6.75-1.57c1.53,6.56,6.14,10.29,15.42,12.5a3.47,3.47,0,0,1-.78,6.84Z"/><path class="cls-6" d="M703.48,282.52a3.5,3.5,0,0,1-1.76-.51,3.44,3.44,0,0,1-1.19-4.75,23.19,23.19,0,0,1,5-5.28c2.63-2.26,5.33-4.6,5.24-6.84a16.31,16.31,0,0,0-1.89-2.21,15.72,15.72,0,0,1-3.35-4.63c-3.21-7.81-2.07-17.89,3-26.33a3.46,3.46,0,0,1,5.94,3.56c-3.88,6.5-4.88,14.41-2.53,20.15a12.41,12.41,0,0,0,2,2.53c1.68,1.8,3.59,3.84,3.73,6.59.26,5.62-4.09,9.39-7.62,12.42a20.48,20.48,0,0,0-3.63,3.6A3.45,3.45,0,0,1,703.48,282.52Z"/><path class="cls-6" d="M687.47,172a3.48,3.48,0,0,1-1.7-.44,31.53,31.53,0,0,0-6.22-2.63,3.47,3.47,0,0,1,2.06-6.62,40.34,40.34,0,0,1,7.56,3.2,3.47,3.47,0,0,1-1.7,6.49Z"/><path class="cls-6" d="M789.1,190.4a3.42,3.42,0,0,1-2.54-1.1c-6.65-7.13-20.7-9.4-31-8.5a3.46,3.46,0,1,1-.6-6.9c12.28-1.08,28.39,1.79,36.65,10.69a3.45,3.45,0,0,1-2.52,5.81Z"/><path class="cls-6" d="M708.75,333.7c-13.24,0-26.57-4.49-39.86-13.43a3.47,3.47,0,1,1,3.87-5.75c19.58,13.19,39.18,15.71,58.21,7.45a3.46,3.46,0,1,1,2.76,6.35A62.29,62.29,0,0,1,708.75,333.7Z"/><path class="cls-6" d="M759.74,83.33a3.51,3.51,0,0,1-1.35-.28,3.46,3.46,0,0,1-1.83-4.54c4.25-10.08,5.22-26.87-.64-36.41a3.46,3.46,0,1,1,5.9-3.63C768.94,50,768,69.28,762.94,81.21A3.48,3.48,0,0,1,759.74,83.33Z"/><path class="cls-6" d="M871.48,206.59a3.46,3.46,0,0,1-3.44-3.17c-.54-5.9-1-12.25-1.46-18.91-3.44-48-8.14-113.63-47.69-139.69-14.08-9.29-28.6-12.41-43.94-15.71-3.87-.84-7.8-1.68-11.82-2.64a3.47,3.47,0,0,1-2.57-4.17,3.43,3.43,0,0,1,4.16-2.57c4,.94,7.87,1.78,11.68,2.6,16,3.45,31.14,6.7,46.32,16.7C865.12,67,870,134.61,873.49,184c.47,6.63.91,13,1.44,18.79a3.48,3.48,0,0,1-3.14,3.77Z"/><path class="cls-6" d="M559.56,264.4a1.1,1.1,0,0,1-.27,0,3.44,3.44,0,0,1-3.2-3.69c1.14-15.58,5.13-34.44,25.83-42.09a3.46,3.46,0,0,1,2.38,6.5c-13.42,5-19.79,15.76-21.29,36.09A3.49,3.49,0,0,1,559.56,264.4Z"/><path class="cls-6" d="M786.28,394.7a3.46,3.46,0,0,1-2.37-6c7.62-7.09,16-13.27,24.1-19.26,12.61-9.28,24.49-18.05,34-30,17.65-22.22,17.9-50,18.15-76.94.1-11.77.21-24,1.76-35.52a3.47,3.47,0,0,1,6.87.93c-1.5,11.13-1.6,23.09-1.69,34.66-.26,28.07-.52,57.09-19.67,81.18-10.08,12.69-22.89,22.14-35.29,31.28-8,5.87-16.18,11.94-23.51,18.74A3.39,3.39,0,0,1,786.28,394.7Z"/><path class="cls-6" d="M657.91,228.4a31.67,31.67,0,0,1-20.51-7.61,3.46,3.46,0,1,1,4.44-5.31A24.94,24.94,0,0,0,664,220.74a3.47,3.47,0,0,1,1.58,6.76A33.62,33.62,0,0,1,657.91,228.4Z"/><path class="cls-6" d="M766.39,246.24a23.06,23.06,0,0,1-13.65-4.58,3.46,3.46,0,1,1,4-5.66c6.49,4.58,12,3.89,19.47,1.15a3.46,3.46,0,1,1,2.41,6.49A35.21,35.21,0,0,1,766.39,246.24Z"/><path class="cls-6" d="M651.61,233h-.48c-1.72-.13-4.23-1-6.52-4.74a3.47,3.47,0,0,1,5.91-3.62,5.45,5.45,0,0,0,1.09,1.35,3.35,3.35,0,0,1,.34-.41,3.47,3.47,0,0,1,5.32,4.45A7.29,7.29,0,0,1,651.61,233Z"/><path class="cls-6" d="M765.53,250.93c-2.15,0-4.2-1.06-6.23-3.25a3.45,3.45,0,1,1,5.05-4.71,5.1,5.1,0,0,0,1.22,1c0-.09.42-.35,1-1.05a3.45,3.45,0,1,1,5.29,4.44c-1.93,2.33-4,3.49-6.17,3.54Z"/><path class="cls-6" d="M563.22,360.36a3.46,3.46,0,0,1-1.47-6.59c12.7-6,23.55-30.35,27.72-45.26a3.47,3.47,0,1,1,6.68,1.87C592,325.29,580.63,352.55,564.7,360A3.49,3.49,0,0,1,563.22,360.36Z"/><path class="cls-6" d="M672,513.42c-4.16,0-8.56-2.76-11.47-4.6l-.78-.5c-8.66-5.31-16.27-11.51-25.42-20.66-32.66-32.65-61.27-82-74.63-128.84a3.46,3.46,0,0,1,6.65-1.9c13.08,45.74,41,94,72.89,125.84,8.75,8.75,16,14.65,24.13,19.67l.86.54c5.92,3.73,7.72,3.73,8.28,3.42,19.72-11.25,32.39-37.21,42.56-58.08,1.34-2.71,2.62-5.34,3.88-7.85a3.46,3.46,0,1,1,6.19,3.08c-1.26,2.51-2.51,5.12-3.83,7.81-10.6,21.72-23.8,48.74-45.36,61.07A8,8,0,0,1,672,513.42Z"/><path class="cls-6" d="M577.73,563.62a4.24,4.24,0,0,1-1.38-.22c-3-1-2.9-2.73-2.4-16.28l0-.86c-.53-7.39-3.51-17.33-6.12-24.09-4-10.3-8.53-20.67-13-30.68-8.4-19.09-17.12-38.84-22.31-59.6-5.13-20.54-14.12-86,11.18-116.13,9.84-11.76,23.68-17.09,41.18-15.87a3.46,3.46,0,1,1-.47,6.91c-15.15-1.06-27.07,3.44-35.41,13.41-23.45,28-14.67,90.34-9.76,110,5,20.18,13.63,39.65,21.93,58.47,4.45,10.1,9.06,20.54,13.09,31,1.34,3.51,5.79,15.77,6.56,26.34,0,.08,0,.57,0,1.37-.12,3.21-.19,5.58-.22,7.29,2.49-1.84,5.55-4.43,7.05-5.69s2.89-2.4,3.42-2.75c5.57-3.58,10.94-9.21,16.59-15.15,11.83-12.4,25.22-26.45,43.57-22.77a3.46,3.46,0,1,1-1.35,6.79c-14.67-2.93-25.59,8.59-37.2,20.75-5.7,6-11.6,12.18-17.87,16.21-.44.3-1.41,1.15-2.7,2.22C584.33,560.9,580.58,563.62,577.73,563.62Z"/><path class="cls-6" d="M722.8,550a3.4,3.4,0,0,1-2.1-.7,125.65,125.65,0,0,1-11.39-10.63c-8.09-8.17-18.17-18.31-25.28-18.31a3.47,3.47,0,0,1,0-6.94c10,0,20.74,10.83,30.21,20.36a113.88,113.88,0,0,0,10.66,10,3.45,3.45,0,0,1-2.1,6.21Z"/><path class="cls-6" d="M281,428.6a3.54,3.54,0,0,1-2.87-1.5,3.49,3.49,0,0,1,.92-4.82c36.38-25,82.76-29.59,127.61-34,26.72-2.63,54.35-5.36,79-12.45,12.81-3.7,22.06-10.57,31.84-17.84,3.21-2.39,6.47-4.82,9.92-7.18a3.46,3.46,0,0,1,3.92,5.7c-3.39,2.32-6.55,4.69-9.69,7-10.32,7.67-20,14.91-34.06,18.94-25.25,7.27-53.21,10-80.23,12.7C363.38,399.5,317.9,404,283,428A3.47,3.47,0,0,1,281,428.6Z"/><path class="cls-6" d="M933.46,501.08a3.43,3.43,0,0,1-3.29-2.35c-12.77-38.3-60.69-58.09-97.85-63.38-4-.59-8-1-12.32-1.35-3.77-.35-7.57-.7-11.3-1.18a3.46,3.46,0,0,1,.89-6.87c3.66.47,7.36.82,11,1.15,4.2.39,8.54.78,12.7,1.38,39.11,5.58,89.65,26.76,103.42,68a3.45,3.45,0,0,1-3.28,4.55Z"/><path class="cls-6" d="M826.83,320.24a3.44,3.44,0,0,1-1.79-.5,3.48,3.48,0,0,1-1.19-4.75c13.3-22.17,4.61-39.09-5.46-58.7-4.23-8.27-8.66-16.84-11.44-26.15-4.27-14.24-6.15-28.95-8-43.19-1.69-13.37-3.46-27.21-7.21-40.35-6-20.79-16.9-43-29.79-43a3.47,3.47,0,1,1,0-6.93c20.51,0,32.32,33.59,36.44,48.05,3.9,13.64,5.71,27.73,7.43,41.36,1.79,14,3.64,28.39,7.75,42.08,2.61,8.7,6.87,17,11,25,10.08,19.64,20.51,39.94,5.23,65.41A3.49,3.49,0,0,1,826.83,320.24Z"/><path class="cls-6" d="M537.73,156.72a3.48,3.48,0,0,1-3.11-5c4.86-9.71,8.13-20.48,11.28-30.91,3.77-12.45,7.67-25.31,14.35-36.89C588.75,34.5,647.52,0,703.22,0,719,0,740.39,4.75,752.9,18.1a3.46,3.46,0,1,1-5,4.75c-11-11.75-30.94-15.92-44.64-15.92-53.34,0-109.64,33.07-137,80.43-6.29,10.88-10.07,23.36-13.72,35.44-3.25,10.7-6.59,21.76-11.71,32A3.49,3.49,0,0,1,537.73,156.72Z"/><path class="cls-6" d="M528.06,313.34a3.45,3.45,0,0,1-2.44-1c-33.28-33.27-18.66-77.53-5.77-116.6,2.52-7.68,4.93-14.94,7-22a3.46,3.46,0,1,1,6.65,1.92c-2.07,7.23-4.49,14.55-7,22.3-12.85,39-26.14,79.28,4.09,109.52a3.47,3.47,0,0,1-2.45,5.92Z"/><path class="cls-6" d="M775.08,496.19a3.46,3.46,0,0,1-3.46-3.47c0-22.85,12-39.34,23.53-55.27,12.45-17.19,24.24-33.44,20.67-56.68a3.46,3.46,0,1,1,6.84-1c4,26.06-9.16,44.22-21.91,61.79-11.43,15.74-22.22,30.62-22.22,51.21A3.45,3.45,0,0,1,775.08,496.19Z"/><path class="cls-6" d="M755.76,524.48a3.47,3.47,0,0,1-3.47-3.47c0-16.69-6.49-29-13.37-42.07-4.86-9.24-9.88-18.79-12.74-30.23-5.14-20.56-1.8-37.3,2.77-55.5a3.46,3.46,0,1,1,6.71,1.68c-4.49,17.89-7.53,33.1-2.77,52.14,2.67,10.63,7.5,19.8,12.18,28.68,6.95,13.23,14.14,26.91,14.14,45.3A3.45,3.45,0,0,1,755.76,524.48Z"/><path class="cls-6" d="M771.63,567.25a3.46,3.46,0,0,1-3.46-3.46c0-20,8.51-35.79,16.75-51C791,501.57,797.26,490,800,476.84c2-9.77.53-21-4.71-35.38a3.47,3.47,0,0,1,6.53-2.37c3.58,9.83,8,24.59,5,39.16-2.92,14.14-9.44,26.19-15.74,37.82-8.18,15.13-15.93,29.43-15.93,47.72A3.45,3.45,0,0,1,771.63,567.25Z"/><path class="cls-6" d="M760.59,592.78a3.47,3.47,0,0,1-3.47-3.46c0-16.29-7.2-28.21-14.78-40.84-4.52-7.46-9.19-15.19-12.6-24.18-6.85-18.09-5.53-36.75-4.34-53.22a3.46,3.46,0,1,1,6.9.49c-1.18,16.52-2.38,33.62,3.92,50.29,3.2,8.39,7.69,15.85,12,23,7.77,12.88,15.8,26.17,15.8,44.41A3.47,3.47,0,0,1,760.59,592.78Z"/><path class="cls-6" d="M768.18,614.17a3.35,3.35,0,0,1-1.79-.5,3.48,3.48,0,0,1-1.19-4.75c1.53-2.54,3.21-5.25,5-8.09,10.07-16.27,22.64-36.52,23.53-53.1.38-7.57-1.47-14.26-3.42-21.33-1-3.49-2-7.08-2.72-10.93a3.45,3.45,0,1,1,6.77-1.34c.71,3.57,1.69,7,2.61,10.42,2,7.3,4.13,14.85,3.66,23.54-1,18.37-14,39.44-24.56,56.39-1.73,2.8-3.39,5.49-4.91,8A3.41,3.41,0,0,1,768.18,614.17Z"/><path class="cls-6" d="M752.31,621.76a3.48,3.48,0,0,1-3.45-3.12c-1-9.55-5.6-17.28-10.51-25.46-4.51-7.52-9.18-15.29-10.85-24.66-1.93-10.94-1.22-23.27,2.13-36.63a3.46,3.46,0,1,1,6.71,1.68c-3.1,12.42-3.78,23.77-2,33.76,1.43,8.08,5.57,15,10,22.29,5.09,8.46,10.37,17.23,11.48,28.33a3.46,3.46,0,0,1-3.1,3.78A1.46,1.46,0,0,1,752.31,621.76Z"/><path class="cls-6" d="M760.81,641.14c-.76,0-1.51,0-2.26-.1-7.46-.68-14-4.47-16.59-9.7a3.46,3.46,0,0,1,6.19-3.09c1.51,3,6,5.43,11,5.89,4.54.42,8.37-.84,10.23-3.35,3-3.95,2.85-9.53,2.41-13.95,0-.25-.07-.5-.1-.76a11.49,11.49,0,0,1-1.44,2.58c-4,5-10.94,9.69-18.38,7.84-3.88-1-7.09-3.86-9.06-8.16-2.52-5.42-2.65-12.14-.38-16.71a3.47,3.47,0,0,1,6.21,3.11c-1.33,2.65-1.13,7.25.47,10.72.63,1.35,2,3.73,4.42,4.33,4.3,1.05,8.77-2.27,11.33-5.46.15-.25.56-1.19.84-1.82,1-2.42,2.11-4.89,4.6-5.52a5.56,5.56,0,0,1,4.64.83c2.73,1.93,3.51,6,3.75,8.33.56,5.67.66,12.94-3.77,18.8C772,638.9,766.81,641.14,760.81,641.14Z"/><path class="cls-6" d="M735.75,815.74a3.12,3.12,0,0,1-1.94-.64,3.26,3.26,0,0,1-.82-4.67c4.89-6.54,10.16-13.54,10.16-21.13,0-8.61-7-15.74-13.67-22.63-2.26-2.3-4.38-4.48-6.25-6.72-9.92-11.83-14.89-22.66-15.61-34.06-1.39-21.6,8-40.8,17.25-56.73,1.38-2.38,2.79-4.65,4.2-6.91,6-9.56,11.1-17.81,11.1-28.86a3.47,3.47,0,0,1,6.93,0c0,13-6.18,23-12.15,32.53-1.36,2.2-2.76,4.43-4.09,6.71-9.22,15.81-17.58,33.12-16.32,52.81.63,9.87,5.08,19.42,14,30.07,1.71,2,3.74,4.12,5.9,6.32,7.33,7.53,15.64,16,15.64,27.47,0,9.9-6,17.88-11.3,24.94A3.76,3.76,0,0,1,735.75,815.74Z"/><path class="cls-6" d="M760.43,852.47a3.42,3.42,0,0,1-3.1-1.92c-7.38-14.72,9.38-26.95,14.86-31,2.21-1.6,4.36-3.14,6.43-4.61,16.2-11.55,26.91-19.17,30.17-40.49,3.92-25.39-2.22-54.78-16.84-80.67l-3.18-5.52c-9.47-16.38-20.21-34.95-17-54.47a3.49,3.49,0,0,1,4-2.84,3.46,3.46,0,0,1,2.84,4c-2.84,17.06,7.23,34.48,16.14,49.87,1.09,1.9,2.16,3.76,3.19,5.58,15.37,27.21,21.83,58.23,17.69,85.14-3.73,24.2-16.65,33.4-33,45.06-2,1.46-4.18,3-6.35,4.57-11.95,8.73-16,15.82-12.77,22.29A3.44,3.44,0,0,1,762,852.1,3.35,3.35,0,0,1,760.43,852.47Z"/><path class="cls-6" d="M744.14,854.44a3.42,3.42,0,0,1-3.25-2.27c-6.45-17.7.5-27.13,7.88-37.12,2.22-3,4.55-6.18,6.7-9.75a3.47,3.47,0,0,1,5.95,3.56c-2.34,3.87-4.75,7.15-7.07,10.31-7.31,9.88-12.13,16.42-7,30.63a3.43,3.43,0,0,1-3.24,4.64Z"/><path class="cls-6" d="M827.55,890.2a3.15,3.15,0,0,1-1-.17,3.45,3.45,0,0,1-2.3-4.3c2.46-8.15,5.11-16.29,7.76-24.43,6.37-19.53,12.94-39.73,16.78-60,4.64-24.49,4.83-49.69,5-74,.06-8.78.13-17.57.38-26.39.54-17.59,2.38-35.08,4.17-52q1-9.17,1.92-18.44a3.42,3.42,0,0,1,3.76-3.11,3.48,3.48,0,0,1,3.12,3.78c-.59,6.2-1.25,12.36-1.9,18.49-1.78,16.78-3.63,34.14-4.13,51.47-.27,8.74-.34,17.5-.41,26.23-.17,24.67-.37,50.18-5.11,75.29-3.92,20.76-10.57,41.16-17,60.91-2.64,8.08-5.27,16.18-7.72,24.28A3.46,3.46,0,0,1,827.55,890.2Z"/><path class="cls-6" d="M940.52,756.7h-.35a3.49,3.49,0,0,1-3.11-3.78c1.1-11.43-.84-23-2.91-35.21-1.85-11-3.78-22.42-3.29-33.84.75-17.12,2.47-34.22,4.15-50.76,4.1-40.6,8-79-1.19-118.88a3.47,3.47,0,1,1,6.76-1.55c9.41,41,5.3,81.74,1.31,121.12-1.66,16.45-3.37,33.45-4.1,50.38-.47,10.67,1.39,21.71,3.2,32.39,2,12.12,4.16,24.66,3,37A3.49,3.49,0,0,1,940.52,756.7Z"/><path class="cls-6" d="M229.09,491.67a3.12,3.12,0,0,1-1.27-.24,3.49,3.49,0,0,1-2-4.5c2.41-6.14,4.89-11.82,7.55-17.37.61-1.3,1.26-2.73,1.92-4.24,3.75-8.37,8.4-18.76,16.69-22.92a3.44,3.44,0,0,1,4.63,1.55,3.49,3.49,0,0,1-1.53,4.66c-6.09,3-10.16,12.18-13.46,19.54-.69,1.55-1.36,3-2,4.39-2.59,5.41-5,10.95-7.34,16.94A3.49,3.49,0,0,1,229.09,491.67Z"/><path class="cls-6" d="M132.05,1010.88a3.48,3.48,0,0,1-3-1.63c-18.6-29.77-12.4-64.83-7.43-93,1.54-8.68,2.24-17.69,2.94-26.44.93-11.76,1.89-23.93,4.83-35.72,3.54-14.09,9.35-27.48,15-40.43,4.67-10.79,9.53-21.92,12.92-33.26,5.33-17.73,3.37-34.67,1.31-52.58-1.72-14.93-3.49-30.36-.62-46.1,1.36-7.52,4.67-15.13,7.87-22.49,1.74-4,3.37-7.73,4.64-11.34,4-11.21,8.38-22.42,12.62-33.26,5.2-13.26,10.58-27,15.2-40.69a3.46,3.46,0,1,1,6.55,2.21c-4.67,13.88-10.06,27.67-15.3,41-4.21,10.8-8.59,22-12.53,33.05-1.36,3.84-3.12,7.89-4.81,11.79-3,7-6.21,14.24-7.44,21-2.66,14.75-1,29,.7,44.08,2.06,17.83,4.16,36.27-1.56,55.37-3.51,11.73-8.45,23.05-13.2,34-5.54,12.69-11.23,25.81-14.62,39.34-2.81,11.23-3.74,23.12-4.65,34.6-.73,8.89-1.45,18.09-3,27.08-5,28.41-10.7,60.62,6.49,88.13a3.45,3.45,0,0,1-1.11,4.77A3.35,3.35,0,0,1,132.05,1010.88Z"/><path class="cls-6" d="M135.91,1015.52a3.51,3.51,0,0,1-3.11-1.92c-26-52-10.1-105.72,43.55-147.46,11.3-8.78,23.3-20.29,36.71-35.19a106.35,106.35,0,0,0,7.18-9.33l.32-.42a37.65,37.65,0,0,0,1.82-3.36c2-3.79,3.27-6.32,6.27-5.58a3.78,3.78,0,0,1,2.82,4c0,4.83-2.2,9.72-4.31,14.43-1.52,3.37-3,6.55-3.47,9.41-3.61,19.74-9.38,68.24,14.53,92.13a3.46,3.46,0,0,1-4.9,4.89c-25.28-25.26-21.15-72.4-16.45-98.26a20.86,20.86,0,0,1,.57-2.4c-13.38,14.79-25.43,26.3-36.84,35.16-50.81,39.53-66,90.15-41.59,138.9a3.46,3.46,0,0,1-1.55,4.64A3.29,3.29,0,0,1,135.91,1015.52Z"/><path class="cls-6" d="M330.18,917.22a3.47,3.47,0,0,1-3.46-3.47c0-26.41-4.55-42.12-18-62.32a3.46,3.46,0,1,1,5.76-3.83c14.35,21.49,19.17,38.17,19.17,66.15A3.48,3.48,0,0,1,330.18,917.22Z"/><path class="cls-6" d="M221.92,839a3.46,3.46,0,0,1-1.44-6.61c8.54-3.91,14.91-15.37,20.53-25.5,2.37-4.25,4.6-8.27,6.92-11.65a3.46,3.46,0,1,1,5.71,3.92c-2.13,3.11-4.29,7-6.57,11.1-6.13,11.05-13.09,23.57-23.72,28.43A3.41,3.41,0,0,1,221.92,839Z"/><path class="cls-6" d="M282.35,941.6a3.94,3.94,0,0,1-1-.14,3.45,3.45,0,0,1-2.29-4.33c3.66-11.92,7.11-24.09,10.43-35.86,10.05-35.63,20.45-72.48,38.15-106.38a3.46,3.46,0,1,1,6.13,3.2c-17.34,33.27-27.66,69.76-37.63,105.06-3.32,11.81-6.77,24-10.46,36A3.45,3.45,0,0,1,282.35,941.6Z"/><path class="cls-6" d="M330.2,783.41a3.45,3.45,0,0,1-3-1.76c-6.31-11-14.59-17.83-27.64-22.69a3.47,3.47,0,0,1,2.41-6.51c14.71,5.49,24.06,13.19,31.24,25.76a3.48,3.48,0,0,1-1.28,4.74A3.56,3.56,0,0,1,330.2,783.41Z"/><path class="cls-6" d="M247.84,787.23a3.48,3.48,0,0,1-2.63-1.22,125.84,125.84,0,0,0-10.07-10.07c-5.52-5.14-11.23-10.48-15.27-16.92-5.59-8.95-6.75-19.71-7.78-29.21a3.56,3.56,0,0,1,3.07-3.91,3.37,3.37,0,0,1,3.79,3c1,9.34,2.05,18.85,6.8,26.45,3.56,5.68,8.67,10.46,14.13,15.51a136.57,136.57,0,0,1,10.6,10.65,3.45,3.45,0,0,1-.38,4.87A3.4,3.4,0,0,1,247.84,787.23Z"/><path class="cls-6" d="M207.45,720a3.45,3.45,0,0,1-2.89-1.54c-6.33-9.38-7.49-22-3.1-33.79a3.46,3.46,0,0,1,6.49,2.41c-3.61,9.7-2.73,20,2.35,27.51a3.45,3.45,0,0,1-.93,4.81A3.35,3.35,0,0,1,207.45,720Z"/><path class="cls-6" d="M199.92,679.6a3.51,3.51,0,0,1-2.53-1.1c-6.88-7.38,1.28-18.9,6.14-25.77,1-1.36,1.78-2.49,2.26-3.34a3.47,3.47,0,0,1,6,3.45c-.57,1-1.51,2.32-2.6,3.89-3.19,4.49-9.78,13.79-6.75,17a3.48,3.48,0,0,1-2.54,5.84Z"/><path class="cls-6" d="M271.27,762.33A3.45,3.45,0,0,1,268,760a3.48,3.48,0,0,1,2.11-4.43l3.12-1.11c7.88-2.81,16-5.71,24.82-6.26,4.1-.26,8.25-.36,12.44-.45,17.72-.39,34.46-.77,47.28-12.74a3.46,3.46,0,1,1,4.72,5.07c-14.74,13.75-33.62,14.19-51.84,14.59-4.11.11-8.16.2-12.16.45-7.85.48-15.17,3.1-22.94,5.88l-3.13,1.11A3.61,3.61,0,0,1,271.27,762.33Z"/><path class="cls-6" d="M362.13,736.91H362a3.44,3.44,0,0,1-3.33-3.59c.06-2.26-.69-3-.94-3.2-2.29-2.11-9-1.36-13.46-.88-1.88.22-3.64.41-5,.44-4.07.1-8.14.17-12.23.24-22,.37-44.78.76-65.82,5.72a3.46,3.46,0,1,1-1.6-6.74c21.8-5.13,44.91-5.52,67.31-5.9,4.07-.08,8.14-.14,12.16-.25,1.25,0,2.77-.21,4.46-.37,6.36-.73,14.3-1.62,18.91,2.66,2.21,2.05,3.27,4.93,3.14,8.53A3.47,3.47,0,0,1,362.13,736.91Z"/><path class="cls-6" d="M267.22,731.64a3.46,3.46,0,0,1-3.45-3.09c-1.74-16.31,16.53-20,22.52-21.18,5.68-1.13,11.39-1.87,16.9-2.57,15.66-2,30.46-3.92,42.6-14.57a3.45,3.45,0,0,1,4.89.31,3.49,3.49,0,0,1-.33,4.89c-13.72,12.05-30.28,14.18-46.27,16.23-5.4.69-11,1.42-16.41,2.5-12.67,2.54-17.75,6.61-17,13.64a3.48,3.48,0,0,1-3.07,3.83Z"/><path class="cls-6" d="M233.4,701.34a3.47,3.47,0,0,1-2.37-6c12-11.2,23.74-12.17,38.58-13.41l9.33-.78c14.22-1.21,28.94-2.43,43.59-3.41.89-.06,3.28-.61,5.6-1.14,12-2.74,22.32-4.61,26.53.17,1.25,1.46,2.45,4.07.89,8.24a3.46,3.46,0,1,1-6.48-2.42,3,3,0,0,0,.29-1.4c-2.09-1.81-15.33,1.18-19.69,2.17a54.4,54.4,0,0,1-6.68,1.29c-14.59,1-29.27,2.21-43.48,3.4l-9.3.78c-14,1.18-24.19,2-34.44,11.59A3.54,3.54,0,0,1,233.4,701.34Z"/><path class="cls-6" d="M232.54,691.73a3.44,3.44,0,0,1-3.39-2.82c-4.89-26.27,16.06-31,32.9-34.84,6.71-1.53,13.05-3,17.94-5.46,4.31-2.2,7.21-5,10.57-8.24.81-.76,1.66-1.58,2.54-2.39a3.43,3.43,0,0,1,4.89.17,3.47,3.47,0,0,1-.15,4.89c-.87.8-1.68,1.57-2.48,2.34-3.6,3.47-7,6.73-12.22,9.39-5.66,2.9-12.72,4.5-19.56,6.06-19.41,4.4-31.11,8.06-27.63,26.83a3.44,3.44,0,0,1-2.75,4A3.66,3.66,0,0,1,232.54,691.73Z"/><path class="cls-6" d="M210.32,660l-.4,0a3.47,3.47,0,0,1-3-3.83c2.64-23.59,28.76-24.79,47.82-25.67,4.45-.21,8.65-.39,12.13-.83,1.65-.22,3.88-.71,6.38-1.26,10.17-2.23,22.8-5,27.7,1.76a3.47,3.47,0,1,1-5.62,4.06c-2.22-3.09-14.63-.36-20.6.94-2.73.61-5.12,1.13-7,1.36-3.74.47-8.09.68-12.67.89-22.26,1-39.42,3.11-41.27,19.52A3.47,3.47,0,0,1,210.32,660Z"/><path class="cls-6" d="M340.4,777.46a3.73,3.73,0,0,1-1.23-.2,3.5,3.5,0,0,1-2-4.47c2.26-6,3.49-9.69,2.54-14.85a3.44,3.44,0,0,1,2.76-4,3.48,3.48,0,0,1,4.05,2.78c1.34,7.27-.69,12.74-2.86,18.53A3.43,3.43,0,0,1,340.4,777.46Z"/><path class="cls-6" d="M211.05,649.93a3.48,3.48,0,0,1-3.45-3.11l-.4-3.57c-1-8.61-2.29-19.32.87-27.3,1.45-3.61,5.05-6.78,8.22-9.57a42.92,42.92,0,0,0,3.84-3.61,3.46,3.46,0,0,1,5.22,4.55,47.74,47.74,0,0,1-4.48,4.26c-2.48,2.17-5.55,4.85-6.37,6.92-2.51,6.35-1.34,16.09-.42,23.94l.42,3.65a3.44,3.44,0,0,1-3.07,3.81C211.3,649.91,211.18,649.93,211.05,649.93Z"/><path class="cls-6" d="M419.94,975.73a77.21,77.21,0,0,1-11-.79A3.47,3.47,0,0,1,406,971a3.42,3.42,0,0,1,3.92-2.95c11.15,1.59,19.43.3,29.94-1.34l5.39-.83c3.73-.56,7.49-1.07,11.25-1.57,21.55-3,41.94-5.74,60.92-16.19,54.16-29.79,72.79-103.46,67.2-159.3-4-40.45-21-77.19-36.67-108.46-21.1-42.18-46.08-82.7-70.24-121.89-6.81-11-13.64-22.12-20.4-33.25-6.32-10.43-10.46-21.5-14.46-32.2a240.65,240.65,0,0,0-9.64-23.26,3.46,3.46,0,1,1,6.19-3.1,240.14,240.14,0,0,1,9.93,23.95c3.88,10.38,7.9,21.13,13.89,31q10.15,16.68,20.38,33.22c24.25,39.32,49.3,80,70.54,122.44,15.91,31.79,33.23,69.23,37.39,110.86,5.8,58-13.87,134.75-70.76,166.05-20.13,11.06-42.09,14.07-63.35,17-3.71.52-7.44,1-11.17,1.58l-5.33.82C433.74,974.72,427.21,975.73,419.94,975.73Z"/><path class="cls-6" d="M311,940a3.46,3.46,0,0,1-.63-6.86c19.4-3.63,34.65-14.58,45.25-32.58,21.07-35.75,18.38-89.91,9.93-115.25-3.91-11.75-8.36-23.84-15.85-31.33a3.46,3.46,0,0,1,4.89-4.9c8.56,8.56,13.36,21.52,17.52,34,8.85,26.55,11.64,83.36-10.53,121-11.66,19.79-28.47,31.85-50,35.85A2.51,2.51,0,0,1,311,940Z"/><path class="cls-6" d="M333.21,727.33a3.41,3.41,0,0,1-3.1-1.92c-1.85-3.69-7.89-11.14-11.53-13a3.46,3.46,0,0,1,3.09-6.2c5.68,2.84,12.64,12.11,14.63,16.08a3.45,3.45,0,0,1-3.09,5Z"/><path class="cls-6" d="M303.43,680.87a3.48,3.48,0,0,1-3.1-1.92c-2.12-4.22-7-8.47-11.25-12.21-2-1.74-3.92-3.42-5.53-5a3.42,3.42,0,0,1,0-4.89,3.48,3.48,0,0,1,4.91,0c1.5,1.52,3.32,3.1,5.18,4.73,4.76,4.16,10.17,8.87,12.88,14.32A3.48,3.48,0,0,1,305,680.5,3.33,3.33,0,0,1,303.43,680.87Z"/><path class="cls-6" d="M253.24,624.62a3.29,3.29,0,0,1-1.07-.18C244.7,622,237.4,613.89,231,606.74c-2-2.16-3.75-4.17-5.38-5.77-18.19-18.06-34.49-37.88-50.29-57.05q-5.57-6.78-11.21-13.57a153.43,153.43,0,0,0-21.62-22,14.94,14.94,0,0,0-2.18-1.3c-2.51-1.36-7.22-3.89-5.65-8.65.79-2.33.79-2.33,12.17-2.88,2.65-.14,5-.23,5.4-.26,7.93-.82,16.08-1.29,24-1.75,10.13-.6,20.6-1.21,30.67-2.52,20.87-2.68,41.52-7.68,61.5-12.5,8.8-2.13,17.6-4.24,26.44-6.19,22-4.86,51.85-6.87,80.63-8.81,17.16-1.14,33.38-2.23,46.7-3.86a3.46,3.46,0,1,1,.84,6.87c-13.51,1.66-29.82,2.76-47.06,3.9-28.55,1.93-58,3.91-79.61,8.66-8.81,1.94-17.56,4.06-26.3,6.16-20.17,4.88-41,9.92-62.24,12.64-10.31,1.34-20.91,2-31.16,2.56-7.82.47-15.91.94-23.74,1.73l-5.73.29-1,.05c.21.16.43.33.65.48a162.64,162.64,0,0,1,22.58,22.9q5.64,6.8,11.23,13.6c16.41,19.91,31.89,38.71,49.84,56.55,1.69,1.67,3.59,3.77,5.63,6,5.56,6.19,12.51,13.89,18.23,15.78a3.46,3.46,0,0,1-1.09,6.74Z"/><path class="cls-6" d="M683.72,684a4.54,4.54,0,0,1-.63,0,3.45,3.45,0,0,1-2.78-4c2.75-15-1.89-30.14-6.41-44.76A207.57,207.57,0,0,1,668,612.89c-2.84-15.06-.89-30.29,1-45,1.75-13.7,3.4-26.64,1.57-39.54a3.47,3.47,0,1,1,6.87-1c2,13.83.15,27.83-1.58,41.39-1.88,14.83-3.68,28.84-1,42.83a200.42,200.42,0,0,0,5.75,21.48c4.75,15.42,9.66,31.37,6.6,48A3.43,3.43,0,0,1,683.72,684Z"/><path class="cls-6" d="M655.93,551.93a8.48,8.48,0,0,1-6.44-3.32,15.3,15.3,0,0,1-2.4-14.69c3-8.14,8.53-9.43,12.36-8,5.07,1.86,8.75,9,5.77,17.25-2.33,6.41-5.67,8.26-8.06,8.68A7.3,7.3,0,0,1,655.93,551.93Zm-5.58-16.82,3.23,1.2a8.53,8.53,0,0,0,1.22,7.86c.57.66.82.86,1.17.84s1.53-1,2.72-4.22c1.63-4.52-.19-7.86-1.62-8.38-1.07-.38-2.49,1.23-3.49,3.9Z"/><path class="cls-6" d="M1008.87,996.84h0L383,993.72a4,4,0,0,1-1.14-.18l-144.29-50a3.46,3.46,0,0,1,1-6.74l60.89-1.72a3.58,3.58,0,0,1,3.58,3.38,3.46,3.46,0,0,1-3.36,3.56l-42,1.17,125.83,43.58,605.4,3-171.18-62.3-256.7,3.32h0a3.47,3.47,0,0,1,0-6.93l257.32-3.34a5.83,5.83,0,0,1,1.24.21l190.51,69.34a3.47,3.47,0,0,1-1.18,6.72Z"/><path class="cls-6" d="M367.17,1002c-.35,0-.71,0-1.08,0-5.56-.52-10.46-4.91-12.16-10.93-3.16-11,5.09-30,15.75-36.32,6.67-3.91,13.52-2.9,19.26,2.85a3.46,3.46,0,0,1,0,4.89,3.42,3.42,0,0,1-4.89,0c-3.52-3.49-6.93-4.06-10.84-1.77-8.57,5.06-14.75,21-12.62,28.45.91,3.25,3.45,5.68,6.15,5.93s4.37-1.87,5.3-3.68a3.45,3.45,0,1,1,6.17,3.1C375.83,999.28,371.75,1002,367.17,1002Z"/><path class="cls-6" d="M332.52,991.65a15.38,15.38,0,0,1-4.95-.81c-5.11-1.82-8.44-6.23-9.1-12.14-1.32-11.93,1.53-21.23,8.72-28.41,6.46-6.46,12.59-8.31,18.2-5.52A3.46,3.46,0,1,1,342.3,951c-1.72-.86-4.64-1.35-10.22,4.22s-7.83,12.92-6.71,22.77c.34,3.23,1.91,5.44,4.5,6.33,3.19,1.13,7.17,0,9.89-2.71a3.46,3.46,0,0,1,4.91,4.89A17.29,17.29,0,0,1,332.52,991.65Z"/><path class="cls-6" d="M299.81,979.08a7.55,7.55,0,0,1-5.53-2.37c-5-5-5.89-13.25-2.28-22,3.72-9,12.26-18.06,21.39-18.06a3.47,3.47,0,0,1,0,6.93c-5.2,0-11.79,6-15,13.78-2.51,6-2.23,11.43.78,14.42.56.57,1.31.52,4.55-1a14.55,14.55,0,0,1,6.39-2,3.46,3.46,0,1,1,0,6.92,11.7,11.7,0,0,0-3.38,1.3C305,977.86,302.44,979.08,299.81,979.08Z"/><path class="cls-6" d="M275.16,969.76a7.83,7.83,0,0,1-4.36-1.31C265.63,965,265,955.62,267,948.53a23.54,23.54,0,0,1,22.42-17.14,3.47,3.47,0,0,1,0,6.93,16.8,16.8,0,0,0-15.76,12.12c-1.61,5.65-.53,11.23,1,12.23.62.41,2.38,0,4.91-2.08a3.46,3.46,0,1,1,4.32,5.41C280.35,968.81,277.45,969.76,275.16,969.76Z"/><path class="cls-6" d="M259.75,961.48a10.17,10.17,0,0,1-8.37-3.78,13,13,0,0,1-2.46-8c0-9.2,6.73-19.49,15.72-19.49a3.47,3.47,0,0,1,0,6.94c-4.66,0-8.8,7-8.8,12.55a6.18,6.18,0,0,0,1,3.75,3.29,3.29,0,0,0,2.91,1.13,3.47,3.47,0,1,1,0,6.93Z"/><path class="cls-6" d="M848.41,936.14a6.31,6.31,0,0,1-3-.77c-6.21-3.34-5.77-12.87-5.55-17.45.38-8.25,1.38-16.09,2.32-23.68.39-3.07.79-6.16,1.13-9.28,2-17.36,10.74-34.56,18.48-49.73l.34-.67c2.23-4.38,4.33-8.91,6.43-13.45,4.26-9.26,8.69-18.82,14.41-27.37,15.16-22.66,46.73-35.55,56-39a3.46,3.46,0,1,1,2.38,6.5c-23.52,8.62-43.22,22.18-52.66,36.29C883.25,805.68,879,815,874.8,824c-2.15,4.63-4.27,9.24-6.54,13.69l-.35.69C860.44,853,852,869.62,850.16,885.74c-.37,3.14-.75,6.26-1.16,9.38-.94,7.45-1.91,15.15-2.26,22.83-.31,6.76.32,10.47,1.89,11.32-.07-.08,3.9-.62,13.51-14.91,5.58-8.31,9.38-18.11,13.06-27.6,1.18-3,2.34-6,3.54-9,4.48-10.84,10.9-21.23,17.12-31.29,1.81-2.93,3.62-5.85,5.34-8.73,2.46-4.11,5.16-8.19,7.76-12.12,3.11-4.69,6.32-9.54,9.07-14.35a3.46,3.46,0,1,1,6,3.42c-2.85,5-6.15,10-9.31,14.75-2.56,3.88-5.21,7.88-7.59,11.86-1.75,2.9-3.57,5.85-5.4,8.83-6.07,9.82-12.35,20-16.59,30.26q-1.78,4.34-3.5,8.81c-3.81,9.85-7.76,20-13.67,28.83C859.77,930.31,853.45,936.14,848.41,936.14Zm.22-6.87h0Z"/><path class="cls-6" d="M871.86,942A9.78,9.78,0,0,1,866,940.2c-5.06-3.62-5.95-11.57-6.47-16.32l-.1-.79a3.46,3.46,0,1,1,6.87-.8l.1.82c.34,3.12,1.06,9.63,3.63,11.45a3.19,3.19,0,0,0,2.65.45c5.88-1,14.67-10.41,17.82-15,8.56-12.33,16.61-25.34,24.38-37.92,5.12-8.25,10.38-16.77,15.78-25.06,2.95-4.55,6.3-8.91,9.53-13.12a169.34,169.34,0,0,0,10.89-15.33,3.47,3.47,0,0,1,6,3.57,172.72,172.72,0,0,1-11.35,16c-3.15,4.13-6.41,8.36-9.22,12.69-5.33,8.22-10.6,16.71-15.68,24.92C913,898.41,904.89,911.5,896.23,924c-2.85,4.12-13.11,16.24-22.31,17.84A13.56,13.56,0,0,1,871.86,942Z"/><path class="cls-6" d="M898.54,942.65a13.07,13.07,0,0,1-1.53-.08c-4-.44-7.3-2.59-9.84-6.36a3.47,3.47,0,0,1,5.77-3.87c1.82,2.72,3.63,3.21,4.84,3.35,6.82.76,17.24-9.08,22.18-13.8l.76-.74c17-16.17,30.95-36.84,44.43-56.83,4.67-6.92,9.5-14.08,14.32-20.84a3.47,3.47,0,0,1,5.65,4c-4.78,6.68-9.57,13.8-14.23,20.68-13.69,20.31-27.85,41.29-45.39,58l-.76.72C918.5,932.87,908.27,942.65,898.54,942.65Z"/><path class="cls-6" d="M937.13,930.6a10.64,10.64,0,0,1-2.35-.26c-2.51-.6-5.85-2.4-7.47-7.75a3.47,3.47,0,0,1,6.65-2c.79,2.62,1.94,2.89,2.38,3,5.49,1.28,18.86-9.54,26.06-17.25,3-3.22,6.25-6.35,9.42-9.38,5.67-5.46,11.55-11.1,16-17.28,4.61-6.47,8.07-14.87,11.43-23,1.07-2.59,2.12-5.13,3.19-7.54.66-1.49,1.34-3,2-4.41,3-6.32,5.58-11.79,4.22-18.29a3.46,3.46,0,1,1,6.77-1.44c1.85,8.79-1.51,15.86-4.74,22.7-.65,1.37-1.32,2.78-1.94,4.23-1,2.37-2.08,4.86-3.1,7.4-3.52,8.48-7.14,17.25-12.21,24.35-4.77,6.71-10.89,12.58-16.8,18.26-3.24,3.1-6.3,6-9.16,9.11C965.48,913.18,948.86,930.6,937.13,930.6Z"/><path class="cls-6" d="M1004.62,812.81h-.06a3.45,3.45,0,0,1-3.39-3.53c.06-3.29-1.65-6.1-3.64-9.38-.78-1.31-1.59-2.65-2.32-4-10.53-20.51-26.63-28.33-47.51-33.76a3.47,3.47,0,0,1,1.76-6.71c19.63,5.11,39.49,13.17,51.93,37.31.63,1.23,1.35,2.43,2.07,3.6,2.23,3.65,4.73,7.81,4.64,13.11A3.48,3.48,0,0,1,1004.62,812.81Z"/><path class="cls-6" d="M826.59,927.57c-4.53,0-9-1-11.93-3.8-2.21-2.09-4.36-6-2.17-12.51,2-5.79,7.06-10.25,11.55-14.16,1.63-1.45,3.21-2.83,4.53-4.19a123.37,123.37,0,0,0,16.79-21.55A3.48,3.48,0,0,1,851.3,875a133.72,133.72,0,0,1-17.73,22.72c-1.44,1.5-3.19,3-5,4.59-4,3.51-8.15,7.15-9.5,11.18-1.27,3.74-.06,4.88.35,5.26,2.74,2.6,11.06,2.28,16.13.3a3.45,3.45,0,1,1,2.54,6.42A32.77,32.77,0,0,1,826.59,927.57Z"/><path class="cls-6" d="M960.29,937.74H960a3.47,3.47,0,0,1,.06-6.93h.28c22.88,0,46.69-34.41,49-55.36.62-5.65-.79-10.33-2.42-15.75-.81-2.65-1.63-5.42-2.26-8.43a3.46,3.46,0,0,1,6.78-1.41c.56,2.73,1.34,5.34,2.1,7.85,1.71,5.63,3.45,11.44,2.69,18.5C1013.56,900.08,987,937.74,960.29,937.74Z"/><path class="cls-6" d="M1013.72,934.82a3.43,3.43,0,0,1-2.2-.78,3.48,3.48,0,0,1-.5-4.88c19.47-23.91,18.43-51-2.92-76.41a3.46,3.46,0,1,1,5.29-4.45c23.4,27.78,24.49,58.85,3,85.24A3.46,3.46,0,0,1,1013.72,934.82Z"/><path class="cls-6" d="M245.49,949.71h0l-88.65-.79a3.47,3.47,0,0,1,0-6.93h0l88.67.79a3.47,3.47,0,0,1,0,6.93Z"/><path class="cls-6" d="M1178.62,957.91h0l-269.28-2.37a3.46,3.46,0,0,1,0-6.92h1.79L1178.65,951a3.47,3.47,0,0,1,0,6.93Z"/><path class="cls-6" d="M1575.92,959.57h-.19L1334,959.23c-11.76,0-21.17-1.59-21-3.5s9.6-3.44,21.18-3.44h.19l241.71.35c11.74,0,21.18,1.58,21.08,3.49S1587.59,959.57,1575.92,959.57Z"/><path class="cls-6" d="M929.68,1184.14a3.67,3.67,0,0,1-1-.14L153.5,958.21a3.47,3.47,0,1,1,1.95-6.65l775.2,225.79a3.47,3.47,0,0,1-1,6.79Z"/><path class="cls-6" d="M744.55,1204.43a3.37,3.37,0,0,1-1.16-.2L148.06,1025.81a3.47,3.47,0,0,1,2.29-6.56L745.67,1197.7a3.46,3.46,0,0,1-1.12,6.73Z"/><path class="cls-6" d="M149.77,1024.33h-.16a3.44,3.44,0,0,1-3.29-3.62l3.14-66a3.39,3.39,0,0,1,3.62-3.29,3.48,3.48,0,0,1,3.29,3.63l-3.15,66A3.44,3.44,0,0,1,149.77,1024.33Z"/><path class="cls-6" d="M85.16,1104.78a3.7,3.7,0,0,1-3.38-3.24c-9.38-47.93-10.67-98.2-11.89-146.8-.31-12-.63-24.06-1-36-1.81-50.62-4.41-110.3-10.05-169-.23-2.55-.49-5.41-.76-8.48-2.79-31.68-8-90.7-34.21-97.13-3.36-.8-5.77-.44-7.37,1.15-3.6,3.63-3.6,14.23-3.6,19.34,0,2.34-1.54,4.22-3.46,4.22S5.93,667,5.93,664.63c0-10.24.73-20.46,6.12-25.87,3.27-3.29,7.69-4.24,13.12-2.92C56.41,643.49,62,706.51,64.92,740.37c.26,3,.52,5.86.76,8.39,5.67,59,8.29,118.82,10.07,169.62.44,12,.75,24,1,36.09,1.24,48.17,2.5,98,11.72,145.07.44,2.28-.69,4.56-2.55,5.12A3,3,0,0,1,85.16,1104.78Z"/><path class="cls-6" d="M50.51,1000.94a3.45,3.45,0,0,1-3.39-2.86c-1.74-9.53-3.07-18.81-4.34-27.77L42.45,968c-3.56-25-4.57-53.58-5.62-83.88C34.54,818.9,32,745,5,663.56a3.46,3.46,0,0,1,2.21-4.38,3.41,3.41,0,0,1,4.35,2.19C38.87,743.75,41.46,818.2,43.75,883.89c1,30.11,2,58.54,5.57,83.14l.31,2.29c1.28,8.91,2.6,18.11,4.3,27.52a3.46,3.46,0,0,1-2.8,4A3.1,3.1,0,0,1,50.51,1000.94Z"/><path class="cls-6" d="M4.36,660.21A3.45,3.45,0,0,1,1,657.5c-5.13-23,10.34-50.76,32.47-58.13C58.57,591,85.13,589.5,110.81,588c21.21-1.2,43.16-2.43,63.83-7.61a3.47,3.47,0,0,1,1.68,6.73c-21.31,5.32-43.58,6.58-65.13,7.81-25.21,1.43-51.31,2.9-75.55,11-19,6.33-32.3,30.19-27.9,50a3.47,3.47,0,0,1-2.63,4.14A3.82,3.82,0,0,1,4.36,660.21Z"/><path class="cls-6" d="M1253,818.11c-30.91,0-89.34-4.31-89.34-20.59s58.43-20.58,89.34-20.58,89.33,4.3,89.33,20.58S1283.87,818.11,1253,818.11Zm0-34.23c-54.37,0-82.41,9.56-82.41,13.64s28,13.66,82.41,13.66,82.4-9.57,82.4-13.66S1307.33,783.88,1253,783.88Z"/><path class="cls-6" d="M1251.16,1032.68c-23.18,0-62.69-3.61-63.79-17.16a3.46,3.46,0,0,1,6.9-.57c.28,3.24,20,10.79,56.89,10.79,30.42,0,52.68-5.23,56.63-10.31a3.46,3.46,0,0,1,5.47,4.24C1306.26,1028.66,1277,1032.68,1251.16,1032.68Z"/><path class="cls-6" d="M1311.5,1018.88a1.91,1.91,0,0,1-.47,0,3.45,3.45,0,0,1-3-3.87c.24-1.93,25.08-193.44,27.18-216.05a3.52,3.52,0,0,1,3.77-3.13,3.44,3.44,0,0,1,3.13,3.77c-2.1,22.74-27,214.36-27.21,216.31A3.47,3.47,0,0,1,1311.5,1018.88Z"/><path class="cls-6" d="M1173.68,794.41a3.45,3.45,0,0,1-1.49-6.58c5.27-2.53,13-4.71,23-6.5a3.47,3.47,0,1,1,1.19,6.83c-9.26,1.64-16.62,3.68-21.26,5.91A3.51,3.51,0,0,1,1173.68,794.41Z"/><path class="cls-6" d="M1191.07,1017.68a3.45,3.45,0,0,1-3.42-3.07c-.22-1.93-22.11-192.83-23.9-215.18a3.47,3.47,0,0,1,3.19-3.73,3.58,3.58,0,0,1,3.71,3.18c1.79,22.23,23.65,213,23.87,215a3.43,3.43,0,0,1-3,3.82A2.63,2.63,0,0,1,1191.07,1017.68Z"/><path class="cls-6" d="M1182.23,949.61a1.51,1.51,0,0,1-.3,0c-6.29-.51-17.71-15.55-22.32-22-18.67-26.06-36.2-63.68-29.38-91.17,4-16,11.7-19.8,17.48-20.21,10.81-.68,22.26,10.71,26.85,22.22a3.47,3.47,0,0,1-6.44,2.57c-4-10.16-13.21-18.41-19.94-17.88-6.32.44-9.61,8.39-11.24,15-9.94,40.09,38.45,102.36,45.76,104.61a3.39,3.39,0,0,1,3.08,3.73A3.55,3.55,0,0,1,1182.23,949.61Z"/><path class="cls-6" d="M1178.84,924a3.31,3.31,0,0,1-2-.62c-6.19-4.24-36.7-34.4-32.72-74.95.69-7.21,3.28-11.2,7.66-11.82,9.81-1.31,22,18.09,23.27,21.28a3.47,3.47,0,0,1-1.95,4.5,3.43,3.43,0,0,1-4.48-1.93c-1.87-4.63-12.28-17.36-15.86-17-.2,0-1.31,1.11-1.75,5.63-4,40.94,29.41,68.35,29.76,68.59a3.45,3.45,0,0,1-2,6.3Z"/><path class="cls-6" d="M555.16,228.52a3.39,3.39,0,0,1-2.73-1.35,3.46,3.46,0,0,1,.62-4.86c15.63-12.12,30.4-15.32,46-18.72,6.54-1.43,13.32-2.88,20.42-5.08,16.09-5,33.74-15.32,48.45-28.46,11-9.82,20.51-21.55,29.71-32.87,7.1-8.75,14.45-17.82,22.5-26.05.94-1,2-2.1,3.08-3.34,6.4-7.11,15.15-16.87,25.41-14.05A3.5,3.5,0,0,1,751.09,98a3.44,3.44,0,0,1-4.27,2.41c-6.15-1.66-13.23,6.23-18.44,12-1.2,1.33-2.29,2.55-3.29,3.56-7.82,8-15.06,16.93-22.05,25.56C693.66,153.08,684,165,672.55,175.21c-15.43,13.78-34,24.68-51,29.92-7.37,2.27-14.3,3.77-21,5.23-15.49,3.36-28.86,6.26-43.25,17.43A3.42,3.42,0,0,1,555.16,228.52Z"/><path class="cls-6" d="M1006.75,1011.59h0l-625.9-3.12a3.62,3.62,0,0,1-1.12-.2l-144.3-50a3.49,3.49,0,0,1-2.32-3.67l1.94-17.2a3.46,3.46,0,1,1,6.87.75l-1.61,14.47,141.13,48.88,621.92,3.1.19-11.61a3.63,3.63,0,0,1,3.53-3.41,3.47,3.47,0,0,1,3.41,3.52l-.26,15.06A3.47,3.47,0,0,1,1006.75,1011.59Z"/></g></g></svg>