<svg xmlns="http://www.w3.org/2000/svg" xmlns:xlink="http://www.w3.org/1999/xlink" viewBox="0 0 454.63 456.12"><defs><style>.cls-1{isolation:isolate;}.cls-2,.cls-3,.cls-65{fill:#1ed6fe;}.cls-2,.cls-48,.cls-79,.cls-80,.cls-81,.cls-82,.cls-83,.cls-84,.cls-85,.cls-86,.cls-87,.cls-88,.cls-89,.cls-90,.cls-91,.cls-92,.cls-93,.cls-94,.cls-95,.cls-96{opacity:0.3;}.cls-2,.cls-3{mix-blend-mode:color-dodge;}.cls-4{fill:#00258a;opacity:0.4;}.cls-5{fill:url(#linear-gradient);}.cls-6{fill:url(#linear-gradient-2);}.cls-7{fill:#231f20;}.cls-44,.cls-45,.cls-48,.cls-49,.cls-50,.cls-7{fill-rule:evenodd;}.cls-8{fill:#505254;}.cls-9{fill:url(#linear-gradient-3);}.cls-10{fill:url(#linear-gradient-4);}.cls-11{fill:url(#linear-gradient-5);}.cls-12{fill:url(#linear-gradient-6);}.cls-13{fill:#0a208f;}.cls-14{fill:url(#linear-gradient-7);}.cls-15{fill:url(#linear-gradient-8);}.cls-16{fill:url(#linear-gradient-9);}.cls-17{fill:url(#linear-gradient-10);}.cls-18{fill:#797a7d;}.cls-19{fill:url(#linear-gradient-11);}.cls-20{fill:url(#linear-gradient-12);}.cls-21{fill:url(#linear-gradient-13);}.cls-22{fill:url(#linear-gradient-14);}.cls-23{fill:url(#linear-gradient-15);}.cls-24{fill:url(#linear-gradient-16);}.cls-25{fill:#e1e8ec;}.cls-26{fill:#6392ad;}.cls-27{fill:#95c4df;}.cls-28{fill:#d4dbdf;}.cls-29{fill:url(#linear-gradient-17);}.cls-30{fill:url(#linear-gradient-18);}.cls-31{fill:url(#linear-gradient-19);}.cls-32{fill:#e8ebe8;}.cls-33{fill:url(#linear-gradient-20);}.cls-34,.cls-37{opacity:0.2;}.cls-34,.cls-37,.cls-43,.cls-48{mix-blend-mode:multiply;}.cls-35{fill:url(#linear-gradient-21);}.cls-36{fill:url(#linear-gradient-22);}.cls-37{fill:url(#linear-gradient-23);}.cls-38{fill:url(#linear-gradient-24);}.cls-39,.cls-47,.cls-68{fill:#fff;}.cls-39{opacity:0.61;}.cls-40{fill:url(#linear-gradient-25);}.cls-41{fill:#523602;}.cls-42{opacity:0.22;fill:url(#_2);}.cls-42,.cls-79,.cls-80,.cls-81,.cls-82,.cls-83,.cls-84,.cls-85,.cls-86,.cls-87,.cls-88,.cls-89,.cls-90,.cls-91,.cls-92,.cls-93,.cls-94,.cls-95,.cls-96{mix-blend-mode:screen;}.cls-43{opacity:0.15;}.cls-44{fill:#ffcda8;}.cls-45{fill:#d9a782;}.cls-46{fill:#414e52;}.cls-47{opacity:0.5;}.cls-48{fill:#563317;}.cls-49{fill:#a08128;}.cls-50{fill:#856c24;}.cls-51{fill:url(#linear-gradient-26);}.cls-52{fill:url(#linear-gradient-27);}.cls-53{fill:url(#linear-gradient-28);}.cls-54{fill:url(#linear-gradient-29);}.cls-55{fill:url(#linear-gradient-30);}.cls-56{fill:url(#linear-gradient-31);}.cls-57{fill:url(#linear-gradient-32);}.cls-58{fill:#444343;}.cls-59{fill:url(#linear-gradient-33);}.cls-60{fill:#a9d0e5;}.cls-61{fill:#f07;}.cls-62{fill:#73bde5;}.cls-63{fill:#07b3fa;}.cls-64{fill:#097abe;}.cls-66{fill:url(#linear-gradient-34);}.cls-67{fill:url(#linear-gradient-35);}.cls-69{fill:url(#linear-gradient-36);}.cls-70{fill:url(#linear-gradient-37);}.cls-71{fill:url(#linear-gradient-38);}.cls-72{fill:url(#linear-gradient-39);}.cls-73{fill:url(#linear-gradient-40);}.cls-74{fill:url(#linear-gradient-41);}.cls-75{fill:url(#linear-gradient-42);}.cls-76{fill:url(#linear-gradient-43);}.cls-77{fill:url(#linear-gradient-44);}.cls-78{fill:url(#linear-gradient-45);}.cls-79{fill:url(#linear-gradient-46);}.cls-80{fill:url(#linear-gradient-47);}.cls-81{fill:url(#linear-gradient-48);}.cls-82{fill:url(#linear-gradient-49);}.cls-83{fill:url(#linear-gradient-50);}.cls-84{fill:url(#linear-gradient-51);}.cls-85{fill:url(#linear-gradient-52);}.cls-86{fill:url(#linear-gradient-53);}.cls-87{fill:url(#linear-gradient-54);}.cls-88{fill:url(#linear-gradient-55);}.cls-89{fill:url(#linear-gradient-56);}.cls-90{fill:url(#linear-gradient-57);}.cls-91{fill:url(#linear-gradient-58);}.cls-92{fill:url(#linear-gradient-59);}.cls-93{fill:url(#linear-gradient-60);}.cls-94{fill:url(#linear-gradient-61);}.cls-95{fill:url(#linear-gradient-62);}.cls-96{fill:url(#linear-gradient-63);}.cls-97{fill:url(#linear-gradient-64);}.cls-98{fill:url(#linear-gradient-65);}.cls-99{fill:url(#linear-gradient-66);}.cls-100{fill:url(#linear-gradient-67);}.cls-101{fill:url(#linear-gradient-68);}.cls-102{fill:url(#linear-gradient-69);}.cls-103{fill:url(#linear-gradient-70);}.cls-104{fill:url(#linear-gradient-71);}</style><linearGradient id="linear-gradient" x1="298.56" y1="360.34" x2="306.79" y2="346.88" gradientUnits="userSpaceOnUse"><stop offset="0" stop-color="#328de0"/><stop offset="1" stop-color="#172d9c"/></linearGradient><linearGradient id="linear-gradient-2" x1="259.52" y1="501.66" x2="340.65" y2="260.63" xlink:href="#linear-gradient"/><linearGradient id="linear-gradient-3" x1="106.91" y1="438.54" x2="101.73" y2="447.5" xlink:href="#linear-gradient"/><linearGradient id="linear-gradient-4" x1="173.49" y1="434.35" x2="168.31" y2="443.31" xlink:href="#linear-gradient"/><linearGradient id="linear-gradient-5" x1="184.49" y1="394.37" x2="179.32" y2="403.33" xlink:href="#linear-gradient"/><linearGradient id="linear-gradient-6" x1="77.02" y1="404.59" x2="71.85" y2="413.56" xlink:href="#linear-gradient"/><linearGradient id="linear-gradient-7" x1="133.63" y1="414.32" x2="174.52" y2="414.32" xlink:href="#linear-gradient"/><linearGradient id="linear-gradient-8" x1="101.09" y1="416.93" x2="129.11" y2="416.93" xlink:href="#linear-gradient"/><linearGradient id="linear-gradient-9" x1="139.01" y1="391.45" x2="186.34" y2="391.45" xlink:href="#linear-gradient"/><linearGradient id="linear-gradient-10" x1="69.45" y1="397.2" x2="122.83" y2="397.2" xlink:href="#linear-gradient"/><linearGradient id="linear-gradient-11" x1="73.17" y1="350.96" x2="192.81" y2="350.96" xlink:href="#linear-gradient"/><linearGradient id="linear-gradient-12" x1="172.3" y1="343.96" x2="83.57" y2="381.32" xlink:href="#linear-gradient"/><linearGradient id="linear-gradient-13" x1="119.71" y1="323.61" x2="150.68" y2="371.85" xlink:href="#linear-gradient"/><linearGradient id="linear-gradient-14" x1="197.17" y1="221.26" x2="399.21" y2="595.73" xlink:href="#linear-gradient"/><linearGradient id="linear-gradient-15" x1="204.19" y1="423.51" x2="371.73" y2="242.94" gradientUnits="userSpaceOnUse"><stop offset="0" stop-color="#2580d3"/><stop offset="1" stop-color="#0a208f"/></linearGradient><linearGradient id="linear-gradient-16" x1="148.61" y1="402.17" x2="169.11" y2="248.28" xlink:href="#linear-gradient-15"/><linearGradient id="linear-gradient-17" x1="188.02" y1="203.5" x2="156.64" y2="254.08" xlink:href="#linear-gradient-15"/><linearGradient id="linear-gradient-18" x1="194.91" y1="207.78" x2="164.15" y2="257.36" xlink:href="#linear-gradient"/><linearGradient id="linear-gradient-19" x1="195.3" y1="207.22" x2="168.35" y2="253.55" gradientUnits="userSpaceOnUse"><stop offset="0" stop-color="#1873c6"/><stop offset="1" stop-color="#001382"/></linearGradient><linearGradient id="linear-gradient-20" x1="310.19" y1="284.2" x2="310.19" y2="270.71" gradientUnits="userSpaceOnUse"><stop offset="0" stop-color="#66c1ff"/><stop offset="1" stop-color="#d4dbdf"/></linearGradient><linearGradient id="linear-gradient-21" x1="307.94" y1="282.98" x2="307.94" y2="282.98" gradientUnits="userSpaceOnUse"><stop offset="0" stop-color="#dadada"/><stop offset="0.03" stop-color="#232323"/><stop offset="0.12" stop-color="#616161"/><stop offset="0.22" stop-color="#999"/><stop offset="0.31" stop-color="#c5c5c5"/><stop offset="0.39" stop-color="#e5e5e5"/><stop offset="0.45" stop-color="#f8f8f8"/><stop offset="0.5" stop-color="#fff"/><stop offset="0.9" stop-color="#c1c1c1"/><stop offset="1" stop-color="#8c8c8c"/></linearGradient><linearGradient id="linear-gradient-22" x1="307.94" y1="279.46" x2="313.52" y2="279.46" xlink:href="#linear-gradient-21"/><linearGradient id="linear-gradient-23" x1="312.16" y1="274.88" x2="309.03" y2="284.43" xlink:href="#linear-gradient-21"/><linearGradient id="linear-gradient-24" x1="308.99" y1="281.08" x2="289.46" y2="281.08" xlink:href="#linear-gradient-20"/><linearGradient id="linear-gradient-25" x1="308.78" y1="271.96" x2="290.59" y2="271.96" xlink:href="#linear-gradient-20"/><linearGradient id="_2" x1="308.78" y1="271.93" x2="286.15" y2="271.93" gradientUnits="userSpaceOnUse"><stop offset="0" stop-color="#fff"/><stop offset="1"/></linearGradient><linearGradient id="linear-gradient-26" x1="66.72" y1="302.88" x2="112.74" y2="336.45" xlink:href="#linear-gradient"/><linearGradient id="linear-gradient-27" x1="89.48" y1="292.74" x2="101.09" y2="306.67" xlink:href="#linear-gradient"/><linearGradient id="linear-gradient-28" x1="56.76" y1="325.54" x2="125.8" y2="325.54" xlink:href="#linear-gradient"/><linearGradient id="linear-gradient-29" x1="94.4" y1="357.45" x2="94.4" y2="385.53" xlink:href="#linear-gradient-15"/><linearGradient id="linear-gradient-30" x1="90.63" y1="373.06" x2="86.94" y2="379.46" xlink:href="#linear-gradient"/><linearGradient id="linear-gradient-31" x1="157.11" y1="330.84" x2="154.08" y2="374.57" xlink:href="#linear-gradient"/><linearGradient id="linear-gradient-32" x1="219.72" y1="296.91" x2="284.76" y2="296.91" xlink:href="#linear-gradient"/><linearGradient id="linear-gradient-33" x1="243.85" y1="88.72" x2="243.85" y2="235.76" gradientUnits="userSpaceOnUse"><stop offset="0" stop-color="#258feb"/><stop offset="1" stop-color="#030b30"/></linearGradient><linearGradient id="linear-gradient-34" x1="893.57" y1="171.48" x2="900.12" y2="259.44" gradientTransform="matrix(-1, 0, 0, 1, 1232.09, 0)" gradientUnits="userSpaceOnUse"><stop offset="0" stop-color="#c100ff"/><stop offset="1" stop-color="#6e00ff"/></linearGradient><linearGradient id="linear-gradient-35" x1="890.25" y1="199.89" x2="881.78" y2="216.83" gradientTransform="matrix(-1, 0, 0, 1, 1232.09, 0)" gradientUnits="userSpaceOnUse"><stop offset="0" stop-color="#f532ff"/><stop offset="1" stop-color="#a232ff"/></linearGradient><linearGradient id="linear-gradient-36" x1="952.33" y1="20.9" x2="958.89" y2="108.86" gradientTransform="matrix(-1, 0, 0, 1, 1232.09, 0)" gradientUnits="userSpaceOnUse"><stop offset="0" stop-color="#ffe71f"/><stop offset="1" stop-color="#ff8602"/></linearGradient><linearGradient id="linear-gradient-37" x1="949.02" y1="49.31" x2="940.55" y2="66.25" gradientTransform="matrix(-1, 0, 0, 1, 1232.09, 0)" gradientUnits="userSpaceOnUse"><stop offset="0" stop-color="#fff78c"/><stop offset="1" stop-color="#e76008"/></linearGradient><linearGradient id="linear-gradient-38" x1="1013.47" y1="43.11" x2="1020.02" y2="131.07" xlink:href="#linear-gradient-34"/><linearGradient id="linear-gradient-39" x1="1010.15" y1="71.52" x2="1001.68" y2="88.46" xlink:href="#linear-gradient-35"/><linearGradient id="linear-gradient-40" x1="1098.33" y1="49.63" x2="1104.88" y2="137.59" gradientTransform="matrix(-1, 0, 0, 1, 1232.09, 0)" gradientUnits="userSpaceOnUse"><stop offset="0" stop-color="#00c855"/><stop offset="1" stop-color="#009ec8"/></linearGradient><linearGradient id="linear-gradient-41" x1="1095.01" y1="78.04" x2="1086.54" y2="94.98" gradientTransform="matrix(-1, 0, 0, 1, 1232.09, 0)" gradientUnits="userSpaceOnUse"><stop offset="0" stop-color="#38f687"/><stop offset="1" stop-color="#76eaff"/></linearGradient><linearGradient id="linear-gradient-42" x1="835.93" y1="225.5" x2="842.49" y2="313.46" gradientTransform="matrix(-1, 0, 0, 1, 1232.09, 0)" gradientUnits="userSpaceOnUse"><stop offset="0" stop-color="#2962ff"/><stop offset="1" stop-color="#29ffee"/></linearGradient><linearGradient id="linear-gradient-43" x1="832.61" y1="253.91" x2="824.15" y2="270.85" gradientTransform="matrix(-1, 0, 0, 1, 1232.09, 0)" gradientUnits="userSpaceOnUse"><stop offset="0" stop-color="#6d99fe"/><stop offset="1" stop-color="#98fffe"/></linearGradient><linearGradient id="linear-gradient-44" x1="1174.56" y1="110.62" x2="1181.11" y2="198.58" xlink:href="#linear-gradient-36"/><linearGradient id="linear-gradient-45" x1="1171.24" y1="139.03" x2="1162.77" y2="155.97" xlink:href="#linear-gradient-37"/><linearGradient id="linear-gradient-46" x1="1196.11" y1="182.26" x2="1200" y2="234.41" gradientTransform="matrix(-1, 0, 0, 1, 1232.09, 0)" gradientUnits="userSpaceOnUse"><stop offset="0" stop-color="#a9d0e5"/><stop offset="1"/></linearGradient><linearGradient id="linear-gradient-47" x1="1105.31" y1="139.55" x2="1107.36" y2="166.95" xlink:href="#linear-gradient-46"/><linearGradient id="linear-gradient-48" x1="1208.36" y1="78.25" x2="1210.41" y2="105.65" xlink:href="#linear-gradient-46"/><linearGradient id="linear-gradient-49" x1="1100.83" y1="13.61" x2="1102.87" y2="41" xlink:href="#linear-gradient-46"/><linearGradient id="linear-gradient-50" x1="1047.56" y1="-3.71" x2="1049.6" y2="23.69" xlink:href="#linear-gradient-46"/><linearGradient id="linear-gradient-51" x1="871.81" y1="78.25" x2="873.85" y2="105.65" xlink:href="#linear-gradient-46"/><linearGradient id="linear-gradient-52" x1="825.8" y1="77.23" x2="827.85" y2="104.63" xlink:href="#linear-gradient-46"/><linearGradient id="linear-gradient-53" x1="860.18" y1="35.92" x2="862.23" y2="63.31" xlink:href="#linear-gradient-46"/><linearGradient id="linear-gradient-54" x1="926.89" y1="138.18" x2="928.93" y2="165.58" xlink:href="#linear-gradient-46"/><linearGradient id="linear-gradient-55" x1="787.81" y1="171.42" x2="789.95" y2="200.16" xlink:href="#linear-gradient-46"/><linearGradient id="linear-gradient-56" x1="1218.85" y1="129.92" x2="1222.74" y2="182.07" xlink:href="#linear-gradient-46"/><linearGradient id="linear-gradient-57" x1="1063.44" y1="13.74" x2="1067.32" y2="65.89" xlink:href="#linear-gradient-46"/><linearGradient id="linear-gradient-58" x1="786.97" y1="241.46" x2="790.86" y2="293.61" xlink:href="#linear-gradient-46"/><linearGradient id="linear-gradient-59" x1="856.39" y1="348.77" x2="860.28" y2="400.92" xlink:href="#linear-gradient-46"/><linearGradient id="linear-gradient-60" x1="841.32" y1="106.72" x2="845.2" y2="158.87" xlink:href="#linear-gradient-46"/><linearGradient id="linear-gradient-61" x1="954.63" y1="90.78" x2="958.51" y2="142.93" xlink:href="#linear-gradient-46"/><linearGradient id="linear-gradient-62" x1="899.73" y1="19.66" x2="903.62" y2="71.81" xlink:href="#linear-gradient-46"/><linearGradient id="linear-gradient-63" x1="990.73" y1="1.76" x2="994.62" y2="53.91" xlink:href="#linear-gradient-46"/><linearGradient id="linear-gradient-64" x1="833.56" y1="149.38" x2="840.12" y2="237.34" gradientTransform="matrix(-1, 0, 0, 1, 1232.09, 0)" gradientUnits="userSpaceOnUse"><stop offset="0" stop-color="#fdb441"/><stop offset="1" stop-color="#ff20b3"/></linearGradient><linearGradient id="linear-gradient-65" x1="830.25" y1="177.79" x2="821.78" y2="194.72" gradientTransform="matrix(-1, 0, 0, 1, 1232.09, 0)" gradientUnits="userSpaceOnUse"><stop offset="0" stop-color="#ffce6d"/><stop offset="1" stop-color="#ca1b77"/></linearGradient><linearGradient id="linear-gradient-66" x1="891.58" y1="79.02" x2="898.14" y2="166.98" xlink:href="#linear-gradient-40"/><linearGradient id="linear-gradient-67" x1="888.26" y1="107.42" x2="879.8" y2="124.36" xlink:href="#linear-gradient-41"/><linearGradient id="linear-gradient-68" x1="841.33" y1="294.25" x2="847.89" y2="382.21" gradientTransform="matrix(-1, 0, 0, 1, 1232.09, 0)" gradientUnits="userSpaceOnUse"><stop offset="0" stop-color="#a9fb00"/><stop offset="1" stop-color="#12de13"/></linearGradient><linearGradient id="linear-gradient-69" x1="838.02" y1="322.66" x2="829.55" y2="339.59" gradientTransform="matrix(-1, 0, 0, 1, 1232.09, 0)" gradientUnits="userSpaceOnUse"><stop offset="0" stop-color="#d9ff89"/><stop offset="1" stop-color="#25ff26"/></linearGradient><linearGradient id="linear-gradient-70" x1="1162.39" y1="23.74" x2="1168.95" y2="111.7" xlink:href="#linear-gradient-42"/><linearGradient id="linear-gradient-71" x1="1159.08" y1="52.15" x2="1150.61" y2="69.09" xlink:href="#linear-gradient-43"/></defs><title>Asset 3</title><g class="cls-1"><g id="Layer_2" data-name="Layer 2"><g id="_14_" data-name=" 14 ()"><path class="cls-2" d="M414,56.86a5.4,5.4,0,1,1-5.41-5.39A5.4,5.4,0,0,1,414,56.86Z"/><path class="cls-2" d="M412,56.86a3.46,3.46,0,1,1-3.47-3.45A3.47,3.47,0,0,1,412,56.86Z"/><path class="cls-3" d="M410.85,56.86a2.3,2.3,0,1,1-2.31-2.3A2.3,2.3,0,0,1,410.85,56.86Z"/><path class="cls-2" d="M16.77,35.64a5.4,5.4,0,1,1-5.4-5.39A5.4,5.4,0,0,1,16.77,35.64Z"/><path class="cls-2" d="M14.83,35.64a3.46,3.46,0,1,1-3.46-3.45A3.46,3.46,0,0,1,14.83,35.64Z"/><path class="cls-3" d="M13.67,35.64a2.3,2.3,0,1,1-2.3-2.3A2.3,2.3,0,0,1,13.67,35.64Z"/><path class="cls-2" d="M86.74,12a3.2,3.2,0,1,1-3.2-3.2A3.21,3.21,0,0,1,86.74,12Z"/><path class="cls-2" d="M85.59,12a2.05,2.05,0,1,1-2-2A2.05,2.05,0,0,1,85.59,12Z"/><path class="cls-3" d="M84.9,12a1.37,1.37,0,0,1-2.73,0,1.37,1.37,0,1,1,2.73,0Z"/><path class="cls-2" d="M76.77,118.06a3.2,3.2,0,1,1-3.2-3.19A3.2,3.2,0,0,1,76.77,118.06Z"/><path class="cls-2" d="M75.62,118.06a2,2,0,1,1-2.05-2A2,2,0,0,1,75.62,118.06Z"/><path class="cls-3" d="M74.94,118.06a1.37,1.37,0,1,1-1.37-1.36A1.37,1.37,0,0,1,74.94,118.06Z"/><path class="cls-2" d="M20,212.15a3.2,3.2,0,1,1-3.2-3.2A3.2,3.2,0,0,1,20,212.15Z"/><path class="cls-2" d="M18.82,212.15a2.05,2.05,0,1,1-2.05-2.05A2.05,2.05,0,0,1,18.82,212.15Z"/><path class="cls-3" d="M18.13,212.15a1.36,1.36,0,1,1-1.36-1.36A1.37,1.37,0,0,1,18.13,212.15Z"/><path class="cls-2" d="M352.9,168.57a3.2,3.2,0,1,1-3.2-3.2A3.2,3.2,0,0,1,352.9,168.57Z"/><path class="cls-2" d="M351.76,168.57a2.05,2.05,0,1,1-2.06-2A2.06,2.06,0,0,1,351.76,168.57Z"/><path class="cls-3" d="M351.07,168.57a1.37,1.37,0,1,1-1.37-1.37A1.36,1.36,0,0,1,351.07,168.57Z"/><path class="cls-2" d="M362.5,24a3.2,3.2,0,1,1-3.2-3.2A3.2,3.2,0,0,1,362.5,24Z"/><path class="cls-2" d="M361.35,24A2.05,2.05,0,1,1,359.3,22,2,2,0,0,1,361.35,24Z"/><path class="cls-3" d="M360.66,24a1.36,1.36,0,1,1-1.36-1.37A1.36,1.36,0,0,1,360.66,24Z"/><path class="cls-2" d="M303.74,25.36a3.2,3.2,0,1,1-3.2-3.2A3.2,3.2,0,0,1,303.74,25.36Z"/><path class="cls-2" d="M302.59,25.36a2.05,2.05,0,1,1-2-2A2.05,2.05,0,0,1,302.59,25.36Z"/><path class="cls-3" d="M301.9,25.36A1.37,1.37,0,1,1,300.54,24,1.37,1.37,0,0,1,301.9,25.36Z"/><path class="cls-4" d="M347.17,385,172.34,284.16,76.16,340.38,121,366.26c-14,1.84-27.31,5.89-38.21,12.19C52,396.22,52,425,82.78,442.79s80.67,17.78,111.45,0c10.9-6.29,17.93-14,21.1-22.06L251,441.21Z"/><path class="cls-5" d="M343.09,286.13c0-5.34-3.79-7.52-8.41-4.85l-60.94,35.18v5.73l57.23-33c4.09-2.36,7.45-.43,7.45,4.31v72.33A16.57,16.57,0,0,1,331,378.7l-57.23,33v5.73l3.55,2.64,57.39-37.82c4.62-2.67,8.41-9.23,8.41-14.57Z"/><path class="cls-6" d="M346.65,288.77c0-5.34-3.79-7.52-8.41-4.85L277.29,319.1v5.73l57.23-33c4.1-2.36,7.45-.43,7.45,4.31v72.33a16.55,16.55,0,0,1-7.46,12.91l-57.23,33v5.73l60.95-35.18c4.62-2.67,8.41-9.23,8.41-14.57Z"/><path class="cls-7" d="M155.31,390.08l-.95,6.3s-.44,4.18,4.72,4.65,7-3,8.57-5.47,5.29-7.58,9.36-8.3S188.7,380,187,375.9c-1.45-3.54-10.16-4.8-18.73.87v2.28s0,5.63-4.72,8.06A30.31,30.31,0,0,1,155.31,390.08Z"/><path class="cls-8" d="M171.54,353.39c0-.33,0-.67,0-1-6.34,2.52-13.75,5.49-21.07,8.48L154.35,391s9.18,3.94,15.21-2.65a17.73,17.73,0,0,0,4.49-14.45S171.25,360.31,171.54,353.39Z"/><path class="cls-9" d="M108.7,439.4l-3.48-1.95a2.66,2.66,0,0,0-2.65.27,8.31,8.31,0,0,0-3.76,6.52,2.65,2.65,0,0,0,1.11,2.45l3.48,1.94a2.68,2.68,0,0,0,2.65-.27,8.31,8.31,0,0,0,3.76-6.52A2.62,2.62,0,0,0,108.7,439.4Z"/><path class="cls-10" d="M175.28,435.21l-3.48-1.94a2.63,2.63,0,0,0-2.65.27,8.31,8.31,0,0,0-3.77,6.51,2.64,2.64,0,0,0,1.12,2.45l3.48,1.94a2.62,2.62,0,0,0,2.64-.27,8.3,8.3,0,0,0,3.77-6.52A2.65,2.65,0,0,0,175.28,435.21Z"/><path class="cls-11" d="M186.28,395.23l-3.48-2a2.68,2.68,0,0,0-2.65.27,8.31,8.31,0,0,0-3.76,6.52,2.61,2.61,0,0,0,1.11,2.44l3.48,1.95a2.66,2.66,0,0,0,2.65-.27,8.31,8.31,0,0,0,3.76-6.52A2.63,2.63,0,0,0,186.28,395.23Z"/><path class="cls-12" d="M78.82,405.45l-3.48-1.95a2.68,2.68,0,0,0-2.65.27,8.34,8.34,0,0,0-3.77,6.53A2.64,2.64,0,0,0,70,412.74l3.47,1.94a2.63,2.63,0,0,0,2.65-.27,8.31,8.31,0,0,0,3.77-6.52A2.65,2.65,0,0,0,78.82,405.45Z"/><path class="cls-13" d="M187.61,388.91c-.14-2.67-1.17-4.1-2.06-4.65s-3.68,0-3.68,0L139,396.79V387c0-1.2-.79-2.39-2.37-3.3a12.61,12.61,0,0,0-11.44,0c-1.58.91-2.37,2.1-2.37,3.3v11.28l-50.78-4.62s-2.22.31-2.74,1.78a26.77,26.77,0,0,0-1.43,6.84c-.07,2.32.89,3.68,3.55,4,2.25.28,36.24,3.91,46.91,5.06h0c-5.66,6.48-17.25,20.22-17.25,20.22a9.33,9.33,0,0,0-1.3,4.1c-.13,2.33-.34,5.74-.34,5.74s.62,1.78,3.28,1.64,4.17-1.64,7.21-4.68,19.72-21.18,19.72-21.18l0-.05a12.89,12.89,0,0,0,6.23-.92,1.13,1.13,0,0,1,0,.12S165.22,434,169.9,436.5s6.49-.9,6.49-.9,0-3.48-.18-6a9.49,9.49,0,0,0-2-4.69s-22-13.51-27.45-16.46c-.41-.21-.79-.44-1.16-.67h0c8.73-2.49,30.88-8.8,34.05-9.72,4-1.16,7.93-2.81,7.93-2.81S187.74,391.57,187.61,388.91Z"/><path class="cls-14" d="M168.18,425c2.46,1.56,4.32,1.91,5.42,1.73a1.11,1.11,0,0,0,.79-1.63l-.16-.21s-22-13.51-27.45-16.46a22.41,22.41,0,0,1-7.77-6.6c-1.58,2.28-5.38,3.24-5.38,3.24,1.61,0,5.61,2.45,5.61,2.45S165.71,423.47,168.18,425Z"/><path class="cls-15" d="M129.11,405.38a12.66,12.66,0,0,0-2.81,2.41s-17.61,21-19,22.77a6.45,6.45,0,0,1-5,2.44,1.36,1.36,0,0,1-1.21-1.45s16.54-19.61,19.75-23a18.47,18.47,0,0,0,2-2.51v-5.17a9.72,9.72,0,0,0,2.86,2.95A21.37,21.37,0,0,0,129.11,405.38Z"/><path class="cls-16" d="M185.55,384.26c-.88-.55-3.68,0-3.68,0L139,396.79v2.08l44.21-12s2.43-.7,3.12-1.85A3.22,3.22,0,0,0,185.55,384.26Z"/><path class="cls-17" d="M69.45,395.14c.82,1.12,3,1.38,3,1.38l50.39,4.26v-2.54l-50.78-4.62A3.92,3.92,0,0,0,69.45,395.14Z"/><path class="cls-7" d="M216.86,396.54c-5.85.08-10.93,3-17.22-1,0,0-4.61,5.08-15.66,5.66l-1.84,4.24a19.8,19.8,0,0,0-1.54,8.25s2.15,5.07,9.06,4,8.71-3.28,17-2.49c7.27.69,17.88-2.91,20.8-9.49S223.31,396.46,216.86,396.54Z"/><path class="cls-18" d="M188.84,345.56A21.09,21.09,0,0,0,184.6,360c.61,8.83-2.87,41.76-4.91,50.37,0,0,17.13.89,24.45-3.52s4.5-8.63,4.5-8.63-1.65-11.72-.84-19.89,7-36.24,8.33-48.47c0,0,1.21-8.65-5.12-7.75S194.35,334,188.84,345.56Z"/><path class="cls-8" d="M192.34,356.69c-.31-9,2.42-13.59,2.42-13.59a20.1,20.1,0,0,1-5.92,2.46A21.09,21.09,0,0,0,184.6,360c.61,8.83-2.87,41.76-4.91,50.37a89.28,89.28,0,0,0,13.19-.44C194.35,392.67,192.6,364.08,192.34,356.69Z"/><path class="cls-19" d="M73.3,359.3s-1.38,6.77,4.85,12.7,21.09,15.62,31.09,17.54S139.72,386.7,150,382s33.71-19.32,37.71-22.7,5.7-7,4.85-10.28-7.39-5.42-9.55-6.12-22.55-10.46-28.78-15.24S142,318.58,140,316.35s-7.31-6-17.24-3.69-24.71,9.39-35.87,22.62S73.3,359.3,73.3,359.3Z"/><path class="cls-20" d="M192.6,349a5.32,5.32,0,0,0-2.15-2.72,3.62,3.62,0,0,1-.16,3.45c-1.85,2.54-14.86,11.85-24.86,17s-28.09,17-46.33,17.86a100.7,100.7,0,0,1-27.82-10.4c-10.75-5.84-15.37-13.62-17.14-17.62-.61,1.72-.84,2.7-.84,2.7s-1.38,6.77,4.85,12.7,21.09,15.62,31.09,17.54S139.72,386.7,150,382s33.71-19.32,37.71-22.7S193.45,352.28,192.6,349Z"/><path class="cls-21" d="M116.09,377.12s6.93,2,17.63-1,29.85-13.85,36.94-17.88,15.09-10.08,15.78-11.47-.63-2.15-2.89-3.08-23-9.69-28.82-14.39-15.16-11.54-16.63-13.16-6.77-4.7-14.46-2.46c0,0-27.63,9.39-36,26.63S103.85,375.17,116.09,377.12Z"/><path class="cls-18" d="M188.84,345.56S167,354.08,147.2,362.2c-18.94,7.78-30.14,4.47-37.66-3.77-10.09-11-5.55-35.25-5.55-35.25l44-3.61s38.63-7.18,53.69-7.62,15.09,12.17,14.47,17.89C216.13,329.84,210.8,339.32,188.84,345.56Z"/><path class="cls-8" d="M109.54,358.43c-10.09-11-5.55-35.25-5.55-35.25l44-3.61s12.29-2.28,25.71-4.35c.5-7.5-.52-21.7-13.72-21.22-16,.59-52,18.48-52,18.48l-13.68,3.68s-6.26,15.9-1,29.4c4.32,11.17,10,13.1,17.43,14.09C110.32,359.26,109.93,358.86,109.54,358.43Z"/><polygon class="cls-22" points="360.87 279.13 253.28 341.4 73.37 237.32 180.95 178.26 360.87 279.13"/><polygon class="cls-23" points="360.87 283.85 253.28 346.12 253.28 341.4 360.87 279.13 360.87 283.85"/><polygon class="cls-24" points="253.28 341.4 253.28 346.12 73.37 242.03 73.37 237.32 253.28 341.4"/><path class="cls-25" d="M219.79,291.59a2.14,2.14,0,0,1-1.91,0L140.61,247a.58.58,0,0,1,0-1.1l24.48-14.14a2.16,2.16,0,0,1,1.92,0l77.26,44.61a.59.59,0,0,1,0,1.11Z"/><path class="cls-26" d="M244.27,277.46l-24.48,14.13a2.14,2.14,0,0,1-1.91,0L140.61,247a.67.67,0,0,1-.39-.55h0v1.28a.67.67,0,0,0,.39.6l77.27,44.61a2.14,2.14,0,0,0,1.91,0l24.48-14.14a.68.68,0,0,0,.4-.55V277A.72.72,0,0,1,244.27,277.46Z"/><path class="cls-27" d="M160.93,239.68a.57.57,0,0,1-.48,0l-1.8-1a.14.14,0,0,1,0-.27l1.8-1a.51.51,0,0,1,.48,0l1.79,1c.14.07.14.2,0,.27Z"/><path class="cls-27" d="M164,241.47a.55.55,0,0,1-.47,0l-1.8-1a.14.14,0,0,1,0-.27l1.8-1a.49.49,0,0,1,.47,0l1.8,1a.14.14,0,0,1,0,.27Z"/><path class="cls-27" d="M167.12,243.26a.57.57,0,0,1-.48,0l-1.8-1a.15.15,0,0,1,0-.28l1.8-1a.51.51,0,0,1,.48,0l1.8,1a.15.15,0,0,1,0,.28Z"/><path class="cls-27" d="M170.22,245.05a.57.57,0,0,1-.48,0l-1.8-1a.15.15,0,0,1,0-.28l1.8-1a.57.57,0,0,1,.48,0l1.8,1a.15.15,0,0,1,0,.28Z"/><path class="cls-27" d="M173.32,246.84a.57.57,0,0,1-.48,0l-1.8-1c-.13-.08-.13-.21,0-.28l1.8-1a.57.57,0,0,1,.48,0l1.79,1c.14.07.14.2,0,.28Z"/><path class="cls-27" d="M176.41,248.62a.49.49,0,0,1-.47,0l-1.8-1a.14.14,0,0,1,0-.27l1.8-1a.49.49,0,0,1,.47,0l1.8,1a.14.14,0,0,1,0,.27Z"/><path class="cls-27" d="M179.51,250.41a.51.51,0,0,1-.48,0l-1.8-1a.14.14,0,0,1,0-.27l1.8-1a.51.51,0,0,1,.48,0l1.8,1a.14.14,0,0,1,0,.27Z"/><path class="cls-27" d="M182.61,252.2a.57.57,0,0,1-.48,0l-1.8-1a.15.15,0,0,1,0-.28l1.8-1a.51.51,0,0,1,.48,0l1.8,1a.15.15,0,0,1,0,.28Z"/><path class="cls-27" d="M185.71,254a.57.57,0,0,1-.48,0l-1.8-1a.15.15,0,0,1,0-.28l1.8-1a.57.57,0,0,1,.48,0l1.79,1c.14.08.14.2,0,.28Z"/><path class="cls-27" d="M188.8,255.78a.55.55,0,0,1-.47,0l-1.81-1a.15.15,0,0,1,0-.28l1.81-1a.55.55,0,0,1,.47,0l1.8,1a.15.15,0,0,1,0,.28Z"/><path class="cls-27" d="M191.9,257.56a.51.51,0,0,1-.48,0l-1.8-1a.15.15,0,0,1,0-.28l1.8-1a.57.57,0,0,1,.48,0l1.8,1a.15.15,0,0,1,0,.28Z"/><path class="cls-27" d="M223.37,275.73a.51.51,0,0,1-.48,0l-1.8-1c-.13-.08-.13-.21,0-.28l1.8-1a.57.57,0,0,1,.48,0l1.8,1c.13.07.13.2,0,.28Z"/><path class="cls-27" d="M226.46,277.52a.49.49,0,0,1-.47,0l-1.8-1a.14.14,0,0,1,0-.27l1.8-1a.49.49,0,0,1,.47,0l1.8,1a.14.14,0,0,1,0,.27Z"/><path class="cls-27" d="M229.56,279.31a.55.55,0,0,1-.47,0l-1.8-1c-.14-.08-.14-.2,0-.27l1.8-1a.49.49,0,0,1,.47,0l1.8,1c.13.07.13.19,0,.27Z"/><path class="cls-27" d="M232.66,281.1a.57.57,0,0,1-.48,0l-1.8-1a.15.15,0,0,1,0-.28l1.8-1a.51.51,0,0,1,.48,0l1.8,1a.15.15,0,0,1,0,.28Z"/><path class="cls-27" d="M220.22,277.55a.55.55,0,0,1-.47,0l-1.8-1a.15.15,0,0,1,0-.28l1.8-1a.49.49,0,0,1,.47,0l1.8,1c.14.08.14.2,0,.28Z"/><path class="cls-27" d="M223.32,279.34a.55.55,0,0,1-.47,0l-1.8-1c-.14-.08-.14-.21,0-.28l1.8-1a.55.55,0,0,1,.47,0l1.8,1c.13.07.13.2,0,.28Z"/><path class="cls-27" d="M226.42,281.12a.51.51,0,0,1-.48,0l-1.79-1c-.14-.07-.14-.19,0-.27l1.79-1a.51.51,0,0,1,.48,0l1.8,1c.13.08.13.2,0,.27Z"/><path class="cls-27" d="M217.08,279.36a.51.51,0,0,1-.48,0l-1.79-1c-.13-.08-.13-.2,0-.27l1.79-1a.51.51,0,0,1,.48,0l1.8,1c.13.07.13.19,0,.27Z"/><path class="cls-27" d="M220.18,281.15a.57.57,0,0,1-.48,0l-1.8-1c-.13-.07-.13-.2,0-.28l1.8-1a.51.51,0,0,1,.48,0l1.8,1c.13.08.13.21,0,.28Z"/><path class="cls-27" d="M223.28,282.94a.57.57,0,0,1-.48,0l-1.8-1a.15.15,0,0,1,0-.28l1.8-1a.51.51,0,0,1,.48,0l1.8,1a.15.15,0,0,1,0,.28Z"/><path class="cls-27" d="M226.37,284.73a.55.55,0,0,1-.47,0l-1.8-1a.15.15,0,0,1,0-.28l4.94-2.85a.51.51,0,0,1,.48,0l1.79,1a.14.14,0,0,1,0,.27Z"/><path class="cls-27" d="M213.94,281.18a.57.57,0,0,1-.48,0l-1.8-1a.15.15,0,0,1,0-.28l1.8-1a.57.57,0,0,1,.48,0l1.8,1a.15.15,0,0,1,0,.28Z"/><path class="cls-27" d="M217,283a.51.51,0,0,1-.48,0l-1.8-1a.14.14,0,0,1,0-.27l1.8-1a.51.51,0,0,1,.48,0l1.8,1c.13.07.13.2,0,.28Z"/><path class="cls-27" d="M220.14,284.75a.51.51,0,0,1-.48,0l-1.8-1a.14.14,0,0,1,0-.27l1.8-1a.51.51,0,0,1,.48,0l1.79,1c.14.07.14.2,0,.27Z"/><path class="cls-27" d="M213.83,284.74a.49.49,0,0,1-.47,0L208.52,282c-.13-.07-.13-.2,0-.28l1.8-1a.51.51,0,0,1,.48,0l4.83,2.79c.13.07.13.19,0,.27Z"/><path class="cls-27" d="M217,286.57a.55.55,0,0,1-.47,0l-1.8-1c-.14-.08-.14-.2,0-.28l1.8-1a.55.55,0,0,1,.47,0l1.8,1a.15.15,0,0,1,0,.28Z"/><path class="cls-27" d="M220.09,288.35a.51.51,0,0,1-.48,0l-1.8-1c-.13-.08-.13-.21,0-.28l4.95-2.85a.49.49,0,0,1,.47,0l1.8,1c.13.07.13.19,0,.27Z"/><path class="cls-27" d="M195,259.35a.51.51,0,0,1-.48,0l-1.8-1a.14.14,0,0,1,0-.27l1.8-1a.51.51,0,0,1,.48,0l1.8,1a.14.14,0,0,1,0,.27Z"/><path class="cls-27" d="M211.08,268.64a.49.49,0,0,1-.47,0l-1.8-1c-.14-.08-.14-.2,0-.27l1.8-1a.49.49,0,0,1,.47,0l1.8,1c.13.07.13.19,0,.27Z"/><path class="cls-27" d="M214.18,270.43a.51.51,0,0,1-.48,0l-1.8-1a.15.15,0,0,1,0-.28l1.8-1a.51.51,0,0,1,.48,0l1.8,1a.15.15,0,0,1,0,.28Z"/><path class="cls-27" d="M217.28,272.21a.51.51,0,0,1-.48,0l-1.8-1a.15.15,0,0,1,0-.28l1.8-1a.57.57,0,0,1,.48,0l1.8,1a.15.15,0,0,1,0,.28Z"/><path class="cls-27" d="M207.94,270.45a.51.51,0,0,1-.48,0l-1.8-1a.15.15,0,0,1,0-.28l1.8-1a.57.57,0,0,1,.48,0l1.8,1a.15.15,0,0,1,0,.28Z"/><path class="cls-27" d="M211,272.24a.51.51,0,0,1-.48,0l-1.8-1a.14.14,0,0,1,0-.27l1.8-1a.51.51,0,0,1,.48,0l1.8,1a.14.14,0,0,1,0,.27Z"/><path class="cls-27" d="M214.14,274a.51.51,0,0,1-.48,0l-1.8-1a.14.14,0,0,1,0-.27l1.8-1a.51.51,0,0,1,.48,0l1.79,1c.14.07.14.2,0,.27Z"/><path class="cls-27" d="M204.77,275.86a.51.51,0,0,1-.48,0l-1.79-1c-.14-.07-.14-.2,0-.27l1.79-1a.51.51,0,0,1,.48,0l1.8,1a.14.14,0,0,1,0,.27Z"/><path class="cls-27" d="M198.53,275.89a.57.57,0,0,1-.48,0l-1.79-1c-.14-.08-.14-.2,0-.28l1.79-1a.57.57,0,0,1,.48,0l1.8,1a.15.15,0,0,1,0,.28Z"/><path class="cls-27" d="M201.63,277.68a.57.57,0,0,1-.48,0l-1.8-1a.15.15,0,0,1,0-.28l1.8-1a.57.57,0,0,1,.48,0l1.8,1a.15.15,0,0,1,0,.28Z"/><path class="cls-27" d="M204.73,279.46a.51.51,0,0,1-.48,0l-1.8-1c-.13-.08-.13-.21,0-.28l1.8-1a.49.49,0,0,1,.47,0l1.81,1a.15.15,0,0,1,0,.28Z"/><path class="cls-27" d="M162.43,244.18a.57.57,0,0,1-.48,0l-1.8-1a.15.15,0,0,1,0-.28l1.8-1a.51.51,0,0,1,.48,0l1.8,1a.15.15,0,0,1,0,.28Z"/><path class="cls-27" d="M159.37,242.41a.49.49,0,0,1-.47,0l-3.39-1.95a.15.15,0,0,1,0-.28l1.8-1a.55.55,0,0,1,.47,0l3.39,2c.14.08.14.2,0,.28Z"/><path class="cls-27" d="M165.53,246a.51.51,0,0,1-.48,0l-1.8-1a.15.15,0,0,1,0-.28l1.8-1a.57.57,0,0,1,.48,0l1.8,1a.15.15,0,0,1,0,.28Z"/><path class="cls-27" d="M168.63,247.75a.51.51,0,0,1-.48,0l-1.8-1a.15.15,0,0,1,0-.28l1.8-1a.57.57,0,0,1,.48,0l1.79,1a.15.15,0,0,1,0,.28Z"/><path class="cls-27" d="M171.72,249.54a.51.51,0,0,1-.48,0l-1.79-1c-.14-.07-.14-.2,0-.27l1.79-1a.51.51,0,0,1,.48,0l1.8,1a.14.14,0,0,1,0,.27Z"/><path class="cls-27" d="M174.82,251.33a.51.51,0,0,1-.48,0l-1.8-1a.14.14,0,0,1,0-.27l1.8-1a.51.51,0,0,1,.48,0l1.8,1a.14.14,0,0,1,0,.27Z"/><path class="cls-27" d="M177.92,253.12a.57.57,0,0,1-.48,0l-1.8-1a.15.15,0,0,1,0-.28l1.8-1a.51.51,0,0,1,.48,0l1.8,1c.13.08.13.2,0,.28Z"/><path class="cls-27" d="M181,254.91a.55.55,0,0,1-.47,0l-1.8-1c-.13-.07-.13-.2,0-.28l1.8-1a.49.49,0,0,1,.47,0l1.8,1c.13.08.13.21,0,.28Z"/><path class="cls-27" d="M184.11,256.7a.57.57,0,0,1-.48,0l-1.8-1a.15.15,0,0,1,0-.28l1.8-1a.51.51,0,0,1,.48,0l1.8,1a.15.15,0,0,1,0,.28Z"/><path class="cls-27" d="M187.21,258.48a.51.51,0,0,1-.48,0l-1.8-1a.15.15,0,0,1,0-.28l1.8-1a.57.57,0,0,1,.48,0l1.8,1a.15.15,0,0,1,0,.28Z"/><path class="cls-27" d="M190.31,260.27a.51.51,0,0,1-.48,0l-1.8-1a.14.14,0,0,1,0-.27l1.8-1a.57.57,0,0,1,.48,0l1.8,1a.14.14,0,0,1,0,.27Z"/><path class="cls-27" d="M193.4,262.06a.49.49,0,0,1-.47,0l-1.8-1a.14.14,0,0,1,0-.27l1.8-1a.49.49,0,0,1,.47,0l1.8,1a.14.14,0,0,1,0,.27Z"/><path class="cls-27" d="M196.5,263.85a.57.57,0,0,1-.48,0l-1.79-1c-.14-.07-.14-.2,0-.27l1.79-1.05a.57.57,0,0,1,.48,0l1.8,1.05a.14.14,0,0,1,0,.27Z"/><path class="cls-27" d="M201.81,266.91a.51.51,0,0,1-.48,0l-4-2.28a.15.15,0,0,1,0-.28l1.8-1a.55.55,0,0,1,.47,0l4,2.29a.14.14,0,0,1,0,.27Z"/><path class="cls-27" d="M160.84,246.88a.54.54,0,0,1-.48,0l-1.8-1a.15.15,0,0,1,0-.28l1.8-1a.57.57,0,0,1,.48,0l1.8,1a.15.15,0,0,1,0,.28Z"/><path class="cls-27" d="M157.74,245.1a.57.57,0,0,1-.48,0l-4.83-2.79a.15.15,0,0,1,0-.28l1.8-1a.51.51,0,0,1,.48,0l4.83,2.78a.15.15,0,0,1,0,.28Z"/><path class="cls-27" d="M163.93,248.67a.49.49,0,0,1-.47,0l-1.8-1a.15.15,0,0,1,0-.28l1.8-1a.55.55,0,0,1,.47,0l1.8,1a.15.15,0,0,1,0,.28Z"/><path class="cls-27" d="M167,250.46a.51.51,0,0,1-.48,0l-1.8-1c-.13-.07-.13-.19,0-.27l1.8-1a.57.57,0,0,1,.48,0l1.8,1c.13.08.13.2,0,.27Z"/><path class="cls-27" d="M170.13,252.25a.51.51,0,0,1-.48,0l-1.8-1a.14.14,0,0,1,0-.27l1.8-1a.51.51,0,0,1,.48,0l1.79,1c.14.07.14.2,0,.27Z"/><path class="cls-27" d="M173.23,254a.51.51,0,0,1-.48,0l-1.8-1c-.13-.08-.13-.2,0-.27l1.8-1a.51.51,0,0,1,.48,0l1.79,1c.14.07.14.19,0,.27Z"/><path class="cls-27" d="M176.32,255.83a.55.55,0,0,1-.47,0l-1.8-1a.15.15,0,0,1,0-.28l1.8-1a.49.49,0,0,1,.47,0l1.8,1a.15.15,0,0,1,0,.28Z"/><path class="cls-27" d="M179.42,257.62a.57.57,0,0,1-.48,0l-1.8-1a.15.15,0,0,1,0-.28l1.8-1a.57.57,0,0,1,.48,0l1.8,1a.15.15,0,0,1,0,.28Z"/><path class="cls-27" d="M182.52,259.4a.51.51,0,0,1-.48,0l-1.8-1a.15.15,0,0,1,0-.28l1.8-1a.57.57,0,0,1,.48,0l1.79,1c.14.08.14.2,0,.28Z"/><path class="cls-27" d="M185.61,261.19a.49.49,0,0,1-.47,0l-1.8-1a.15.15,0,0,1,0-.28l1.8-1a.55.55,0,0,1,.47,0l1.8,1a.15.15,0,0,1,0,.28Z"/><path class="cls-27" d="M188.71,263a.51.51,0,0,1-.48,0l-1.79-1a.14.14,0,0,1,0-.27l1.79-1a.51.51,0,0,1,.48,0l1.8,1a.14.14,0,0,1,0,.27Z"/><path class="cls-27" d="M191.81,264.77a.51.51,0,0,1-.48,0l-1.8-1a.14.14,0,0,1,0-.27l1.8-1a.51.51,0,0,1,.48,0l1.8,1a.14.14,0,0,1,0,.27Z"/><path class="cls-27" d="M198.66,268.72a.51.51,0,0,1-.48,0l-5.46-3.15c-.13-.08-.13-.2,0-.27l1.8-1a.51.51,0,0,1,.48,0l5.46,3.15a.15.15,0,0,1,0,.28Z"/><path class="cls-27" d="M159,249.5a.55.55,0,0,1-.47,0l-1.8-1a.14.14,0,0,1,0-.27l1.8-1a.49.49,0,0,1,.47,0l1.8,1a.14.14,0,0,1,0,.27Z"/><path class="cls-27" d="M155.86,247.7a.57.57,0,0,1-.48,0l-6.08-3.51a.15.15,0,0,1,0-.28l1.8-1a.57.57,0,0,1,.48,0l6.08,3.51a.15.15,0,0,1,0,.28Z"/><path class="cls-27" d="M162.08,251.29a.57.57,0,0,1-.48,0l-1.79-1c-.14-.08-.14-.2,0-.28l1.79-1a.51.51,0,0,1,.48,0l1.8,1a.15.15,0,0,1,0,.28Z"/><path class="cls-27" d="M165.18,253.08a.57.57,0,0,1-.48,0l-1.8-1a.15.15,0,0,1,0-.28l1.8-1a.51.51,0,0,1,.48,0l1.8,1a.15.15,0,0,1,0,.28Z"/><path class="cls-27" d="M148.94,247.39a.55.55,0,0,1-.47,0L146.12,246a.15.15,0,0,1,0-.28l1.8-1a.49.49,0,0,1,.47,0l2.35,1.35c.13.07.13.2,0,.28Z"/><path class="cls-27" d="M152.59,249.49a.51.51,0,0,1-.48,0l-2.35-1.36a.14.14,0,0,1,0-.27l1.8-1a.51.51,0,0,1,.48,0l2.35,1.36a.14.14,0,0,1,0,.27Z"/><path class="cls-27" d="M156.23,251.59a.49.49,0,0,1-.47,0l-2.35-1.35a.15.15,0,0,1,0-.28l1.8-1a.55.55,0,0,1,.47,0l2.36,1.36a.15.15,0,0,1,0,.28Z"/><path class="cls-27" d="M177.72,264a.57.57,0,0,1-.48,0l-20.19-11.66a.15.15,0,0,1,0-.28l1.8-1a.51.51,0,0,1,.48,0l20.19,11.65a.15.15,0,0,1,0,.28Z"/><path class="cls-27" d="M181.38,266.11a.51.51,0,0,1-.48,0l-2.35-1.36a.14.14,0,0,1,0-.27l1.8-1a.57.57,0,0,1,.48,0l2.35,1.36a.14.14,0,0,1,0,.27Z"/><path class="cls-27" d="M185,268.22a.57.57,0,0,1-.48,0l-2.36-1.36a.15.15,0,0,1,0-.28l1.8-1a.51.51,0,0,1,.48,0l2.35,1.35a.15.15,0,0,1,0,.28Z"/><path class="cls-27" d="M188.67,270.32a.51.51,0,0,1-.48,0L185.84,269a.14.14,0,0,1,0-.27l1.8-1a.51.51,0,0,1,.48,0l2.35,1.36a.14.14,0,0,1,0,.27Z"/><path class="cls-27" d="M192.31,272.43a.55.55,0,0,1-.47,0l-2.35-1.36a.15.15,0,0,1,0-.28l1.79-1a.57.57,0,0,1,.48,0l2.35,1.36a.15.15,0,0,1,0,.28Z"/><path class="cls-27" d="M168.28,254.87a.57.57,0,0,1-.48,0l-1.8-1a.15.15,0,0,1,0-.28l1.8-1a.57.57,0,0,1,.48,0l1.8,1a.15.15,0,0,1,0,.28Z"/><path class="cls-27" d="M171.37,256.66a.55.55,0,0,1-.47,0l-1.8-1.05c-.13-.07-.13-.19,0-.27l1.8-1a.55.55,0,0,1,.47,0l1.8,1c.13.08.13.2,0,.27Z"/><path class="cls-27" d="M174.47,258.44a.51.51,0,0,1-.48,0l-1.79-1c-.14-.07-.14-.2,0-.27l1.79-1a.51.51,0,0,1,.48,0l1.8,1a.14.14,0,0,1,0,.27Z"/><path class="cls-27" d="M177.57,260.23a.51.51,0,0,1-.48,0l-1.8-1a.14.14,0,0,1,0-.27l1.8-1a.51.51,0,0,1,.48,0l1.8,1a.14.14,0,0,1,0,.27Z"/><path class="cls-27" d="M180.67,262a.57.57,0,0,1-.48,0l-1.8-1c-.13-.07-.13-.2,0-.28l1.8-1a.51.51,0,0,1,.48,0l1.8,1c.13.08.13.21,0,.28Z"/><path class="cls-27" d="M183.76,263.81a.55.55,0,0,1-.47,0l-1.81-1a.15.15,0,0,1,0-.28l1.81-1a.52.52,0,0,1,.47,0l1.8,1a.15.15,0,0,1,0,.28Z"/><path class="cls-27" d="M186.86,265.59a.51.51,0,0,1-.48,0l-1.79-1c-.14-.08-.14-.2,0-.28l1.79-1a.57.57,0,0,1,.48,0l1.8,1a.15.15,0,0,1,0,.28Z"/><path class="cls-27" d="M195.47,270.57a.57.57,0,0,1-.48,0l-7.3-4.22a.15.15,0,0,1,0-.28l1.8-1a.51.51,0,0,1,.48,0l7.3,4.21a.15.15,0,0,1,0,.28Z"/><path class="cls-27" d="M198.09,261.14a.49.49,0,0,1-.47,0l-1.8-1a.14.14,0,0,1,0-.27l1.8-1a.49.49,0,0,1,.47,0l1.8,1a.14.14,0,0,1,0,.27Z"/><path class="cls-27" d="M165.86,236.83a.55.55,0,0,1-.47,0l-1.8-1a.14.14,0,0,1,0-.27l1.8-1a.49.49,0,0,1,.47,0l1.8,1c.14.07.14.2,0,.27Z"/><path class="cls-27" d="M172.06,240.41a.57.57,0,0,1-.48,0l-1.8-1a.15.15,0,0,1,0-.28l1.8-1a.57.57,0,0,1,.48,0l1.8,1a.15.15,0,0,1,0,.28Z"/><path class="cls-27" d="M175.16,242.2a.57.57,0,0,1-.48,0l-1.8-1c-.13-.08-.13-.21,0-.28l1.8-1a.57.57,0,0,1,.48,0l1.8,1c.13.07.13.2,0,.28Z"/><path class="cls-27" d="M178.26,244a.51.51,0,0,1-.48,0l-1.8-1a.14.14,0,0,1,0-.27l1.8-1a.51.51,0,0,1,.48,0l1.79,1a.14.14,0,0,1,0,.27Z"/><path class="cls-27" d="M181.35,245.77a.49.49,0,0,1-.47,0l-1.8-1a.14.14,0,0,1,0-.27l1.8-1a.49.49,0,0,1,.47,0l1.8,1a.14.14,0,0,1,0,.27Z"/><path class="cls-27" d="M186.41,248.69a.51.51,0,0,1-.48,0l-1.8-1a.14.14,0,0,1,0-.27l1.8-1a.51.51,0,0,1,.48,0l1.8,1a.14.14,0,0,1,0,.27Z"/><path class="cls-27" d="M189.51,250.48a.51.51,0,0,1-.48,0l-1.8-1c-.13-.07-.13-.2,0-.28l1.8-1a.51.51,0,0,1,.48,0l1.79,1c.14.08.14.21,0,.28Z"/><path class="cls-27" d="M192.6,252.27a.55.55,0,0,1-.47,0l-1.8-1a.15.15,0,0,1,0-.28l1.8-1a.49.49,0,0,1,.47,0l1.8,1a.15.15,0,0,1,0,.28Z"/><path class="cls-27" d="M195.7,254.06a.57.57,0,0,1-.48,0l-1.79-1c-.14-.08-.14-.2,0-.28l1.79-1a.57.57,0,0,1,.48,0l1.8,1a.15.15,0,0,1,0,.28Z"/><path class="cls-27" d="M200.66,256.92a.57.57,0,0,1-.48,0l-1.8-1a.15.15,0,0,1,0-.28l1.8-1a.51.51,0,0,1,.48,0l1.8,1a.15.15,0,0,1,0,.28Z"/><path class="cls-27" d="M203.75,258.71a.55.55,0,0,1-.47,0l-1.8-1a.15.15,0,0,1,0-.28l1.8-1a.55.55,0,0,1,.47,0l1.8,1a.15.15,0,0,1,0,.28Z"/><path class="cls-27" d="M206.85,260.5a.55.55,0,0,1-.47,0l-1.8-1.05c-.14-.07-.14-.19,0-.27l1.8-1a.55.55,0,0,1,.47,0l1.8,1c.13.08.13.2,0,.27Z"/><path class="cls-27" d="M210,262.28a.51.51,0,0,1-.48,0l-1.79-1c-.14-.07-.14-.19,0-.27l1.79-1a.51.51,0,0,1,.48,0l1.8,1c.13.08.13.2,0,.27Z"/><path class="cls-27" d="M231.4,274.67a.49.49,0,0,1-.47,0l-1.8-1c-.13-.07-.13-.2,0-.28l1.8-1a.49.49,0,0,1,.47,0l1.8,1c.13.08.13.21,0,.28Z"/><path class="cls-27" d="M234.5,276.46a.55.55,0,0,1-.47,0l-1.8-1c-.14-.08-.14-.2,0-.28l1.8-1a.49.49,0,0,1,.47,0l1.8,1a.15.15,0,0,1,0,.28Z"/><path class="cls-27" d="M237.6,278.24a.51.51,0,0,1-.48,0l-1.8-1a.15.15,0,0,1,0-.28l1.8-1a.57.57,0,0,1,.48,0l1.8,1a.15.15,0,0,1,0,.28Z"/><path class="cls-27" d="M205,265.13a.51.51,0,0,1-.48,0l-5.61-3.24c-.14-.07-.14-.2,0-.27l1.79-1a.51.51,0,0,1,.48,0l5.62,3.24c.13.08.13.2,0,.27Z"/><polygon class="cls-27" points="227.6 272.26 218.72 267.13 220.94 265.85 229.83 270.98 227.6 272.26"/><path class="cls-28" d="M186.55,203.29a2.94,2.94,0,0,1,2.65,0L200.86,210a.8.8,0,0,1,0,1.52l-26.37,15.27a2.92,2.92,0,0,1-2.64,0l-11.67-6.73a.81.81,0,0,1,0-1.53Z"/><path class="cls-27" d="M160.18,220.09l11.67,6.73a2.92,2.92,0,0,0,2.64,0l26.37-15.27a1,1,0,0,0,.55-.74h0v1.81a.93.93,0,0,1-.55.77l-26.37,15.26a2.92,2.92,0,0,1-2.64,0l-11.67-6.73a.93.93,0,0,1-.54-.76v-1.83h0A.93.93,0,0,0,160.18,220.09Z"/><polygon class="cls-29" points="161.33 217.9 175.64 226.16 200.75 211.62 186.44 203.36 161.33 217.9"/><polygon class="cls-30" points="175.38 226.01 175.64 226.16 200.75 211.62 200.5 211.48 175.38 226.01"/><polygon class="cls-31" points="175.64 227.27 200.75 212.73 200.75 211.62 175.64 226.16 175.64 227.27"/><path class="cls-32" d="M306.86,282.43v0Z"/><path class="cls-33" d="M313.52,277.07a6.85,6.85,0,0,0-.45-2.39h0c-.72-2.59-3.64-2.43-4.49-2a5.69,5.69,0,0,0-1.72,1.48v2.44l1.08.56a4,4,0,0,1,2-2.37,1.5,1.5,0,0,1,.67-.18,4.23,4.23,0,0,1,.89,2.45c0,1.41-.93,5.15-3,6.21a3,3,0,0,1-.45.18h-.07c-1,.24-1.08-.84-1.08-1.05v2.92l1.08.56s.47.17,1.7-.54S313.64,280.85,313.52,277.07Z"/><g class="cls-34"><path class="cls-35" d="M307.94,283v0Z"/><path class="cls-36" d="M313.52,277.07c-.15-4.47-2.84-4.34-3.86-3.81a5.69,5.69,0,0,0-1.72,1.48v2.44a4,4,0,0,1,2-2.37c1.59-.83,2.61,1.42,2.64,2.83s-.93,5.15-3,6.21c-1.5.76-1.59-.62-1.59-.86v2.92s.47.17,1.7-.54S313.64,280.85,313.52,277.07Z"/></g><path class="cls-37" d="M309.53,283.85c2.09-1.06,3-4.8,3-6.21,0-1.2-.77-3-2-3a4.23,4.23,0,0,1,.89,2.45c0,1.41-.93,5.15-3,6.21a3,3,0,0,1-.45.18C308.14,283.9,308.51,284.37,309.53,283.85Z"/><path class="cls-38" d="M309.28,272c0-1.42-.94-2.84-2.82-3.92a15,15,0,0,0-13.59,0c-1.88,1.08-2.82,2.5-2.82,3.92V289.4a3.5,3.5,0,0,0,.4,1.59h0c.07.19.47,1,.57,1.16a5.87,5.87,0,0,0,2.2,2.05,14.26,14.26,0,0,0,12.89,0A5.68,5.68,0,0,0,308.4,292c.06-.12.52-1.05.56-1.18h0a3.37,3.37,0,0,0,.32-1.41Z"/><path class="cls-39" d="M299.67,266.41a13.93,13.93,0,0,0-6.8,1.63c-1.88,1.08-2.82,2.5-2.82,3.92s.94,2.84,2.82,3.93a15.06,15.06,0,0,0,13.59,0c1.88-1.09,2.82-2.51,2.82-3.93s-.94-2.84-2.82-3.92A13.89,13.89,0,0,0,299.67,266.41Z"/><path class="cls-32" d="M299.67,266.68a13.27,13.27,0,0,0-6.48,1.55c-1.78,1-2.68,2.38-2.68,3.73s.9,2.71,2.68,3.74a14.3,14.3,0,0,0,12.95,0c1.78-1,2.68-2.38,2.68-3.74s-.9-2.7-2.68-3.73A13.26,13.26,0,0,0,299.67,266.68Z"/><path class="cls-40" d="M299.67,266.68a13.27,13.27,0,0,0-6.48,1.55c-1.78,1-2.68,2.38-2.68,3.73s.9,2.71,2.68,3.74a14.3,14.3,0,0,0,12.95,0c1.78-1,2.68-2.38,2.68-3.74s-.9-2.7-2.68-3.73A13.26,13.26,0,0,0,299.67,266.68Z"/><path class="cls-41" d="M306.14,271.23a14.3,14.3,0,0,0-12.95,0,5.81,5.81,0,0,0-2.3,2.23,5.77,5.77,0,0,0,2.3,2.24,14.3,14.3,0,0,0,12.95,0,5.77,5.77,0,0,0,2.3-2.24A5.81,5.81,0,0,0,306.14,271.23Z"/><path class="cls-42" d="M293.19,272.65a14.3,14.3,0,0,1,12.95,0,6.67,6.67,0,0,1,1.84,1.52,3.91,3.91,0,0,0,.46-.71,5.81,5.81,0,0,0-2.3-2.23,14.3,14.3,0,0,0-12.95,0,5.81,5.81,0,0,0-2.3,2.23,3.91,3.91,0,0,0,.46.71A6.67,6.67,0,0,1,293.19,272.65Z"/><path class="cls-43" d="M306.46,293.33a15.06,15.06,0,0,1-13.59,0,6.07,6.07,0,0,1-2.42-2.34h0c.07.19.47,1,.57,1.16a5.87,5.87,0,0,0,2.2,2.05,14.26,14.26,0,0,0,12.89,0A5.68,5.68,0,0,0,308.4,292c.06-.12.52-1.05.56-1.18h0A5.78,5.78,0,0,1,306.46,293.33Z"/><path class="cls-44" d="M144.34,247.25s2.88-2.25,9.52-2.88,6.2-.42,11.84.33,10.64,1.68,11.51,2.55,4.11,1.51,2.8,2.82-4.08.32-7.34.82-9.15.62-8.52,2.63,7.64,1,9.27,2,3.39,2,0,2.63-13.41.63-17.42.63S144.34,247.25,144.34,247.25Z"/><path class="cls-45" d="M177.21,247.25c-.87-.87-5.86-1.8-11.51-2.55-5.44-.73-5.21-.94-11.16-.39.57,1.11,1.77,2.35,4.6,2.65,4.21.45,13,.21,18.48.6A2.31,2.31,0,0,1,177.21,247.25Z"/><path class="cls-46" d="M160.7,201.17c-.62-1.3-3.41-3.83-4.43-3.81a.68.68,0,0,0-.39.14c-.78.65-.54,5.24-.17,6.48s2.31,3.26,3.69,3.23h.14a1.36,1.36,0,0,0,1-.82A6.83,6.83,0,0,0,160.7,201.17Zm-.93,4.82c-.16.31-.3.39-.34.39h-.06c-.87,0-2.59-1.67-2.88-2.65a15.85,15.85,0,0,1-.12-5.54,10.15,10.15,0,0,1,3.58,3.33A6,6,0,0,1,159.77,206Z"/><path class="cls-47" d="M160,201.53a10.15,10.15,0,0,0-3.58-3.33,15.85,15.85,0,0,0,.12,5.54c.29,1,2,2.67,2.88,2.65h.06s.18-.08.34-.39A6,6,0,0,0,160,201.53Z"/><path class="cls-44" d="M107.51,222.11s5.92-.08,9-3.85,2.74-11,1.89-14.5-.54-15.59,3.24-20.45,12.79-8.47,21.48-8.33,15.08,8.09,15.8,13.85,1.58,9,.1,10.87-1.64,3.22-1.93,5.71-3.94,8.88-5.11,11.26-3.72,3.73-6.37,4.81-6.57,1.17-7,6.05-3.44,12.14-3.44,12.14,2.8-.41-.09.52-16.89,5.21-24.61,0S107.51,222.11,107.51,222.11Z"/><path class="cls-45" d="M146.92,216.34s-.46.37-1.35-.15-1-3.27-.12-6.48a8.69,8.69,0,0,1,3-4.22,5.6,5.6,0,0,0-3,.83c-2.41,1.42-7.76,9.82-9.5,10.87a1.75,1.75,0,0,1-.36.16c.77,8.09-2.6,18.57-4.65,24,2-.47,3.5-.94,4.25-1.18,2.89-.93.09-.52.09-.52s3-7.27,3.44-12.14,4.35-5,7-6.05l1.24-.53A20.48,20.48,0,0,1,146.92,216.34Z"/><path class="cls-7" d="M154.35,212.15a14.56,14.56,0,0,0-1.84.88c-.21.13-.69,1-2-.4-.81-.89-.37,3.52-.06,3.84s2.88-.92,3.55-1.91S155,212.23,154.35,212.15Z"/><polygon class="cls-46" points="160.71 202.01 149.97 205.54 149.7 206.09 160.9 203.05 160.71 202.01"/><path d="M162.09,185c-.57-2.41-5.46-13.76-17.37-14.77s-22.51,3.67-26.81,10.57-3,15-2.26,21.23a33.55,33.55,0,0,0,3.13,10.71s1.15,4.07,9.23,4.64,6.65,2.22,10.53-3.12,6.77-8.19,7.58-8.75,2.74,0,2.74,0l.79.19c-.77,2-2.22,8.29-4.1,12.65-.86,2-2.82,3.07-3.06,4.08l-1.45.83c-.51,3.45,5.89,5.88,7.36,5.57,3.93-.83,5-7.49,4.75-10.58a2.31,2.31,0,0,0-1.14-1.56s-3.25-1.45-.24-10.49a2.11,2.11,0,0,0,1.12-1.27l-.9.21a11.93,11.93,0,0,1,1.93-4.49c1.53-1.83,2.49-.78,2.71-4s.2-5.42,1.3-6.27S162.66,187.39,162.09,185Z"/><path class="cls-48" d="M145.09,206.39a44.54,44.54,0,0,1-29.52-5c0,.2.05.4.08.59a33.55,33.55,0,0,0,3.13,10.71s1.15,4.07,9.23,4.64,6.65,2.22,10.53-3.12A63.72,63.72,0,0,1,145.09,206.39Z"/><path class="cls-49" d="M136.92,232.76s-12.72-2.38-19.41-4.6-4.7-7.23-4.7-7.23-11.75-2.57-15.25-1.29c-28.91,10.64-20,64.73-17.49,77.75s.54,26.38.54,26.38c28.26,20.53,58.29,24.94,63.67,14.94s-8.16-27.39-8.16-27.39.26-25.23,8.38-44.84c4.55-11,10.56-19.87,5-24.84C146.1,238.59,136.92,232.76,136.92,232.76Z"/><path class="cls-50" d="M145.09,265.09l-8.82-6.7a82.18,82.18,0,0,0-7,21.66c-1.8,11.49-7.89,8.38-19.52,10.67-7,1.37-14.39,22.53-18.57,40,24.77,14.48,48.38,16.78,53.09,8,5.39-10-8.16-27.39-8.16-27.39s.26-25.23,8.38-44.84C144.69,266,144.89,265.55,145.09,265.09Z"/><path class="cls-44" d="M185.08,281.18l8-5.41s5.14-4.23,8.6-4.6,16,.75,19.32,3.31,2.9,4.1.44,6.33-5.24,2.44-9.15,3.6,1.12.86-5,1.31-16.24,4-16.24,4Z"/><path class="cls-45" d="M221.78,275.08C220.15,279,206.26,282,202,281.71c-4.5-.26-10.11,2.46-10.11,2.46L188,285.36l3.06,4.33s10.11-3.51,16.24-4,1.09-.16,5-1.31,6.69-1.37,9.15-3.6C223.74,278.76,224.31,277.29,221.78,275.08Z"/><path class="cls-49" d="M134.11,261.2c-1.88-5,.22-16.43,8.14-19.56,8.52-3.38,13.94,4.27,18.22,19,4.49,15.44,5.34,23.59,5.34,23.59l24.09-7.57s7,.35,7.57,11c0,0-28.6,16.37-38.32,19.19S138.84,273.8,134.11,261.2Z"/><path class="cls-51" d="M93.85,377.39s10,4.15,15.25,5.91,11.35,3,16.86-4.8,8.3-14.77,8.14-26.19-10.86-46.16-10.86-46.16S117,287.7,114,283s-4.64-5-7.83-6.47S91.61,269.73,84.83,265s-14.3-10.31-16.22-11.27-6.31,1.12-8.58,5.72-2.68,13.61-2.84,23.36-1.12,24.92.48,34.58a158.39,158.39,0,0,0,9,31.86c4,9.67,13.57,19.25,18.28,22.85A42.35,42.35,0,0,0,93.85,377.39Z"/><path class="cls-52" d="M126.9,377.12c4.88-7.28,7.35-14.07,7.2-24.81-.16-11.42-10.86-46.16-10.86-46.16S117,287.7,114,283s-4.64-5-7.83-6.47S91.61,269.73,84.83,265s-14.3-10.31-16.22-11.27a2.52,2.52,0,0,0-.57-.17c-2.23,1.86-5.69,5-6.11,6.87a15.44,15.44,0,0,0,4.8,4.28c3.36,2,25,15.3,31.21,17.75s11.89,6.51,15.29,13.76c4,8.47,12.34,34.78,14.18,41.62,0,0,5.06,16.6,4.49,23.86C131.49,366.93,129.36,372.43,126.9,377.12Z"/><path class="cls-53" d="M125.56,353.91c-1-8.07-10.07-39.38-12.14-44.65s-7.83-15.57-9.91-17-12.93-5.91-20.2-10.06a235,235,0,0,1-21.8-14.94,3,3,0,0,0-3.41-.4,143.16,143.16,0,0,0-.91,16c-.16,9.74-1.12,24.92.48,34.58a158.39,158.39,0,0,0,9,31.86c4,9.67,13.57,19.25,18.28,22.85a42.35,42.35,0,0,0,8.95,5.27s10,4.15,15.25,5.91a23,23,0,0,0,6,1.3,10.29,10.29,0,0,0,5.87-4.74C124.52,373.71,126.52,362,125.56,353.91Z"/><path class="cls-54" d="M94.62,374.56l1.68,9.57s-2.61,1.45-3.6-2.84A6.91,6.91,0,0,1,94.62,374.56Z"/><path class="cls-55" d="M92.7,381.29a7,7,0,0,1,1.75-6.57c-1.15-.48-7.1-3-10.86-6.54a9.62,9.62,0,0,0-1.22,6.67c.64,4.06,2.61,4.61,2.61,4.61l9.2,4.55h0A4.31,4.31,0,0,1,92.7,381.29Z"/><path class="cls-56" d="M127.62,361.7s18.91-19.21,23-23.05,14-11.45,19.21-8.62,6.38,28.42,6.38,28.42,1.59,1.88,4.85.94,2.32-3.19,2.32-3.19.66-27.77-6.45-32.84-17-.14-24.71,5.66-21.38,19.42-21.38,19.42-3,4.2-3.7,8S127.62,361.7,127.62,361.7Z"/><path class="cls-57" d="M250.8,315.42a2.46,2.46,0,0,1-2.21,0L220.17,299a.67.67,0,0,1,0-1.27l33.51-19.34a2.44,2.44,0,0,1,2.2,0l28.42,16.41a.67.67,0,0,1,0,1.27Z"/><path class="cls-13" d="M258.06,296.12c-4.41,3.52-10.83,5.25-14.36,3.87s-3.11-7.22,1.3-10.73,11.11-3.39,14.64-2S262.46,292.6,258.06,296.12Z"/><path class="cls-13" d="M260.36,289l-.45-.7c.17-.11,17.45-11.19,21.09-13.59l.26-.17c2.51-1.65,5.95-3.91,6.08-6.42.06-1.15-.61-2.3-2-3.43-2.37-1.93-6.9-1.8-11.69-1.66-6,.18-12.88.37-17.36-3.44a4.06,4.06,0,0,1-1.57-2.77c-.17-2.34,2-4.82,4.35-7.45,2.72-3.08,5.8-6.56,5.22-10.11-.4-2.48-2.5-4.8-6.42-7.07l.42-.72c4.15,2.41,6.38,4.91,6.82,7.66.64,3.93-2.58,7.58-5.41,10.79-2.2,2.5-4.29,4.85-4.14,6.84a3.15,3.15,0,0,0,1.27,2.2c4.24,3.59,10.91,3.4,16.79,3.23,5-.14,9.63-.28,12.25,1.85,1.6,1.31,2.38,2.7,2.31,4.13-.16,2.93-3.8,5.32-6.47,7.07l-.25.17C277.81,277.85,260.53,288.93,260.36,289Z"/><path class="cls-25" d="M189.45,109.93c0-1.6,1.14-2.25,2.52-1.45l103.75,59.9a5.57,5.57,0,0,1,2.52,4.36v81.15c0,1.6-1.13,2.25-2.52,1.45L192,195.44a5.57,5.57,0,0,1-2.52-4.36Z"/><polygon class="cls-58" points="189.45 183.96 189.45 110.9 298.24 173.71 298.24 246.76 189.45 183.96"/><polygon class="cls-59" points="190.9 183.12 190.9 113.41 296.79 174.54 296.79 244.25 190.9 183.12"/><path class="cls-27" d="M298.24,253.89V172.74a5.57,5.57,0,0,0-2.52-4.36L192,108.48a1.74,1.74,0,0,0-1.76-.18h0l3.49-2a1.75,1.75,0,0,1,1.82.15l103.75,59.9a5.62,5.62,0,0,1,2.52,4.37v81.14a1.74,1.74,0,0,1-.8,1.66l-3.44,2h0A1.78,1.78,0,0,0,298.24,253.89Z"/><path class="cls-25" d="M205.67,237.65,225,229a21.08,21.08,0,0,0,9.3-9.06l21.61,12.47a27.23,27.23,0,0,1-6.59,10.76s-11.86,9.2-15,11.29a6.65,6.65,0,0,1-6.46.32l-22.22-13.35s-1.24-.59-1.53-1.51l-.06-.3C203.93,238.4,205.67,237.65,205.67,237.65Z"/><path class="cls-27" d="M205.66,241.38l22.22,13.35a6.65,6.65,0,0,0,6.46-.32c3.13-2.09,15-11.29,15-11.29a27.23,27.23,0,0,0,6.59-10.76l1.86,1.08A22.23,22.23,0,0,1,249,245.07c-13.36,9.58-14.78,10.36-14.78,10.36s-2.28,2-6.42,0-22.31-13.23-22.31-13.23-1.5-.81-1.5-1.6l0-1.16C204,240.6,205.66,241.38,205.66,241.38Z"/><path class="cls-60" d="M234.31,219.89l21.61,12.47a26.32,26.32,0,0,1-5,9l-23.68-13.67A21.43,21.43,0,0,0,234.31,219.89Z"/><polygon class="cls-61" points="220.5 143.61 205.9 135.18 205.9 134.22 220.5 142.66 220.5 143.61"/><polygon class="cls-28" points="271.22 172.9 222.71 144.89 222.71 143.93 271.22 171.94 271.22 172.9"/><polygon class="cls-28" points="226.88 141.4 200.23 126.01 200.23 125.05 226.88 140.44 226.88 141.4"/><polygon class="cls-28" points="256.01 158.21 229.35 142.82 229.35 141.87 256.01 157.25 256.01 158.21"/><polygon class="cls-62" points="229.73 151.91 215.12 143.47 215.12 142.52 229.73 150.95 229.73 151.91"/><polygon class="cls-28" points="280.45 181.19 231.94 153.18 231.94 152.22 280.45 180.23 280.45 181.19"/><polygon class="cls-28" points="201.92 132.88 200.18 131.88 200.18 130.93 201.92 131.93 201.92 132.88"/><polygon class="cls-28" points="201.92 135.85 200.18 134.85 200.18 133.89 201.92 134.89 201.92 135.85"/><polygon class="cls-28" points="201.92 138.81 200.18 137.81 200.18 136.85 201.92 137.86 201.92 138.81"/><polygon class="cls-28" points="201.92 141.78 200.18 140.78 200.18 139.82 201.92 140.82 201.92 141.78"/><polygon class="cls-28" points="201.92 144.74 200.18 143.74 200.18 142.78 201.92 143.79 201.92 144.74"/><polygon class="cls-28" points="201.92 147.71 200.18 146.7 200.18 145.75 201.92 146.75 201.92 147.71"/><polygon class="cls-28" points="201.92 150.67 200.18 149.67 200.18 148.71 201.92 149.72 201.92 150.67"/><polygon class="cls-28" points="201.92 153.64 200.18 152.63 200.18 151.68 201.92 152.68 201.92 153.64"/><polygon class="cls-28" points="201.92 156.6 200.18 155.6 200.18 154.65 201.92 155.65 201.92 156.6"/><polygon class="cls-28" points="201.92 159.57 200.18 158.56 200.18 157.61 201.92 158.61 201.92 159.57"/><polygon class="cls-28" points="201.92 162.53 200.18 161.53 200.18 160.57 201.92 161.57 201.92 162.53"/><polygon class="cls-28" points="201.92 165.5 200.18 164.5 200.18 163.54 201.92 164.54 201.92 165.5"/><polygon class="cls-28" points="201.92 168.46 200.18 167.46 200.18 166.5 201.92 167.51 201.92 168.46"/><polygon class="cls-28" points="201.92 171.43 200.18 170.42 200.18 169.47 201.92 170.47 201.92 171.43"/><polygon class="cls-28" points="201.92 174.39 200.18 173.39 200.18 172.43 201.92 173.44 201.92 174.39"/><polygon class="cls-28" points="201.92 177.36 200.18 176.35 200.18 175.4 201.92 176.4 201.92 177.36"/><polygon class="cls-28" points="201.92 180.32 200.18 179.32 200.18 178.36 201.92 179.37 201.92 180.32"/><polygon class="cls-28" points="201.92 183.29 200.18 182.28 200.18 181.33 201.92 182.33 201.92 183.29"/><polygon class="cls-62" points="229.73 154.87 215.12 146.44 215.12 145.48 229.73 153.91 229.73 154.87"/><polygon class="cls-28" points="262.75 173.93 231.94 156.14 231.94 155.19 262.75 172.98 262.75 173.93"/><polygon class="cls-63" points="239.09 163.24 224.49 154.81 224.49 153.85 239.09 162.29 239.09 163.24"/><polygon class="cls-63" points="271.97 182.22 241.3 164.51 241.3 163.56 271.97 181.27 271.97 182.22"/><polygon class="cls-28" points="246.13 170.26 231.51 161.83 231.51 160.88 246.13 169.31 246.13 170.26"/><polygon class="cls-28" points="276.65 187.89 248.33 171.54 248.33 170.58 276.65 186.94 276.65 187.89"/><polygon class="cls-64" points="225.02 161.04 214.68 155.07 214.68 154.12 225.02 160.09 225.02 161.04"/><polygon class="cls-28" points="280.01 192.79 227.23 162.32 227.23 161.36 280.01 191.84 280.01 192.79"/><polygon class="cls-64" points="222.43 162.51 214.68 158.04 214.68 157.08 222.43 161.56 222.43 162.51"/><polygon class="cls-28" points="267.68 188.64 224.63 163.78 224.63 162.83 267.68 187.68 267.68 188.64"/><polygon class="cls-61" points="220.88 164.59 214.68 161 214.68 160.05 220.88 163.63 220.88 164.59"/><polygon class="cls-28" points="273.89 195.19 223.08 165.86 223.08 164.9 273.89 194.23 273.89 195.19"/><polygon class="cls-62" points="229.29 172.4 214.68 163.97 214.68 163.01 229.29 171.45 229.29 172.4"/><polygon class="cls-28" points="273.89 198.15 230.59 173.16 230.59 172.2 273.89 197.2 273.89 198.15"/><polygon class="cls-62" points="237.16 179.92 214.68 166.93 214.68 165.98 237.16 178.96 237.16 179.92"/><polygon class="cls-63" points="259.69 192.92 239.37 181.19 239.37 180.24 259.69 191.97 259.69 192.92"/><polygon class="cls-61" points="220.5 173.26 205.9 164.83 205.9 163.87 220.5 172.31 220.5 173.26"/><polygon class="cls-28" points="271.22 202.54 222.71 174.54 222.71 173.58 271.22 201.59 271.22 202.54"/><polygon class="cls-62" points="228.63 180.92 214.02 172.48 214.02 171.53 228.63 179.96 228.63 180.92"/><polygon class="cls-28" points="271.22 205.51 230.83 182.19 230.83 181.24 271.22 204.56 271.22 205.51"/><polygon class="cls-62" points="245.3 193.51 230.69 185.07 230.69 184.12 245.3 192.55 245.3 193.51"/><polygon class="cls-65" points="271.22 208.48 247.5 194.78 247.5 193.82 271.22 207.52 271.22 208.48"/><polygon class="cls-62" points="239.09 192.89 230.69 188.04 230.69 187.08 239.09 191.94 239.09 192.89"/><polygon class="cls-28" points="271.22 211.44 241.3 194.16 241.3 193.21 271.22 210.49 271.22 211.44"/><polygon class="cls-61" points="242.88 198.04 230.69 191 230.69 190.05 242.88 197.08 242.88 198.04"/><polygon class="cls-28" points="271.22 214.41 245.08 199.31 245.08 198.36 271.22 213.45 271.22 214.41"/><polygon class="cls-62" points="238.27 198.34 230.69 193.97 230.69 193.01 238.27 197.39 238.27 198.34"/><polygon class="cls-28" points="271.22 217.37 240.47 199.62 240.47 198.66 271.22 216.41 271.22 217.37"/><polygon class="cls-62" points="240.47 202.58 230.69 196.93 230.69 195.98 240.47 201.63 240.47 202.58"/><polygon class="cls-28" points="271.22 220.33 242.68 203.85 242.68 202.9 271.22 219.38 271.22 220.33"/><polygon class="cls-62" points="245.3 208.33 230.69 199.9 230.69 198.94 245.3 207.38 245.3 208.33"/><polygon class="cls-28" points="271.22 223.3 247.5 209.6 247.5 208.65 271.22 222.34 271.22 223.3"/><path class="cls-66" d="M316.2,216.71a15.29,15.29,0,0,0,6.88,11.91l24.61,14.2c3.78,2.19,6.88.4,6.88-4V210.44a15.29,15.29,0,0,0-6.88-11.92l-24.61-14.2c-3.78-2.19-6.88-.4-6.88,4Z"/><path class="cls-67" d="M354.57,238.85V210.44a15.29,15.29,0,0,0-6.88-11.92l-24.61-14.2a5.12,5.12,0,0,0-4.39-.7h0l4.15-2.54c1.25-.8,3-.73,5,.4l24.61,14.21a15.23,15.23,0,0,1,6.88,11.91V236c0,2.24-.81,3.8-2.12,4.49l-4.55,2.73h0C353.82,242.5,354.57,241,354.57,238.85Z"/><path class="cls-68" d="M323.73,209.45v-2.74a2.86,2.86,0,0,0,1.09.38.8.8,0,0,0,.63-.33,2.07,2.07,0,0,0,.37-1,14.84,14.84,0,0,0,.08-1.86,16.14,16.14,0,0,1,.17-3,1.52,1.52,0,0,1,.65-1,1.92,1.92,0,0,1,1.35-.05,8,8,0,0,1,1.9.89l.53.3v2.73a5.51,5.51,0,0,0-1.41-.67.44.44,0,0,0-.46.17,1.75,1.75,0,0,0-.15.91c0,.48,0,1.37-.09,2.68a5.84,5.84,0,0,1-.26,1.68,1.92,1.92,0,0,1-.53.86,2,2,0,0,1-1,.38,7.73,7.73,0,0,1,.95,1.46,6.82,6.82,0,0,1,.57,1.59,12.37,12.37,0,0,1,.26,2.14c.05,1.29.07,2.11.07,2.46a3.07,3.07,0,0,0,.16,1.14,2.2,2.2,0,0,0,.48.73,6.45,6.45,0,0,0,1.39.95V223l-.53-.31a11.69,11.69,0,0,1-2-1.42,6.53,6.53,0,0,1-1.21-1.51,5.49,5.49,0,0,1-.65-1.8,15.77,15.77,0,0,1-.17-2.74,16.5,16.5,0,0,0-.16-2.82,4.89,4.89,0,0,0-.66-1.69A4.55,4.55,0,0,0,323.73,209.45Z"/><path class="cls-68" d="M346.51,222.6a2.92,2.92,0,0,0-1.09-.38.78.78,0,0,0-.63.33,2.23,2.23,0,0,0-.37,1,14.45,14.45,0,0,0-.08,1.84,17.33,17.33,0,0,1-.17,3,1.48,1.48,0,0,1-.64,1,1.91,1.91,0,0,1-1.37.06,8.81,8.81,0,0,1-1.9-.9l-.52-.3v-2.74a5.27,5.27,0,0,0,1.38.65.51.51,0,0,0,.48-.17,1.63,1.63,0,0,0,.16-.9c0-.46,0-1.33.09-2.61a6.16,6.16,0,0,1,.26-1.75,2,2,0,0,1,.58-.88,1.76,1.76,0,0,1,.93-.34,9.63,9.63,0,0,1-1.07-1.69,8.3,8.3,0,0,1-.64-2.28c-.07-.58-.12-1.78-.15-3.61a4.1,4.1,0,0,0-.14-1.22,2,2,0,0,0-.44-.7,7.94,7.94,0,0,0-1.44-1v-2.73l.52.31a11.82,11.82,0,0,1,2.05,1.42,5.88,5.88,0,0,1,1.2,1.51,6,6,0,0,1,.66,1.79,17.08,17.08,0,0,1,.17,2.75,16.79,16.79,0,0,0,.15,2.81,4,4,0,0,0,2,2.93Z"/><path class="cls-69" d="M257.43,66.12A15.29,15.29,0,0,0,264.31,78l24.61,14.2c3.79,2.19,6.88.4,6.88-4V59.86a15.26,15.26,0,0,0-6.88-11.92l-24.61-14.2c-3.78-2.19-6.88-.4-6.88,4Z"/><path class="cls-70" d="M295.8,88.27V59.86a15.26,15.26,0,0,0-6.88-11.92l-24.61-14.2a5.09,5.09,0,0,0-4.38-.7h0l4.14-2.54c1.26-.8,3-.73,5,.4l24.61,14.21A15.28,15.28,0,0,1,300.54,57V85.44c0,2.24-.81,3.8-2.11,4.49l-4.55,2.73h0C295.06,91.91,295.8,90.4,295.8,88.27Z"/><path class="cls-68" d="M270.48,68.47l-7.87-11.11V53.73l7.87-2V56l-5.49.85,5.49,7.34Z"/><path class="cls-68" d="M272.9,72.82l2.85-21.11,2.55,1.47-2.88,21.09Z"/><path class="cls-68" d="M280.38,74.2V70l5.51-1-5.51-7.28V57.5l7.89,11.08v3.6Z"/><path class="cls-71" d="M196.3,88.33a15.23,15.23,0,0,0,6.88,11.91l24.61,14.21c3.78,2.19,6.88.4,6.88-4V82.06a15.27,15.27,0,0,0-6.88-11.91L203.18,55.94c-3.78-2.18-6.88-.39-6.88,4Z"/><path class="cls-72" d="M234.67,110.48V82.06a15.27,15.27,0,0,0-6.88-11.91L203.18,55.94a5.14,5.14,0,0,0-4.39-.69h0l4.15-2.54c1.25-.8,3-.73,5,.4l24.61,14.21a15.23,15.23,0,0,1,6.88,11.91v28.42c0,2.24-.81,3.8-2.12,4.49l-4.55,2.73h0C233.92,114.12,234.67,112.61,234.67,110.48Z"/><path class="cls-68" d="M200.68,86.12V69.83L204.36,72a16.37,16.37,0,0,1,2.73,1.82,7.23,7.23,0,0,1,1.63,2.53,9.31,9.31,0,0,1,.66,3.55,5.65,5.65,0,0,1-.38,2.31,2,2,0,0,1-1,1,1.81,1.81,0,0,1-1.19.08,12.17,12.17,0,0,1-2.38-1.14L203,81.3v6.14ZM203,73.91v4.62l1.26.73a5.3,5.3,0,0,0,1.81.79.8.8,0,0,0,.72-.39,2,2,0,0,0,.26-1.11,3.82,3.82,0,0,0-.37-1.68,3.54,3.54,0,0,0-.92-1.25,11.84,11.84,0,0,0-1.65-1.07Z"/><path class="cls-68" d="M211.27,92.23V76l2.29,1.32v6.41l4.5,2.59V79.86l2.29,1.33V97.47l-2.29-1.32V89l-4.5-2.59v7.11Z"/><path class="cls-68" d="M222.72,98.84V82.56l3.68,2.12a17,17,0,0,1,2.73,1.82A7.43,7.43,0,0,1,230.76,89a9.24,9.24,0,0,1,.66,3.55,5.56,5.56,0,0,1-.38,2.3,1.94,1.94,0,0,1-1,1,1.8,1.8,0,0,1-1.19.08,11.84,11.84,0,0,1-2.37-1.14L225,94v6.14ZM225,86.64v4.62l1.26.72a5,5,0,0,0,1.81.79.8.8,0,0,0,.72-.38,2.09,2.09,0,0,0,.25-1.12,4,4,0,0,0-.36-1.68,3.54,3.54,0,0,0-.92-1.25,12.87,12.87,0,0,0-1.65-1.07Z"/><path class="cls-73" d="M111.44,94.85a15.26,15.26,0,0,0,6.88,11.92L142.93,121c3.78,2.19,6.87.4,6.87-4V88.59a15.28,15.28,0,0,0-6.87-11.92l-24.61-14.2c-3.79-2.19-6.88-.4-6.88,4Z"/><path class="cls-74" d="M149.8,117V88.59a15.28,15.28,0,0,0-6.87-11.92l-24.61-14.2a5.15,5.15,0,0,0-4.39-.7h0l4.15-2.54c1.25-.8,3-.73,5,.4l24.61,14.21a15.23,15.23,0,0,1,6.88,11.91v28.42c0,2.24-.81,3.8-2.12,4.49l-4.55,2.73h0C149.07,120.64,149.8,119.13,149.8,117Z"/><path class="cls-68" d="M122.43,89.39l2.14,2.14c-.33,1.41-.87,2.28-1.64,2.61a3.25,3.25,0,0,1-2.9-.52,9.3,9.3,0,0,1-3.59-4.06,13.76,13.76,0,0,1-1.4-6.24q0-3.64,1.41-4.85c.94-.81,2.18-.76,3.71.12a8.63,8.63,0,0,1,3.26,3.47,11.28,11.28,0,0,1,1.12,3.34l-2.19-.57a6.09,6.09,0,0,0-.8-2.26,4.45,4.45,0,0,0-1.5-1.52,1.54,1.54,0,0,0-2,0c-.5.49-.75,1.6-.75,3.34a10.54,10.54,0,0,0,.74,4.38,5,5,0,0,0,1.94,2.3,1.42,1.42,0,0,0,1.52.12A2.64,2.64,0,0,0,122.43,89.39Z"/><path class="cls-68" d="M125.91,92l2.15,1a6.89,6.89,0,0,0,.78,2.57,4.36,4.36,0,0,0,1.61,1.61c.71.41,1.24.52,1.6.32a1.14,1.14,0,0,0,.55-1.1,2.44,2.44,0,0,0-.23-1,4.21,4.21,0,0,0-.8-1.09c-.26-.27-.85-.82-1.76-1.66a12.66,12.66,0,0,1-2.5-2.88,7.2,7.2,0,0,1-1-3.53,3.12,3.12,0,0,1,.48-1.81,1.5,1.5,0,0,1,1.36-.69,4.54,4.54,0,0,1,2.16.74,8.19,8.19,0,0,1,3.1,3,8,8,0,0,1,1.09,3.85l-2.21-1.15a4.67,4.67,0,0,0-.61-2,3.76,3.76,0,0,0-1.4-1.3,1.83,1.83,0,0,0-1.5-.34c-.24.09-.35.33-.35.71a2.09,2.09,0,0,0,.32,1.07,11.66,11.66,0,0,0,2,2.15,20.17,20.17,0,0,1,2.39,2.43,7.75,7.75,0,0,1,1.21,2.18,7.52,7.52,0,0,1,.44,2.58,3.65,3.65,0,0,1-.53,2,1.64,1.64,0,0,1-1.48.78,5.4,5.4,0,0,1-2.38-.85,8.37,8.37,0,0,1-3.18-3.12A10.46,10.46,0,0,1,125.91,92Z"/><path class="cls-68" d="M136.1,97.9l2.16,1a6.71,6.71,0,0,0,.78,2.58,4.38,4.38,0,0,0,1.6,1.6c.72.41,1.25.52,1.61.33a1.14,1.14,0,0,0,.54-1.1,2.42,2.42,0,0,0-.22-1,4.28,4.28,0,0,0-.8-1.09c-.26-.27-.85-.83-1.77-1.66a12.64,12.64,0,0,1-2.49-2.89,7.14,7.14,0,0,1-1-3.52,3.2,3.2,0,0,1,.47-1.81,1.53,1.53,0,0,1,1.37-.69,4.45,4.45,0,0,1,2.15.73,8,8,0,0,1,4.2,6.85L142.48,96a4.82,4.82,0,0,0-.61-2,3.84,3.84,0,0,0-1.4-1.3,1.81,1.81,0,0,0-1.51-.34c-.23.09-.35.32-.35.7a2.11,2.11,0,0,0,.33,1.08,11.66,11.66,0,0,0,2,2.15,20.22,20.22,0,0,1,2.39,2.42,8,8,0,0,1,1.2,2.19,7.21,7.21,0,0,1,.44,2.58,3.67,3.67,0,0,1-.52,2,1.61,1.61,0,0,1-1.48.77,5.21,5.21,0,0,1-2.38-.84,8.61,8.61,0,0,1-3.19-3.12A10.74,10.74,0,0,1,136.1,97.9Z"/><path class="cls-75" d="M373.84,270.72a15.24,15.24,0,0,0,6.87,11.91l24.61,14.21c3.79,2.18,6.88.4,6.88-4V264.45a15.23,15.23,0,0,0-6.88-11.91l-24.61-14.21c-3.78-2.18-6.87-.4-6.87,4Z"/><path class="cls-76" d="M412.2,292.87V264.45a15.23,15.23,0,0,0-6.88-11.91l-24.61-14.21a5.12,5.12,0,0,0-4.38-.69h0l4.15-2.54c1.25-.8,3-.73,5,.4l24.61,14.2a15.29,15.29,0,0,1,6.88,11.92V290c0,2.24-.82,3.81-2.12,4.5l-4.55,2.73h0C411.46,296.51,412.2,295,412.2,292.87Z"/><path class="cls-68" d="M387.39,256.08l2.6,1.5V267a9,9,0,0,1-.29,2.67,1.79,1.79,0,0,1-1.37,1.29,3.87,3.87,0,0,1-2.62-.72,7.78,7.78,0,0,1-2.93-2.93,8.47,8.47,0,0,1-1-4.21l2.45,1.09a6,6,0,0,0,.32,2,3,3,0,0,0,1.28,1.54c.59.34,1,.39,1.23.14a3.79,3.79,0,0,0,.36-2.17Z"/><path class="cls-68" d="M391.86,270.45l2.48,1a4.19,4.19,0,0,0,.64,1.63,3.93,3.93,0,0,0,1.36,1.21,2.17,2.17,0,0,0,1.44.43c.21-.07.32-.26.32-.58a1.26,1.26,0,0,0-.18-.63,4,4,0,0,0-.82-.86,26.86,26.86,0,0,1-3.79-3.57,5.2,5.2,0,0,1-1.1-3.06,1.75,1.75,0,0,1,1-1.81c.64-.26,1.63,0,3,.77a9.19,9.19,0,0,1,2.85,2.36,7.4,7.4,0,0,1,1.28,2.87l-2.33-.85a3.36,3.36,0,0,0-.56-1.28,3.81,3.81,0,0,0-1.19-1,2.57,2.57,0,0,0-1.4-.49c-.19,0-.28.18-.28.42a1.16,1.16,0,0,0,.24.65,19.29,19.29,0,0,0,2.31,2.14,14.39,14.39,0,0,1,2.76,2.85,4.73,4.73,0,0,1,.77,2.57,1.87,1.87,0,0,1-1.07,1.93c-.72.29-1.78,0-3.18-.77a9.61,9.61,0,0,1-3-2.63A8.34,8.34,0,0,1,391.86,270.45Z"/><path class="cls-77" d="M35.21,155.84a15.23,15.23,0,0,0,6.88,11.91L66.7,182c3.78,2.19,6.87.4,6.87-4V149.57a15.27,15.27,0,0,0-6.87-11.91L42.09,123.45c-3.79-2.18-6.88-.39-6.88,4Z"/><path class="cls-78" d="M73.57,178V149.57a15.27,15.27,0,0,0-6.87-11.91L42.09,123.45a5.14,5.14,0,0,0-4.39-.69h0l4.15-2.54c1.25-.8,3-.73,5,.4l24.61,14.21a15.23,15.23,0,0,1,6.88,11.91v28.42c0,2.24-.81,3.8-2.12,4.49l-4.55,2.73h0C72.83,181.63,73.57,180.12,73.57,178Z"/><path class="cls-68" d="M38.82,150V137.52l1.68,1v4.91l3.28,1.89v-4.91l1.68,1v12.48l-1.68-1v-5.45l-3.28-1.9V151Z"/><path class="cls-68" d="M49.06,155.91V145.54l-2.47-1.42V142l6.6,3.81v2.11l-2.46-1.42v10.37Z"/><path class="cls-68" d="M54.25,158.91V146.43l2.51,1.44,1.5,9.39,1.49-7.66,2.52,1.46v12.48l-1.56-.9v-9.83l-1.65,8.88-1.61-.94L55.81,150v9.83Z"/><path class="cls-68" d="M64,164.52V152.15l1.67,1v10.28l4.17,2.4v2.11Z"/><path class="cls-79" d="M22.75,209.07a9,9,0,0,0,4.07,7.06l14.59,8.42c2.24,1.3,4.08.24,4.08-2.35V205.35a9,9,0,0,0-4.08-7.06l-14.59-8.42c-2.24-1.3-4.07-.24-4.07,2.35Z"/><path class="cls-80" d="M119.82,153.63a4.73,4.73,0,0,0,2.14,3.71l7.67,4.43c1.17.68,2.14.12,2.14-1.24v-8.85a4.75,4.75,0,0,0-2.14-3.71L122,143.55c-1.18-.68-2.14-.13-2.14,1.23Z"/><path class="cls-81" d="M16.77,92.34a4.75,4.75,0,0,0,2.14,3.71l7.67,4.42c1.18.68,2.14.13,2.14-1.23V90.39a4.75,4.75,0,0,0-2.14-3.72l-7.67-4.42c-1.18-.68-2.14-.12-2.14,1.24Z"/><path class="cls-82" d="M124.31,27.69a4.75,4.75,0,0,0,2.14,3.71l7.67,4.43c1.18.68,2.14.12,2.14-1.24V25.74A4.75,4.75,0,0,0,134.12,22l-7.67-4.43c-1.18-.68-2.14-.12-2.14,1.24Z"/><path class="cls-83" d="M177.58,10.38a4.75,4.75,0,0,0,2.14,3.71l7.66,4.42c1.18.68,2.15.13,2.15-1.23V8.43a4.76,4.76,0,0,0-2.15-3.71L179.72.29c-1.18-.68-2.14-.12-2.14,1.24Z"/><path class="cls-84" d="M353.33,92.34a4.75,4.75,0,0,0,2.14,3.71l7.66,4.42c1.18.68,2.15.13,2.15-1.24V90.39a4.73,4.73,0,0,0-2.15-3.72l-7.66-4.42c-1.18-.68-2.14-.13-2.14,1.24Z"/><path class="cls-85" d="M399.33,91.32A4.75,4.75,0,0,0,401.47,95l7.67,4.42c1.18.68,2.14.13,2.14-1.24V89.37a4.75,4.75,0,0,0-2.14-3.72l-7.67-4.42c-1.18-.68-2.14-.12-2.14,1.24Z"/><path class="cls-86" d="M365,50a4.77,4.77,0,0,0,2.14,3.71l7.67,4.43c1.18.68,2.14.12,2.14-1.24V48.05a4.75,4.75,0,0,0-2.14-3.71l-7.67-4.43c-1.17-.68-2.14-.12-2.14,1.24Z"/><path class="cls-87" d="M298.24,152.27a4.76,4.76,0,0,0,2.15,3.71l7.66,4.42c1.18.68,2.14.13,2.14-1.23v-8.86a4.71,4.71,0,0,0-2.14-3.7l-7.66-4.43c-1.18-.68-2.15-.12-2.15,1.24Z"/><path class="cls-88" d="M437,186.2a5,5,0,0,0,2.24,3.89l8,4.64c1.24.72,2.25.13,2.25-1.29v-9.29a5,5,0,0,0-2.25-3.89l-8-4.64c-1.23-.72-2.24-.13-2.24,1.3Z"/><path class="cls-89" d="M0,156.73a9,9,0,0,0,4.08,7.06l14.59,8.42c2.24,1.3,4.08.24,4.08-2.35V153A9,9,0,0,0,18.67,146L4.08,137.53c-2.25-1.3-4.08-.24-4.08,2.35Z"/><path class="cls-90" d="M155.42,40.55a9,9,0,0,0,4.08,7.07L174.09,56c2.24,1.29,4.07.23,4.07-2.36V36.84a9.07,9.07,0,0,0-4.07-7.07L159.5,21.35c-2.25-1.29-4.08-.23-4.08,2.36Z"/><path class="cls-91" d="M431.88,268.27a9,9,0,0,0,4.08,7.06l14.59,8.43c2.24,1.29,4.08.23,4.08-2.36V264.56a9.08,9.08,0,0,0-4.08-7.07L436,249.07c-2.24-1.29-4.08-.24-4.08,2.35Z"/><path class="cls-92" d="M362.46,375.58a9,9,0,0,0,4.08,7.06l14.59,8.43c2.24,1.29,4.08.23,4.08-2.36V371.86a9.06,9.06,0,0,0-4.08-7.06l-14.59-8.42c-2.24-1.3-4.08-.24-4.08,2.35Z"/><path class="cls-93" d="M377.54,133.53a9,9,0,0,0,4.07,7.06L396.2,149c2.25,1.29,4.08.23,4.08-2.36V129.82a9,9,0,0,0-4.08-7.07l-14.59-8.42c-2.24-1.29-4.07-.23-4.07,2.35Z"/><path class="cls-94" d="M264.23,117.59a9.07,9.07,0,0,0,4.07,7.07l14.6,8.42c2.24,1.3,4.07.24,4.07-2.35V113.88a9,9,0,0,0-4.07-7.06l-14.6-8.43c-2.24-1.29-4.07-.23-4.07,2.36Z"/><path class="cls-95" d="M319.12,46.47a9,9,0,0,0,4.08,7.06L337.79,62c2.25,1.29,4.08.23,4.08-2.36V42.75a9,9,0,0,0-4.08-7.06L323.2,27.27c-2.24-1.3-4.08-.24-4.08,2.35Z"/><path class="cls-96" d="M228.12,28.57a9.08,9.08,0,0,0,4.08,7.07l14.59,8.42c2.24,1.29,4.08.23,4.08-2.36V24.86a9.08,9.08,0,0,0-4.08-7.07L232.2,9.37c-2.24-1.29-4.08-.23-4.08,2.36Z"/><path class="cls-97" d="M376.21,194.6a15.24,15.24,0,0,0,6.87,11.91l24.61,14.21c3.79,2.18,6.88.4,6.88-4V188.33a15.23,15.23,0,0,0-6.88-11.91l-24.61-14.21c-3.78-2.18-6.87-.4-6.87,4Z"/><path class="cls-98" d="M414.57,216.75V188.33a15.23,15.23,0,0,0-6.88-11.91l-24.61-14.21a5.12,5.12,0,0,0-4.38-.69h0l4.14-2.54c1.26-.79,3-.72,5,.4l24.61,14.21a15.32,15.32,0,0,1,6.88,11.92v28.41c0,2.24-.81,3.8-2.11,4.5l-4.55,2.72h0C413.83,220.39,414.57,218.88,414.57,216.75Z"/><path class="cls-68" d="M388.64,192.09l2.26,2.36c-.34,1.64-.92,2.67-1.73,3.1a3.17,3.17,0,0,1-3.08-.44,9.82,9.82,0,0,1-3.79-4.49,16.5,16.5,0,0,1-1.49-7.13q0-4.2,1.5-5.67t3.92-.06a9,9,0,0,1,3.46,3.82,13.53,13.53,0,0,1,1.19,3.79l-2.32-.53a7.1,7.1,0,0,0-.86-2.57,4.4,4.4,0,0,0-1.58-1.67,1.52,1.52,0,0,0-2.09.14c-.54.58-.81,1.88-.81,3.89a13,13,0,0,0,.79,5,5.26,5.26,0,0,0,2.06,2.55,1.42,1.42,0,0,0,1.6.06A3.34,3.34,0,0,0,388.64,192.09Z"/><path class="cls-68" d="M395.44,199.79v-4.38l-3-1.75v-3l3,1.75V188l2,1.16v4.39l3,1.75v3l-3-1.76V201Z"/><path class="cls-68" d="M404.89,205.25v-4.38l-3-1.75v-3l3,1.75v-4.38l2,1.17V199l3,1.76v3l-3-1.75v4.38Z"/><path class="cls-99" d="M318.19,124.24a15.24,15.24,0,0,0,6.87,11.91l24.62,14.21c3.78,2.18,6.87.4,6.87-4V118a15.24,15.24,0,0,0-6.87-11.91L325.06,91.85c-3.78-2.19-6.87-.4-6.87,4Z"/><path class="cls-100" d="M356.55,146.39V118a15.24,15.24,0,0,0-6.87-11.91L325.06,91.85a5.12,5.12,0,0,0-4.38-.69h0l4.15-2.54c1.25-.79,3-.72,5,.4l24.61,14.21a15.29,15.29,0,0,1,6.88,11.92v28.41c0,2.24-.82,3.8-2.12,4.5l-4.55,2.72h0C355.81,150,356.55,148.52,356.55,146.39Z"/><path class="cls-68" d="M346,123.7l-1.34-.77a2.68,2.68,0,0,1-1.16-1.31c-.11-.41-.17-1.67.21-1.89l.95-.55c.37-.22.37-.92,0-1.58L343,114.89c-.38-.65-1-1-1.37-.79l-.95.55a1,1,0,0,1-1.2-.2,5.36,5.36,0,0,1-1.09-2.23v-1.54a2.16,2.16,0,0,0-1-1.68l-2.21-1.28c-.54-.3-1,0-1,.56v1.55c0,.61-.25,1.07-.55,1A3.35,3.35,0,0,1,332,109.6L331,108c-.38-.65-1-1-1.37-.79l-1.57.9c-.37.22-.37.93,0,1.58l.95,1.65a2.4,2.4,0,0,1,.43,1.64c-.14.25-.85.76-1.38.46l-1.34-.78c-.54-.3-1-.05-1,.56v2.56a2.1,2.1,0,0,0,1,1.67l1.34.78a2.65,2.65,0,0,1,1.16,1.31c.11.41.16,1.67-.21,1.89l-.95.54c-.37.22-.37.93,0,1.58l1.57,2.72c.37.65,1,1,1.37.79l.94-.55a1,1,0,0,1,1.21.2,5.44,5.44,0,0,1,1.09,2.22v1.55a2.13,2.13,0,0,0,1,1.68l2.21,1.28c.53.3,1,0,1-.56v-1.55c0-.62.25-1.07.55-1a3.38,3.38,0,0,1,1.74,1.25l.95,1.64c.38.65,1,1,1.37.79l1.57-.9c.37-.22.37-.93,0-1.59l-.95-1.64a2.34,2.34,0,0,1-.43-1.64c.14-.25.85-.77,1.38-.46l1.34.77c.53.31,1,.06,1-.55v-2.56A2.19,2.19,0,0,0,346,123.7Zm-9.6,2.46a10.74,10.74,0,0,1-4.84-8.4c0-3.09,2.17-4.34,4.84-2.8a10.73,10.73,0,0,1,4.85,8.4C341.2,126.45,339,127.7,336.35,126.16Z"/><path class="cls-101" d="M368.44,339.47a15.24,15.24,0,0,0,6.87,11.91l24.61,14.21c3.79,2.18,6.88.4,6.88-4V333.2a15.23,15.23,0,0,0-6.88-11.91l-24.61-14.21c-3.78-2.18-6.87-.4-6.87,4Z"/><path class="cls-102" d="M406.8,361.62V333.2a15.23,15.23,0,0,0-6.88-11.91l-24.61-14.21a5.12,5.12,0,0,0-4.38-.69h0l4.14-2.55c1.26-.79,3-.72,5,.41l24.61,14.2a15.32,15.32,0,0,1,6.88,11.92v28.41c0,2.24-.81,3.81-2.11,4.5L404.87,366h0C406.06,365.26,406.8,363.75,406.8,361.62Z"/><path class="cls-68" d="M396.58,330.5l-1.36-2.35-3.13,1.8a23,23,0,0,1,1.52,2.27Z"/><path class="cls-68" d="M382.2,324.24l-3.13-5.41-1.36.78,3,5.14A4.47,4.47,0,0,1,382.2,324.24Z"/><path class="cls-68" d="M388.11,326.07v-5.43l-1.93-1.11V325a9,9,0,0,1,1,.44C387.47,325.59,387.78,325.85,388.11,326.07Z"/><path class="cls-68" d="M374.76,328.34l3.23,1.87a9.09,9.09,0,0,1,.31-2l-3.54-2Z"/><path class="cls-68" d="M396,338.38a15.47,15.47,0,0,1,.31,2.4l3.22,1.86v-2.22Z"/><path class="cls-68" d="M387.14,327.93c-3.87-2.23-7-.42-7,4.05a17.67,17.67,0,0,0,1.85,6.54c1,2.25,2.2,3.64,2.2,5.59v4.18a3.24,3.24,0,0,0,1.46,2.53l3,1.74c.8.46,1.46.08,1.46-.85v-4.17c0-2,1.24-1.92,2.2-3.06a6.29,6.29,0,0,0,1.85-4.4A15.56,15.56,0,0,0,387.14,327.93Zm3.78,11.65s.88-3.28-3.22-9.91a13.71,13.71,0,0,1,5.37,11.15Z"/><path class="cls-103" d="M47.37,69a15.29,15.29,0,0,0,6.88,11.92L78.86,95.09c3.78,2.18,6.88.39,6.88-4V62.7a15.29,15.29,0,0,0-6.88-11.92L54.25,36.58c-3.78-2.19-6.88-.4-6.88,4Z"/><path class="cls-104" d="M85.74,91.11V62.7a15.29,15.29,0,0,0-6.88-11.92L54.25,36.58a5.14,5.14,0,0,0-4.39-.7h0L54,33.34c1.26-.8,3-.72,5,.4L83.6,48a15.24,15.24,0,0,1,6.87,11.91V88.28c0,2.24-.81,3.8-2.11,4.49L83.8,95.5h0C85,94.75,85.74,93.25,85.74,91.11Z"/><path class="cls-68" d="M76.06,61.47c-3.48-6-9.12-9.28-12.6-7.27-3.26,1.88-3.42,7.72-.57,13.4l-1.48.86-.63-1.08-6.93,4,2.52,4.37,6.94-4-.63-1.08,1.48-.86c3.5,5.31,8.64,8.09,11.9,6.2C79.53,74,79.53,67.5,76.06,61.47ZM74.45,73.22c-2.59,1.5-6.79-.92-9.38-5.41s-2.58-9.32,0-10.82,6.79.93,9.38,5.41S77,71.73,74.45,73.22Z"/></g></g></g></svg>